# Exported from MakeClothes (TM)
# author Unknown
# license AGPL3 (see also http://www.makehuman.org/doc/node/external_tools_license.html)
# homepage http://www.makehuman.org/
v -1.8725 -7.3210 -0.0141
v -1.8601 -7.0573 -0.0376
v -1.9985 -7.0560 0.2105
v -1.7088 -6.9774 0.6171
v -1.9862 -7.0597 0.3922
v -1.7925 -6.9933 0.6048
v -1.6206 -6.9781 0.6109
v -1.8735 -7.0208 0.5671
v -1.5298 -6.9827 0.5732
v -1.9285 -7.0367 0.5142
v -1.9888 -7.3043 0.2395
v -1.4005 -6.9520 0.2667
v -1.4696 -6.9693 0.5056
v -1.7509 -7.0389 -0.1001
v -1.5701 -7.0252 -0.0892
v -1.4733 -6.9921 0.0132
v -1.6725 -7.0453 -0.1082
v -1.4152 -6.9687 0.1375
v -1.9410 -7.0690 0.0514
v -1.9245 -7.2537 0.5387
v -1.6104 -7.1603 0.6671
v -1.9710 -7.2762 0.4061
v -1.4174 -7.1986 0.1610
v -1.6602 -7.2698 -0.1080
v -1.9383 -7.3162 0.0917
v -1.7680 -7.3138 -0.0995
v -1.5498 -7.2388 -0.0518
v -1.4487 -7.1928 0.5606
v -1.5086 -7.1798 0.6310
v -1.4067 -7.1762 0.3217
v -1.7041 -7.1564 0.6650
v -1.7891 -7.1783 0.6510
v -1.8662 -7.2135 0.6141
v -1.4662 -7.2168 0.0509
v -1.4292 -6.9638 0.4168
v -1.4163 -7.1879 0.4765
v -1.6099 -7.9579 2.0396
v -1.4481 -7.9717 2.0435
v -1.8138 -7.9883 1.9969
v -1.8641 -8.0024 1.9736
v -1.9287 -8.0103 1.9152
v -1.9879 -8.0780 1.8741
v -1.5499 -8.2142 2.0006
v -1.4516 -8.2142 1.9938
v -1.4110 -8.0624 2.0486
v -1.9586 -8.2142 1.8269
v -1.9284 -8.2142 1.8439
v -1.4920 -7.5290 0.8786
v -1.3991 -7.6558 0.7275
v -1.7364 -7.4949 0.9025
v -1.8602 -7.5396 0.8852
v -1.9560 -7.6117 0.8426
v -2.1053 -7.8195 0.6829
v -1.4940 -7.3694 0.7230
v -1.7150 -7.3416 0.7635
v -1.8106 -7.3823 0.7584
v -1.9056 -7.4464 0.7178
v -1.5179 -8.1839 0.7199
v -1.4082 -8.0534 0.6829
v -1.3966 -7.7932 0.6185
v -1.4165 -7.4897 0.5538
v -1.4024 -7.5237 0.4055
v -1.5162 -8.1839 0.6081
v -1.4149 -8.0659 0.5346
v -1.4901 -8.1839 0.3633
v -1.4262 -8.1619 0.3664
v -1.5213 -8.1839 0.2331
v -1.5101 -8.1839 0.2061
v -1.5176 -7.8079 0.0947
v -1.8466 -8.1839 -0.1265
v -1.8076 -7.8354 -0.1722
v -2.0379 -8.1839 0.0743
v -1.9931 -7.8126 0.0296
v -2.0874 -8.1839 0.3027
v -2.0637 -7.8020 0.2402
v -2.0982 -8.1839 0.5344
v -2.0956 -7.8292 0.4908
v -2.1198 -8.1839 0.6843
v -2.0170 -7.5588 0.5133
v -1.7847 -7.5707 -0.1212
v -1.9124 -7.5699 0.0158
v -2.0034 -7.5611 0.1447
v -2.0435 -7.5683 0.3077
v -1.4663 -7.7987 0.2395
v -1.5338 -7.5425 0.0273
v -1.4158 -7.7981 0.4455
v -2.0096 -8.1839 0.6436
v -1.8406 -8.1839 0.6596
v -1.6162 -8.1839 0.7153
v -2.0035 -8.1839 0.5136
v -1.8370 -8.1839 0.5236
v -1.5972 -8.1839 0.5836
v -2.0056 -8.1839 0.2409
v -1.8344 -8.1839 0.2245
v -1.4174 -7.5197 0.2559
v -1.6026 -8.1839 0.3142
v -1.9914 -8.1839 0.0988
v -1.8642 -8.1839 0.0024
v -1.4679 -7.5298 0.1334
v -1.6160 -8.1839 0.0855
v -1.5786 -8.1839 -0.0100
v -1.6198 -7.8245 -0.1015
v -1.6444 -7.5568 -0.1127
v -1.8327 -8.2142 1.9457
v -1.7262 -8.2142 1.9582
v -1.5212 -7.9655 2.0576
v -2.0169 -8.0078 1.8421
v -1.7055 -7.9607 2.0088
v -1.6898 -7.9354 1.9471
v -2.0532 -7.9782 1.7982
v -1.4710 -7.9474 1.9791
v -1.7171 -8.2142 1.8213
v -1.8645 -8.2142 1.7854
v -1.9811 -8.2142 1.7334
v -2.0437 -8.2142 1.6720
v -1.3229 -8.0404 1.9210
v -1.3683 -8.2142 1.8914
v -1.4967 -8.2142 1.8697
v -2.1108 -8.0772 1.7188
v -1.9838 -7.9701 1.8338
v -1.9021 -7.9776 1.8770
v -1.7925 -7.9423 1.8934
v -1.3668 -7.9946 1.9516
v -1.5678 -7.9306 1.9757
v -1.5462 -7.8912 1.7052
v -1.3278 -7.9322 1.7081
v -1.7999 -7.9062 1.6818
v -1.9264 -7.9222 1.6617
v -2.0278 -7.8970 1.6352
v -2.1966 -8.0013 1.5274
v -1.4664 -8.2142 1.5843
v -1.3533 -8.2142 1.5993
v -1.2740 -8.0000 1.6721
v -2.1153 -8.2142 1.4783
v -1.9894 -8.2142 1.5171
v -1.8320 -8.2142 1.5568
v -1.6692 -8.2142 1.5682
v -1.4130 -7.8977 1.7138
v -2.1223 -7.9447 1.5655
v -1.6966 -7.8859 1.7093
v -1.6947 -7.8459 1.5198
v -2.1255 -7.8654 1.3675
v -1.4134 -7.8332 1.5134
v -1.6537 -8.2142 1.4109
v -1.8625 -8.2142 1.3707
v -2.0376 -8.2142 1.3181
v -2.1492 -8.2142 1.3104
v -1.2482 -7.9822 1.4433
v -1.3234 -8.2142 1.4280
v -1.4391 -8.2142 1.4329
v -2.1753 -7.9329 1.3210
v -2.0105 -7.8710 1.3995
v -1.9018 -7.8683 1.4714
v -1.7900 -7.8534 1.4983
v -1.3210 -7.8917 1.4851
v -1.5419 -7.8296 1.5233
v -1.4946 -7.7631 1.3630
v -1.3037 -7.8883 1.2625
v -1.7978 -7.7799 1.3290
v -1.9178 -7.8031 1.2903
v -2.0129 -7.8054 1.2023
v -2.1717 -7.9031 1.0756
v -1.4704 -8.2142 1.2533
v -1.3704 -8.2142 1.2183
v -1.2855 -7.9906 1.1977
v -2.1571 -8.2142 1.1010
v -2.0451 -8.2142 1.1274
v -1.8679 -8.2142 1.1714
v -1.6497 -8.2142 1.2284
v -1.4413 -7.4111 0.6440
v -1.4466 -7.5967 0.8285
v -1.3835 -7.7979 1.3275
v -2.0853 -7.8321 1.1398
v -2.0256 -7.6811 0.7627
v -1.9692 -7.4997 0.6367
v -1.6468 -7.7535 1.3382
v -1.6266 -7.6377 1.1269
v -2.0760 -7.7872 0.9241
v -1.3955 -7.7405 1.0679
v -1.6447 -8.1839 0.9848
v -1.8575 -8.1839 0.9306
v -2.0252 -8.1839 0.9048
v -2.1288 -8.1839 0.9077
v -1.6219 -7.4992 0.9231
v -1.6087 -7.3507 0.7709
v -1.3486 -7.9107 0.9171
v -1.4427 -8.1839 0.9895
v -1.5145 -8.1839 1.0152
v -2.1621 -7.8823 0.8899
v -1.9990 -7.7273 0.9849
v -1.9092 -7.6920 1.0646
v -1.7645 -7.6484 1.1093
v -1.3562 -7.8241 0.9949
v -1.5027 -7.6683 1.1090
v -1.5426 -8.0741 2.0661
v -1.9261 -8.0962 1.9373
v -1.7047 -8.0812 2.0594
v -1.8108 -8.0132 2.0342
v -1.8451 -8.0800 2.0376
v -1.7361 -8.0080 2.0398
v -1.7115 -8.1577 2.0438
v -1.8571 -8.1577 1.9940
v -1.4071 -8.1577 2.0357
v -1.9860 -8.1577 1.8694
v -1.3939 -7.9033 0.6562
v -1.5802 -8.0347 -0.0654
v -1.4119 -7.9840 0.5045
v -1.4539 -7.9668 0.3142
v -2.1849 -7.9750 0.6946
v -2.1527 -8.0032 0.5393
v -1.2755 -8.1577 1.6540
v -2.1980 -8.1577 1.5116
v -2.1086 -8.1577 1.7063
v -1.3160 -8.1577 1.9171
v -2.1106 -7.9777 0.2995
v -2.0199 -8.0034 -0.0011
v -1.8190 -8.0385 -0.1599
v -1.4964 -7.9863 0.1498
v -1.9369 -8.1577 1.9153
v -1.5332 -8.1577 2.0571
v -2.2229 -8.0399 0.9094
v -1.3539 -8.0182 0.9507
v -1.2794 -8.1577 1.2141
v -2.2304 -8.0632 1.0950
v -2.2270 -8.1577 1.3253
v -1.2399 -8.1577 1.4426
v 1.5221 -8.1666 0.9679
v 2.0684 -8.1666 0.8894
v 2.0927 -8.2031 1.0749
v 1.4161 -8.2031 1.1875
v 1.3756 -8.2031 1.3889
v 2.0859 -8.2031 1.2760
v 2.0568 -8.2031 1.4372
v 1.4013 -8.2031 1.5534
v 1.4143 -8.2031 1.8337
v 1.9952 -8.2031 1.6231
v 1.7221 -8.2031 1.9400
v 1.8137 -8.2031 1.9045
v 1.5952 -8.1666 0.0264
v 2.0607 -8.1666 0.6748
v 2.0421 -8.1666 0.5309
v 2.0328 -8.1666 0.3084
v 1.9902 -8.1666 0.0892
v 1.8257 -8.1666 -0.0945
v 1.5362 -8.1666 0.2157
v 1.5016 -8.1666 0.3893
v 1.5705 -8.2031 1.9560
v 1.4859 -8.2031 1.9321
v 1.9220 -8.2031 1.7719
v 1.8960 -8.2031 1.8083
v 1.5699 -8.1666 0.6837
v 1.5311 -8.1666 0.5457
v 1.5123 -8.1845 0.9612
v 2.1372 -8.1845 0.8769
v 2.1662 -8.2210 1.0763
v 1.3582 -8.2210 1.1972
v 1.3099 -8.2210 1.4136
v 2.1581 -8.2210 1.2923
v 2.1233 -8.2210 1.4655
v 1.3406 -8.2210 1.5904
v 1.3560 -8.2210 1.8917
v 2.0498 -8.2210 1.6653
v 1.7237 -8.2210 2.0059
v 1.8330 -8.2210 1.9677
v 1.5721 -8.1845 -0.0505
v 2.1280 -8.1845 0.6463
v 2.1058 -8.1845 0.4917
v 2.0946 -8.1845 0.2526
v 2.0438 -8.1845 0.0170
v 1.8474 -8.1845 -0.1360
v 1.5016 -8.1845 0.1529
v 1.4603 -8.1845 0.3395
v 1.5426 -8.2210 2.0230
v 1.4415 -8.2210 1.9973
v 1.9623 -8.2210 1.8252
v 1.9313 -8.2210 1.8644
v 1.5165 -8.1845 0.6558
v 1.4898 -8.1845 0.5076
v 1.5062 -8.2147 0.9877
v 1.5123 -8.2147 0.9612
v 2.1372 -8.2147 0.8769
v 2.0308 -8.2147 0.8739
v 1.8585 -8.2147 0.9004
v 1.6400 -8.2147 0.9563
v 1.6451 -8.2512 1.2077
v 1.8692 -8.2512 1.1488
v 2.0512 -8.2512 1.1035
v 2.1662 -8.2512 1.0763
v 1.3582 -8.2512 1.1972
v 1.4609 -8.2512 1.2334
v 1.4288 -8.2512 1.4186
v 1.3099 -8.2512 1.4136
v 2.1581 -8.2512 1.2923
v 2.0435 -8.2512 1.3002
v 1.8636 -8.2512 1.3545
v 1.6492 -8.2512 1.3960
v 1.6651 -8.2512 1.5583
v 1.8323 -8.2512 1.5465
v 1.9940 -8.2512 1.5055
v 2.1233 -8.2512 1.4655
v 1.3406 -8.2512 1.5904
v 1.4568 -8.2512 1.5749
v 1.4879 -8.2512 1.8694
v 1.3560 -8.2512 1.8917
v 2.0498 -8.2512 1.6653
v 1.9855 -8.2512 1.7287
v 1.8657 -8.2512 1.7823
v 1.7143 -8.2512 1.8194
v 1.7237 -8.2512 2.0059
v 1.8330 -8.2512 1.9677
v 1.5721 -8.2147 -0.0505
v 1.5911 -8.2147 0.5425
v 1.8375 -8.2147 0.4805
v 2.0085 -8.2147 0.4702
v 1.6107 -8.2147 0.6783
v 1.8412 -8.2147 0.6209
v 2.0147 -8.2147 0.6044
v 2.1280 -8.2147 0.6463
v 2.1058 -8.2147 0.4917
v 2.0946 -8.2147 0.2526
v 2.0438 -8.2147 0.0170
v 1.8474 -8.2147 -0.1360
v 1.5016 -8.2147 0.1529
v 1.4603 -8.2147 0.3395
v 1.4898 -8.2147 0.5076
v 1.5079 -8.2147 0.5678
v 1.5165 -8.2147 0.6558
v 1.5097 -8.2147 0.6830
v 1.9313 -8.2512 1.8644
v 1.9623 -8.2512 1.8252
v 1.4415 -8.2512 1.9973
v 1.5426 -8.2512 2.0230
v 1.2407 -8.1577 1.4426
v 2.2278 -8.1577 1.3253
v 2.2312 -8.0632 1.0950
v 1.2802 -8.1577 1.2141
v 1.3547 -8.0182 0.9507
v 2.2237 -8.0399 0.9094
v 1.5340 -8.1577 2.0571
v 1.9377 -8.1577 1.9153
v 1.4972 -7.9863 0.1498
v 1.8198 -8.0385 -0.1599
v 2.0207 -8.0034 -0.0011
v 2.1114 -7.9777 0.2995
v 1.3168 -8.1577 1.9171
v 2.1094 -8.1577 1.7063
v 2.1988 -8.1577 1.5116
v 1.2763 -8.1577 1.6540
v 2.1535 -8.0032 0.5393
v 2.1857 -7.9750 0.6946
v 1.4547 -7.9668 0.3142
v 1.4127 -7.9840 0.5045
v 1.5810 -8.0347 -0.0654
v 1.3947 -7.9033 0.6562
v 1.9868 -8.1577 1.8694
v 1.4079 -8.1577 2.0357
v 1.8579 -8.1577 1.9940
v 1.7123 -8.1577 2.0438
v 1.7369 -8.0080 2.0398
v 1.8459 -8.0800 2.0376
v 1.8116 -8.0132 2.0342
v 1.7055 -8.0812 2.0594
v 1.9269 -8.0962 1.9373
v 1.5434 -8.0741 2.0661
v 1.5035 -7.6683 1.1090
v 1.3570 -7.8241 0.9949
v 1.7653 -7.6484 1.1093
v 1.9100 -7.6920 1.0646
v 1.9998 -7.7273 0.9849
v 2.1629 -7.8823 0.8899
v 1.5154 -8.1839 1.0152
v 1.4436 -8.1839 0.9895
v 1.3494 -7.9107 0.9171
v 1.6095 -7.3507 0.7709
v 1.6227 -7.4992 0.9231
v 2.1297 -8.1839 0.9077
v 2.0261 -8.1839 0.9048
v 1.8583 -8.1839 0.9306
v 1.6456 -8.1839 0.9848
v 1.3963 -7.7405 1.0679
v 2.0768 -7.7872 0.9241
v 1.6274 -7.6377 1.1269
v 1.6476 -7.7535 1.3382
v 1.9700 -7.4997 0.6367
v 2.0264 -7.6811 0.7627
v 2.0861 -7.8321 1.1398
v 1.3843 -7.7979 1.3275
v 1.4474 -7.5967 0.8285
v 1.4421 -7.4111 0.6440
v 1.6506 -8.2142 1.2284
v 1.8687 -8.2142 1.1714
v 2.0459 -8.2142 1.1274
v 2.1579 -8.2142 1.1010
v 1.2863 -7.9906 1.1977
v 1.3713 -8.2142 1.2183
v 1.4712 -8.2142 1.2533
v 2.1725 -7.9031 1.0756
v 2.0137 -7.8054 1.2023
v 1.9186 -7.8031 1.2903
v 1.7986 -7.7799 1.3290
v 1.3045 -7.8883 1.2625
v 1.4954 -7.7631 1.3630
v 1.5427 -7.8296 1.5233
v 1.3218 -7.8917 1.4851
v 1.7908 -7.8534 1.4983
v 1.9026 -7.8683 1.4714
v 2.0113 -7.8710 1.3995
v 2.1761 -7.9329 1.3210
v 1.4400 -8.2142 1.4329
v 1.3242 -8.2142 1.4280
v 1.2490 -7.9822 1.4433
v 2.1501 -8.2142 1.3104
v 2.0385 -8.2142 1.3181
v 1.8633 -8.2142 1.3707
v 1.6546 -8.2142 1.4109
v 1.4142 -7.8332 1.5134
v 2.1263 -7.8654 1.3675
v 1.6955 -7.8459 1.5198
v 1.6974 -7.8859 1.7093
v 2.1231 -7.9447 1.5655
v 1.4138 -7.8977 1.7138
v 1.6701 -8.2142 1.5682
v 1.8328 -8.2142 1.5568
v 1.9903 -8.2142 1.5171
v 2.1161 -8.2142 1.4783
v 1.2748 -8.0000 1.6721
v 1.3541 -8.2142 1.5993
v 1.4673 -8.2142 1.5843
v 2.1974 -8.0013 1.5274
v 2.0286 -7.8970 1.6352
v 1.9272 -7.9222 1.6617
v 1.8007 -7.9062 1.6818
v 1.3286 -7.9322 1.7081
v 1.5470 -7.8912 1.7052
v 1.5686 -7.9306 1.9757
v 1.3676 -7.9946 1.9516
v 1.7933 -7.9423 1.8934
v 1.9029 -7.9776 1.8770
v 1.9846 -7.9701 1.8338
v 2.1116 -8.0772 1.7188
v 1.4975 -8.2142 1.8697
v 1.3692 -8.2142 1.8914
v 1.3237 -8.0404 1.9210
v 2.0446 -8.2142 1.6720
v 1.9820 -8.2142 1.7334
v 1.8653 -8.2142 1.7854
v 1.7180 -8.2142 1.8213
v 1.4718 -7.9474 1.9791
v 2.0540 -7.9782 1.7982
v 1.6906 -7.9354 1.9471
v 1.7063 -7.9607 2.0088
v 2.0177 -8.0078 1.8421
v 1.5220 -7.9655 2.0576
v 1.7271 -8.2142 1.9582
v 1.8335 -8.2142 1.9457
v 1.6452 -7.5568 -0.1127
v 1.6206 -7.8245 -0.1015
v 1.5795 -8.1839 -0.0100
v 1.6169 -8.1839 0.0855
v 1.4687 -7.5298 0.1334
v 1.8651 -8.1839 0.0024
v 1.9922 -8.1839 0.0988
v -1.5418 -8.2512 2.0230
v -1.4407 -8.2512 1.9973
v -1.9615 -8.2512 1.8252
v -1.9305 -8.2512 1.8644
v -1.5089 -8.2147 0.6830
v -1.5157 -8.2147 0.6558
v -1.5071 -8.2147 0.5678
v -1.4890 -8.2147 0.5076
v -1.4595 -8.2147 0.3395
v -1.5008 -8.2147 0.1529
v -1.8465 -8.2147 -0.1360
v -2.0430 -8.2147 0.0170
v -2.0938 -8.2147 0.2526
v -2.1049 -8.2147 0.4917
v -2.1271 -8.2147 0.6463
v -2.0139 -8.2147 0.6044
v -1.8403 -8.2147 0.6209
v -1.6099 -8.2147 0.6783
v -2.0077 -8.2147 0.4702
v -1.8367 -8.2147 0.4805
v -1.5903 -8.2147 0.5425
v -1.5712 -8.2147 -0.0505
v -1.8322 -8.2512 1.9677
v -1.7229 -8.2512 2.0059
v -1.7135 -8.2512 1.8194
v -1.8649 -8.2512 1.7823
v -1.9847 -8.2512 1.7287
v -2.0490 -8.2512 1.6653
v -1.3552 -8.2512 1.8917
v -1.4871 -8.2512 1.8694
v -1.4560 -8.2512 1.5749
v -1.3398 -8.2512 1.5904
v -2.1225 -8.2512 1.4655
v -1.9932 -8.2512 1.5055
v -1.8314 -8.2512 1.5465
v -1.6643 -8.2512 1.5583
v -1.6484 -8.2512 1.3960
v -1.8628 -8.2512 1.3545
v -2.0427 -8.2512 1.3002
v -2.1573 -8.2512 1.2923
v -1.3091 -8.2512 1.4136
v -1.4280 -8.2512 1.4186
v -1.4600 -8.2512 1.2334
v -1.3574 -8.2512 1.1972
v -2.1654 -8.2512 1.0763
v -2.0503 -8.2512 1.1035
v -1.8684 -8.2512 1.1488
v -1.6443 -8.2512 1.2077
v -1.6391 -8.2147 0.9563
v -1.8577 -8.2147 0.9004
v -2.0299 -8.2147 0.8739
v -2.1364 -8.2147 0.8769
v -1.5115 -8.2147 0.9612
v -1.5054 -8.2147 0.9877
v -1.4890 -8.1845 0.5076
v -1.5157 -8.1845 0.6558
v -1.9305 -8.2210 1.8644
v -1.9615 -8.2210 1.8252
v -1.4407 -8.2210 1.9973
v -1.5418 -8.2210 2.0230
v -1.4595 -8.1845 0.3395
v -1.5008 -8.1845 0.1529
v -1.8465 -8.1845 -0.1360
v -2.0430 -8.1845 0.0170
v -2.0938 -8.1845 0.2526
v -2.1049 -8.1845 0.4917
v -2.1271 -8.1845 0.6463
v -1.5712 -8.1845 -0.0505
v -1.8322 -8.2210 1.9677
v -1.7229 -8.2210 2.0059
v -2.0490 -8.2210 1.6653
v -1.3552 -8.2210 1.8917
v -1.3398 -8.2210 1.5904
v -2.1225 -8.2210 1.4655
v -2.1573 -8.2210 1.2923
v -1.3091 -8.2210 1.4136
v -1.3574 -8.2210 1.1972
v -2.1654 -8.2210 1.0763
v -2.1364 -8.1845 0.8769
v -1.5115 -8.1845 0.9612
v -1.5303 -8.1666 0.5457
v -1.5691 -8.1666 0.6837
v -1.8952 -8.2031 1.8083
v -1.9212 -8.2031 1.7719
v -1.4851 -8.2031 1.9321
v -1.5697 -8.2031 1.9560
v -1.5008 -8.1666 0.3893
v -1.5354 -8.1666 0.2157
v -1.8249 -8.1666 -0.0945
v -1.9894 -8.1666 0.0892
v -2.0319 -8.1666 0.3084
v -2.0413 -8.1666 0.5309
v -2.0599 -8.1666 0.6748
v -1.5943 -8.1666 0.0264
v -1.8128 -8.2031 1.9045
v -1.7213 -8.2031 1.9400
v -1.9944 -8.2031 1.6231
v -1.4135 -8.2031 1.8337
v -1.4005 -8.2031 1.5534
v -2.0559 -8.2031 1.4372
v -2.0851 -8.2031 1.2760
v -1.3748 -8.2031 1.3889
v -1.4153 -8.2031 1.1875
v -2.0919 -8.2031 1.0749
v -2.0676 -8.1666 0.8894
v -1.5213 -8.1666 0.9679
v 1.6034 -8.1839 0.3142
v 1.4182 -7.5197 0.2559
v 1.8352 -8.1839 0.2245
v 2.0065 -8.1839 0.2409
v 1.5980 -8.1839 0.5836
v 1.8379 -8.1839 0.5236
v 2.0044 -8.1839 0.5136
v 1.6171 -8.1839 0.7153
v 1.8415 -8.1839 0.6596
v 2.0104 -8.1839 0.6436
v 1.4166 -7.7981 0.4455
v 1.5346 -7.5425 0.0273
v 1.4671 -7.7987 0.2395
v 2.0443 -7.5683 0.3077
v 2.0042 -7.5611 0.1447
v 1.9132 -7.5699 0.0158
v 1.7855 -7.5707 -0.1212
v 2.0178 -7.5588 0.5133
v 2.1207 -8.1839 0.6843
v 2.0964 -7.8292 0.4908
v 2.0991 -8.1839 0.5344
v 2.0645 -7.8020 0.2402
v 2.0882 -8.1839 0.3027
v 1.9939 -7.8126 0.0296
v 2.0387 -8.1839 0.0743
v 1.8084 -7.8354 -0.1722
v 1.8475 -8.1839 -0.1265
v 1.5184 -7.8079 0.0947
v 1.5109 -8.1839 0.2061
v 1.5222 -8.1839 0.2331
v 1.4270 -8.1619 0.3664
v 1.4910 -8.1839 0.3633
v 1.4157 -8.0659 0.5346
v 1.5170 -8.1839 0.6081
v 1.4032 -7.5237 0.4055
v 1.4173 -7.4897 0.5538
v 1.3974 -7.7932 0.6185
v 1.4090 -8.0534 0.6829
v 1.5188 -8.1839 0.7199
v 1.9064 -7.4464 0.7178
v 1.8114 -7.3823 0.7584
v 1.7158 -7.3416 0.7635
v 1.4948 -7.3694 0.7230
v 2.1061 -7.8195 0.6829
v 1.9568 -7.6117 0.8426
v 1.8610 -7.5396 0.8852
v 1.7372 -7.4949 0.9025
v 1.3999 -7.6558 0.7275
v 1.4928 -7.5290 0.8786
v 1.9293 -8.2142 1.8439
v 1.9594 -8.2142 1.8269
v 1.4118 -8.0624 2.0486
v 1.4524 -8.2142 1.9938
v 1.5508 -8.2142 2.0006
v 1.9887 -8.0780 1.8741
v 1.9295 -8.0103 1.9152
v 1.8649 -8.0024 1.9736
v 1.8146 -7.9883 1.9969
v 1.4489 -7.9717 2.0435
v 1.6107 -7.9579 2.0396
v 1.4171 -7.1879 0.4765
v 1.4300 -6.9638 0.4168
v 1.4670 -7.2168 0.0509
v 1.8670 -7.2135 0.6141
v 1.7899 -7.1783 0.6510
v 1.7049 -7.1564 0.6650
v 1.4075 -7.1762 0.3217
v 1.5094 -7.1798 0.6310
v 1.4495 -7.1928 0.5606
v 1.5506 -7.2388 -0.0518
v 1.7688 -7.3138 -0.0995
v 1.9391 -7.3162 0.0917
v 1.6610 -7.2698 -0.1080
v 1.4182 -7.1986 0.1610
v 1.9718 -7.2762 0.4061
v 1.6112 -7.1603 0.6671
v 1.9253 -7.2537 0.5387
v 1.9418 -7.0690 0.0514
v 1.4160 -6.9687 0.1375
v 1.6733 -7.0453 -0.1082
v 1.4741 -6.9921 0.0132
v 1.5709 -7.0252 -0.0892
v 1.7517 -7.0389 -0.1001
v 1.4704 -6.9693 0.5056
v 1.4013 -6.9520 0.2667
v 1.9896 -7.3043 0.2395
v 1.9293 -7.0367 0.5142
v 1.5306 -6.9827 0.5732
v 1.8743 -7.0208 0.5671
v 1.6214 -6.9781 0.6109
v 1.7933 -6.9933 0.6048
v 1.9870 -7.0597 0.3922
v 1.7096 -6.9774 0.6171
v 1.9993 -7.0560 0.2105
v 1.8609 -7.0573 -0.0376
v 1.8733 -7.3210 -0.0141
v 2.0704 -7.6988 0.3993
v 1.4003 -7.6585 0.5120
v 1.5265 -7.6752 0.0610
v 1.7970 -7.7031 -0.1467
v 2.0344 -7.6816 0.1924
v 1.9536 -7.6912 0.0227
v 1.9982 -7.5904 0.6997
v 1.4448 -7.5039 0.7362
v 1.6161 -7.4249 0.8470
v 1.4679 -7.6642 0.1865
v 1.4174 -7.6589 0.3507
v 1.6329 -7.6906 -0.1071
v 1.4938 -7.4492 0.8008
v 1.4086 -7.5728 0.6406
v 1.9316 -7.5290 0.7802
v 1.8362 -7.4610 0.8218
v 1.7265 -7.4183 0.8330
v 2.0620 -7.6891 0.5981
v -2.0612 -7.6891 0.5981
v -1.7257 -7.4183 0.8330
v -1.8354 -7.4610 0.8218
v -1.9308 -7.5290 0.7802
v -1.4078 -7.5728 0.6406
v -1.4930 -7.4492 0.8008
v -1.6321 -7.6906 -0.1071
v -1.4166 -7.6589 0.3507
v -1.4671 -7.6642 0.1865
v -1.6153 -7.4249 0.8470
v -1.4439 -7.5039 0.7362
v -1.9974 -7.5904 0.6997
v -1.9527 -7.6912 0.0227
v -2.0335 -7.6816 0.1925
v -1.7961 -7.7031 -0.1467
v -1.5257 -7.6752 0.0610
v -1.3995 -7.6585 0.5120
v -2.0696 -7.6988 0.3993
v 2.0938 -8.2581 0.2516
v 2.0098 -8.2581 0.1879
v 1.8465 -8.2581 -0.1370
v 1.5712 -8.2581 -0.0515
v 2.0430 -8.2581 0.0160
v 1.9952 -8.2581 0.0413
v 1.5071 -8.2581 0.5668
v 1.4803 -8.2581 0.3142
v 1.4890 -8.2581 0.5066
v 1.4595 -8.2581 0.3385
v 2.1049 -8.2581 0.4907
v 1.5008 -8.2581 0.1520
v 1.5124 -8.2581 0.1798
v 2.0077 -8.2581 0.4692
v 1.8366 -8.2581 0.4795
v 1.5903 -8.2581 0.5415
v 1.8339 -8.2581 0.1710
v 1.8646 -8.2581 -0.0582
v 1.5958 -8.2581 0.2635
v 1.6097 -8.2581 0.0276
v -1.8474 -8.2581 -0.1370
v -1.8654 -8.2581 -0.0582
v -1.5079 -8.2581 0.5668
v -1.5911 -8.2581 0.5415
v -1.4812 -8.2581 0.3142
v -1.5967 -8.2581 0.2635
v -1.5132 -8.2581 0.1798
v -1.6105 -8.2581 0.0276
v -1.5017 -8.2581 0.1520
v -1.5721 -8.2581 -0.0515
v -1.9960 -8.2581 0.0413
v -2.0107 -8.2581 0.1879
v -1.8348 -8.2581 0.1710
v -1.8375 -8.2581 0.4795
v -2.0085 -8.2581 0.4692
v -2.1058 -8.2581 0.4907
v -1.4603 -8.2581 0.3385
v -2.0438 -8.2581 0.0160
v -2.0946 -8.2581 0.2516
v -1.4898 -8.2581 0.5066
vt 0.2289 0.4557
vt 0.2263 0.4789
vt 0.1764 0.4636
vt 0.1817 0.4390
vt 0.2724 0.3063
vt 0.2888 0.2921
vt 0.3110 0.3260
vt 0.2976 0.3368
vt 0.3450 0.3146
vt 0.3273 0.3165
vt 0.3090 0.2774
vt 0.3284 0.2701
vt 0.4847 0.2458
vt 0.5052 0.2360
vt 0.5059 0.2891
vt 0.4907 0.2891
vt 0.4355 0.2597
vt 0.4612 0.2542
vt 0.4712 0.2952
vt 0.4444 0.3031
vt 0.3639 0.3128
vt 0.3476 0.2689
vt 0.2249 0.5035
vt 0.1733 0.4899
vt 0.2838 0.3462
vt 0.2694 0.3569
vt 0.2371 0.3294
vt 0.2550 0.3173
vt 0.3797 0.2695
vt 0.3932 0.3131
vt 0.4119 0.2640
vt 0.4181 0.3088
vt 0.2597 0.3686
vt 0.2199 0.3457
vt 0.1905 0.4075
vt 0.2055 0.3742
vt 0.2463 0.3908
vt 0.2383 0.4244
vt 0.1939 0.2625
vt 0.1742 0.2471
vt 0.2021 0.2312
vt 0.2200 0.2497
vt 0.2394 0.2297
vt 0.2216 0.2102
vt 0.2501 0.1902
vt 0.2672 0.2119
vt 0.3184 0.1110
vt 0.3517 0.1005
vt 0.3582 0.1394
vt 0.3217 0.1355
vt 0.0067 0.8662
vt 0.0073 0.8473
vt 0.0263 0.8305
vt 0.0314 0.8550
vt 0.3105 0.1832
vt 0.2931 0.1621
vt 0.3217 0.1355
vt 0.3408 0.1671
vt 0.3889 0.1093
vt 0.4209 0.1074
vt 0.4311 0.1420
vt 0.4009 0.1428
vt 0.3493 0.0833
vt 0.3198 0.0796
vt 0.3226 0.0458
vt 0.3423 0.0520
vt 0.3819 0.0756
vt 0.3840 0.0641
vt 0.4134 0.0694
vt 0.4092 0.0659
vt 0.0457 0.4302
vt 0.0354 0.4766
vt 0.0087 0.4661
vt 0.0132 0.4144
vt 0.0548 0.3723
vt 0.0156 0.3708
vt 0.0518 0.3247
vt 0.0152 0.3272
vt 0.0563 0.2934
vt 0.0147 0.2987
vt 0.1115 0.4018
vt 0.0886 0.3884
vt 0.0879 0.3370
vt 0.1132 0.3587
vt 0.1051 0.4386
vt 0.0817 0.4310
vt 0.0989 0.4824
vt 0.0735 0.4823
vt 0.0877 0.0441
vt 0.0966 0.0461
vt 0.0896 0.0538
vt 0.0815 0.0506
vt 0.2862 0.1982
vt 0.3105 0.1832
vt 0.3286 0.2035
vt 0.3069 0.2213
vt 0.1676 0.2764
vt 0.1939 0.2625
vt 0.2139 0.2787
vt 0.1873 0.2925
vt 0.1132 0.3587
vt 0.1200 0.3169
vt 0.1481 0.3382
vt 0.1378 0.3817
vt 0.4100 0.1700
vt 0.4376 0.1680
vt 0.0288 0.0839
vt 0.0211 0.1155
vt 0.0054 0.1125
vt 0.0155 0.0817
vt 0.3408 0.1671
vt 0.3749 0.1698
vt 0.3928 0.1993
vt 0.3614 0.1973
vt 0.4100 0.1700
vt 0.4197 0.1974
vt 0.2930 0.9104
vt 0.2962 0.9424
vt 0.2712 0.9445
vt 0.2669 0.9121
vt 0.3505 0.9077
vt 0.3486 0.9408
vt 0.3934 0.9118
vt 0.3758 0.9370
vt 0.0931 0.0401
vt 0.1049 0.0370
vt 0.2744 0.8494
vt 0.2797 0.8648
vt 0.2546 0.8694
vt 0.2530 0.8506
vt 0.3213 0.8426
vt 0.3315 0.8639
vt 0.3465 0.8477
vt 0.3756 0.8648
vt 0.0745 0.0591
vt 0.0804 0.0645
vt 0.0735 0.0767
vt 0.0639 0.0666
vt 0.2642 0.9660
vt 0.2929 0.9607
vt 0.3373 0.9569
vt 0.3808 0.9457
vt 0.4180 0.9075
vt 0.4735 0.1387
vt 0.4764 0.1642
vt 0.4636 0.1002
vt 0.4209 0.1074
vt 0.4134 0.0694
vt 0.4561 0.0717
vt 0.3516 0.8453
vt 0.3937 0.8569
vt 0.0504 0.9251
vt 0.0612 0.9471
vt 0.0396 0.9378
vt 0.0193 0.9201
vt 0.0161 0.8998
vt 0.0424 0.8970
vt 0.0609 0.0855
vt 0.0590 0.0715
vt 0.0336 0.1160
vt 0.0406 0.0878
vt 0.0481 0.0968
vt 0.0493 0.1052
vt 0.0431 0.9434
vt 0.0735 0.9587
vt 0.0551 0.0966
vt 0.0538 0.0819
vt 0.0915 0.0198
vt 0.1105 0.0159
vt 0.1102 0.0308
vt 0.0932 0.0309
vt 0.0417 0.1476
vt 0.0536 0.1386
vt 0.0749 0.1128
vt 0.0888 0.1010
vt 0.0861 0.8471
vt 0.0907 0.8859
vt 0.0941 0.9171
vt 0.0990 0.0894
vt 0.1151 0.0759
vt 0.1028 0.9471
vt 0.1264 0.0613
vt 0.1336 0.0507
vt 0.0182 0.1489
vt 0.0002 0.1496
vt 0.0823 0.8255
vt 0.0649 0.1238
vt 0.1427 0.0406
vt 0.1501 0.0168
vt 0.1112 0.9710
vt 0.0682 0.1676
vt 0.0826 0.1552
vt 0.1150 0.8184
vt 0.1150 0.8407
vt 0.1506 0.0812
vt 0.1361 0.0957
vt 0.0180 0.1791
vt 0.0013 0.1809
vt 0.1627 0.0678
vt 0.1177 0.1122
vt 0.1069 0.1238
vt 0.1301 0.9216
vt 0.1414 0.9549
vt 0.1208 0.8818
vt 0.0933 0.1367
vt 0.0562 0.1776
vt 0.1437 0.9763
vt 0.1835 0.0261
vt 0.1755 0.0529
vt 0.1077 0.1669
vt 0.1245 0.1503
vt 0.1497 0.8454
vt 0.1558 0.8797
vt 0.1797 0.0957
vt 0.1630 0.1099
vt 0.2672 0.2119
vt 0.2849 0.2333
vt 0.1470 0.1332
vt 0.1684 0.9212
vt 0.1781 0.9550
vt 0.0863 0.2045
vt 0.0976 0.1891
vt 0.1984 0.0799
vt 0.0354 0.2189
vt 0.0042 0.2196
vt 0.2202 0.0370
vt 0.2152 0.0657
vt 0.1557 0.8259
vt 0.0672 0.2199
vt 0.1840 0.9763
vt 0.1676 0.3119
vt 0.1472 0.2956
vt 0.2640 0.0739
vt 0.2648 0.0972
vt 0.2443 0.1108
vt 0.1002 0.2466
vt 0.1187 0.2311
vt 0.2006 0.8381
vt 0.1962 0.8521
vt 0.2236 0.1251
vt 0.2035 0.1472
vt 0.0421 0.2526
vt 0.0101 0.2566
vt 0.1827 0.1667
vt 0.1607 0.1876
vt 0.2150 0.9174
vt 0.2212 0.9494
vt 0.2030 0.8769
vt 0.5114 0.0676
vt 0.5109 0.0967
vt 0.5086 0.1608
vt 0.5064 0.1865
vt 0.4795 0.1900
vt 0.4764 0.1642
vt 0.1345 0.2093
vt 0.0745 0.2550
vt 0.2214 0.9694
vt 0.2666 0.1741
vt 0.2931 0.1621
vt 0.2501 0.1902
vt 0.2380 0.2685
vt 0.2575 0.2497
vt 0.2139 0.2787
vt 0.2849 0.2333
vt 0.1342 0.4160
vt 0.1287 0.4471
vt 0.3614 0.1973
vt 0.4446 0.1943
vt 0.1244 0.4830
vt 0.4795 0.1900
vt 0.0918 0.2972
vt 0.1266 0.2804
vt 0.1480 0.2612
vt 0.1742 0.2471
vt 0.2713 0.0223
vt 0.2699 0.0368
vt 0.0796 0.0357
vt 0.0431 0.0747
vt 0.0673 0.0570
vt 0.0636 0.0477
vt 0.0531 0.0609
vt 0.0612 0.0624
vt 0.0751 0.0252
vt 0.0164 0.0751
vt 0.0327 0.0737
vt 0.0416 0.0588
vt 0.0549 0.0410
vt 0.0416 0.0588
vt 0.0302 0.0522
vt 0.0751 0.0252
vt 0.0549 0.0410
vt 0.0386 0.0337
vt 0.0667 0.0143
vt 0.0853 0.0080
vt 0.1091 0.0021
vt 0.2287 0.0202
vt 0.2699 0.0368
vt 0.1604 0.0002
vt 0.1910 0.0102
vt 0.0879 0.3370
vt 0.5114 0.1352
vt 0.9420 0.5995
vt 0.9413 0.5856
vt 0.9655 0.6154
vt 0.9597 0.6258
vt 0.5629 0.5930
vt 0.5479 0.5840
vt 0.5720 0.5658
vt 0.5743 0.5799
vt 0.6253 0.5405
vt 0.6228 0.5564
vt 0.6137 0.7035
vt 0.6097 0.7188
vt 0.5776 0.6970
vt 0.5834 0.6830
vt 0.6624 0.5376
vt 0.6572 0.5508
vt 0.9206 0.7016
vt 0.9180 0.7168
vt 0.8720 0.7306
vt 0.8760 0.7132
vt 0.8396 0.7208
vt 0.8376 0.7385
vt 0.7856 0.7474
vt 0.7853 0.7297
vt 0.9151 0.5818
vt 0.9089 0.5706
vt 0.5557 0.6366
vt 0.5423 0.6426
vt 0.5412 0.6071
vt 0.5566 0.6064
vt 0.5763 0.6761
vt 0.5691 0.6895
vt 0.5522 0.6644
vt 0.5622 0.6550
vt 0.9615 0.6565
vt 0.9680 0.6557
vt 0.9541 0.6934
vt 0.9486 0.6804
vt 0.7615 0.5622
vt 0.7614 0.5568
vt 0.8340 0.5529
vt 0.8413 0.5675
vt 0.6969 0.5527
vt 0.7050 0.5436
vt 0.6548 0.7201
vt 0.6522 0.7368
vt 0.7384 0.7475
vt 0.7372 0.7301
vt 0.8729 0.5602
vt 0.8822 0.5715
vt 0.6912 0.7278
vt 0.6907 0.7450
vt 0.7840 0.7225
vt 0.7367 0.7235
vt 0.6920 0.7215
vt 0.6567 0.7140
vt 0.5613 0.6075
vt 0.5662 0.5952
vt 0.5873 0.6785
vt 0.5806 0.6723
vt 0.9581 0.6557
vt 0.9456 0.6777
vt 0.6166 0.6979
vt 0.8383 0.7141
vt 0.9386 0.6032
vt 0.9563 0.6270
vt 0.5609 0.6357
vt 0.5768 0.5835
vt 0.6246 0.5624
vt 0.8813 0.5783
vt 0.9129 0.5865
vt 0.5668 0.6528
vt 0.9184 0.6973
vt 0.6575 0.5564
vt 0.6959 0.5585
vt 0.8746 0.7066
vt 0.7601 0.5700
vt 0.8405 0.5754
vt 0.7528 0.5711
vt 0.8338 0.5765
vt 0.7841 0.6966
vt 0.8438 0.6898
vt 0.8378 0.6525
vt 0.7775 0.6566
vt 0.7633 0.6048
vt 0.8312 0.6002
vt 0.7321 0.6992
vt 0.7058 0.6136
vt 0.6943 0.5783
vt 0.8606 0.6015
vt 0.8646 0.5791
vt 0.8724 0.5870
vt 0.8687 0.6021
vt 0.8606 0.6015
vt 0.8647 0.6521
vt 0.7219 0.6603
vt 0.6906 0.6976
vt 0.6790 0.6610
vt 0.6680 0.6188
vt 0.6590 0.5778
vt 0.6490 0.6877
vt 0.6372 0.6240
vt 0.6307 0.5851
vt 0.6409 0.6559
vt 0.6053 0.6844
vt 0.5831 0.6005
vt 0.5968 0.6618
vt 0.5915 0.6353
vt 0.9342 0.6085
vt 0.9104 0.5930
vt 0.3504 0.7271
vt 0.3347 0.7260
vt 0.3415 0.7183
vt 0.3505 0.7185
vt 0.4263 0.6831
vt 0.4079 0.7052
vt 0.4039 0.6997
vt 0.4224 0.6808
vt 0.3368 0.6528
vt 0.3432 0.6217
vt 0.3506 0.6234
vt 0.3450 0.6538
vt 0.8694 0.6845
vt 0.3485 0.5980
vt 0.3557 0.6074
vt 0.8694 0.6845
vt 0.8647 0.6521
vt 0.8727 0.6510
vt 0.8782 0.6824
vt 0.8807 0.6981
vt 0.9160 0.6901
vt 0.3819 0.7203
vt 0.3797 0.7138
vt 0.4304 0.6552
vt 0.4259 0.6558
vt 0.9422 0.6742
vt 0.8547 0.1152
vt 0.8480 0.0779
vt 0.8944 0.0880
vt 0.9052 0.1235
vt 0.5402 0.0456
vt 0.5496 0.0555
vt 0.5418 0.0708
vt 0.5311 0.0628
vt 0.5830 0.0154
vt 0.5878 0.0276
vt 0.5683 0.0380
vt 0.5636 0.0209
vt 0.6058 0.4703
vt 0.5984 0.5072
vt 0.5608 0.5029
vt 0.5687 0.4568
vt 0.8150 0.1132
vt 0.8165 0.0777
vt 0.5646 0.3063
vt 0.5965 0.3101
vt 0.5804 0.3426
vt 0.5634 0.3372
vt 0.7425 0.0774
vt 0.7464 0.0460
vt 0.7785 0.0576
vt 0.7761 0.0898
vt 0.5593 0.0615
vt 0.5496 0.0555
vt 0.5683 0.0380
vt 0.5735 0.0476
vt 0.6165 0.0311
vt 0.6145 0.0189
vt 0.6468 0.0161
vt 0.6453 0.0286
vt 0.6753 0.0414
vt 0.6801 0.0184
vt 0.7098 0.0228
vt 0.7026 0.0601
vt 0.6032 0.0316
vt 0.6038 0.0212
vt 0.5798 0.4150
vt 0.6134 0.4285
vt 0.5169 0.1672
vt 0.5337 0.1624
vt 0.5386 0.2003
vt 0.5207 0.2060
vt 0.5304 0.2491
vt 0.5681 0.2495
vt 0.9526 0.0876
vt 0.9481 0.1231
vt 0.5466 0.3716
vt 0.5843 0.3821
vt 0.5798 0.4150
vt 0.5426 0.4051
vt 0.5118 0.1355
vt 0.5297 0.1280
vt 0.5216 0.0854
vt 0.5350 0.0889
vt 0.5881 0.0393
vt 0.5878 0.0276
vt 0.9998 0.0843
vt 0.9998 0.1226
vt 0.6556 0.4819
vt 0.7098 0.4936
vt 0.6978 0.5125
vt 0.6491 0.5079
vt 0.6077 0.0054
vt 0.5883 0.0475
vt 0.5821 0.0527
vt 0.6144 0.0055
vt 0.5524 0.0741
vt 0.6087 0.0432
vt 0.5977 0.0467
vt 0.5663 0.0708
vt 0.5736 0.0657
vt 0.5921 0.0508
vt 0.5831 0.0601
vt 0.6243 0.0399
vt 0.5615 0.0755
vt 0.8052 0.1675
vt 0.8302 0.1439
vt 0.8470 0.1747
vt 0.8183 0.1901
vt 0.8439 0.2465
vt 0.8740 0.2365
vt 0.6515 0.2923
vt 0.6206 0.3172
vt 0.5911 0.2541
vt 0.6079 0.2358
vt 0.7099 0.2284
vt 0.6858 0.2537
vt 0.6503 0.2009
vt 0.6726 0.1834
vt 0.5159 0.2480
vt 0.5300 0.3026
vt 0.6967 0.1648
vt 0.7335 0.2122
vt 0.7533 0.1869
vt 0.7220 0.1421
vt 0.7882 0.8319
vt 0.8309 0.8367
vt 0.8373 0.8584
vt 0.7874 0.8518
vt 0.7933 0.1450
vt 0.7712 0.1632
vt 0.7458 0.1298
vt 0.7639 0.1139
vt 0.7873 0.0267
vt 0.8280 0.0375
vt 0.8319 0.8905
vt 0.7802 0.8837
vt 0.8183 0.9328
vt 0.7669 0.9238
vt 0.8161 0.9516
vt 0.7594 0.9484
vt 0.6639 0.4479
vt 0.7210 0.4715
vt 0.9662 0.2210
vt 0.9570 0.1716
vt 0.9930 0.1727
vt 0.9925 0.2218
vt 0.6699 0.4235
vt 0.7296 0.4469
vt 0.6752 0.3971
vt 0.7368 0.4242
vt 0.6772 0.3656
vt 0.7464 0.3932
vt 0.6878 0.3336
vt 0.7501 0.3614
vt 0.7085 0.3145
vt 0.7539 0.3426
vt 0.9412 0.2226
vt 0.9256 0.1725
vt 0.9090 0.2266
vt 0.8913 0.1710
vt 0.8253 0.2610
vt 0.7963 0.2066
vt 0.8108 0.2769
vt 0.7787 0.2308
vt 0.7236 0.2944
vt 0.7638 0.3245
vt 0.7437 0.2697
vt 0.7812 0.3066
vt 0.7974 0.2924
vt 0.7651 0.2531
vt 0.6253 0.2175
vt 0.6674 0.2676
vt 0.6843 0.1093
vt 0.7076 0.1027
vt 0.7511 0.8238
vt 0.7445 0.8450
vt 0.7245 0.0938
vt 0.6653 0.1234
vt 0.7127 0.9536
vt 0.7199 0.9195
vt 0.6238 0.5072
vt 0.6306 0.4759
vt 0.5323 0.5005
vt 0.5415 0.4469
vt 0.9569 0.9497
vt 0.9390 0.9413
vt 0.9583 0.8948
vt 0.9828 0.8999
vt 0.9153 0.8976
vt 0.8950 0.9408
vt 0.8580 0.8931
vt 0.8433 0.9383
vt 0.7337 0.8784
vt 0.6196 0.1552
vt 0.6450 0.1430
vt 0.7492 0.2326
vt 0.7266 0.2488
vt 0.5844 0.1855
vt 0.6029 0.1695
vt 0.7518 0.0153
vt 0.7633 0.9625
vt 0.7181 0.9733
vt 0.5678 0.1999
vt 0.6287 0.1108
vt 0.6419 0.1019
vt 0.7833 0.1848
vt 0.7108 0.8226
vt 0.7079 0.8439
vt 0.6566 0.0905
vt 0.6765 0.0828
vt 0.6954 0.8768
vt 0.6849 0.9163
vt 0.5614 0.1587
vt 0.5780 0.1484
vt 0.6909 0.0705
vt 0.6778 0.9572
vt 0.6772 0.9794
vt 0.7142 0.0066
vt 0.5931 0.1385
vt 0.6096 0.1264
vt 0.7049 0.2738
vt 0.6885 0.2907
vt 0.5543 0.1244
vt 0.5657 0.1170
vt 0.6359 0.0687
vt 0.6483 0.0606
vt 0.6781 0.8268
vt 0.6690 0.8505
vt 0.6646 0.0517
vt 0.6221 0.0806
vt 0.6491 0.9499
vt 0.6549 0.9112
vt 0.6593 0.8801
vt 0.5934 0.1027
vt 0.6091 0.0889
vt 0.5772 0.1116
vt 0.6835 0.0008
vt 0.6447 0.9714
vt 0.6400 0.8380
vt 0.6274 0.8492
vt 0.6111 0.0508
vt 0.6230 0.0468
vt 0.5497 0.0909
vt 0.0329 0.6927
vt 0.0545 0.7000
vt 0.0480 0.7168
vt 0.0376 0.7050
vt 0.3107 0.7291
vt 0.3040 0.7278
vt 0.3930 0.6102
vt 0.4197 0.6318
vt 0.4155 0.6354
vt 0.3901 0.6174
vt 0.9538 0.6544
vt 0.9516 0.6291
vt 0.3099 0.6519
vt 0.3169 0.6150
vt 0.8812 0.5871
vt 0.3018 0.7047
vt 0.3304 0.7043
vt 0.3304 0.7043
vt 0.3400 0.7034
vt 0.3116 0.5898
vt 0.0689 0.6391
vt 0.0388 0.6477
vt 0.0529 0.6285
vt 0.0776 0.6167
vt 0.0633 0.6655
vt 0.0328 0.6646
vt 0.0595 0.6223
vt 0.0890 0.6033
vt 0.1017 0.7159
vt 0.1087 0.6772
vt 0.1128 0.6455
vt 0.1212 0.6138
vt 0.0954 0.7385
vt 0.1292 0.5877
vt 0.1299 0.7236
vt 0.1281 0.7449
vt 0.1509 0.6409
vt 0.1629 0.6044
vt 0.1394 0.6828
vt 0.1646 0.5806
vt 0.1650 0.7236
vt 0.1770 0.6885
vt 0.1937 0.6421
vt 0.2044 0.6033
vt 0.1663 0.7434
vt 0.2093 0.5790
vt 0.2233 0.7317
vt 0.2306 0.7329
vt 0.2494 0.6467
vt 0.2566 0.6066
vt 0.2344 0.6984
vt 0.2569 0.5805
vt 0.3511 0.7338
vt 0.3112 0.7369
vt 0.1277 0.7505
vt 0.0935 0.7444
vt 0.2318 0.7407
vt 0.0276 0.6637
vt 0.0343 0.6455
vt 0.4110 0.7089
vt 0.3838 0.7250
vt 0.1638 0.5742
vt 0.2099 0.5724
vt 0.3501 0.5913
vt 0.3955 0.6059
vt 0.1673 0.7491
vt 0.3131 0.5829
vt 0.4229 0.6293
vt 0.0454 0.7204
vt 0.0343 0.7072
vt 0.0486 0.6246
vt 0.4339 0.6547
vt 0.4295 0.6845
vt 0.0281 0.6938
vt 0.2583 0.5732
vt 0.0861 0.5977
vt 0.1274 0.5816
vt 0.0557 0.6178
vt 0.3937 0.5899
vt 0.4296 0.6164
vt 0.0416 0.6111
vt 0.0501 0.6038
vt 0.1635 0.5570
vt 0.2113 0.5550
vt 0.3773 0.7357
vt 0.3417 0.7446
vt 0.0193 0.7160
vt 0.0128 0.6930
vt 0.1751 0.7583
vt 0.1326 0.7637
vt 0.1250 0.5649
vt 0.3038 0.7512
vt 0.0143 0.6576
vt 0.0245 0.6359
vt 0.2587 0.5554
vt 0.3113 0.5649
vt 0.3466 0.5732
vt 0.0824 0.5823
vt 0.2317 0.7461
vt 0.4402 0.6560
vt 0.4345 0.6949
vt 0.4096 0.7225
vt 0.0958 0.7603
vt 0.0430 0.7344
vt 0.5566 0.0866
vt 0.6323 0.0423
vt 0.5948 0.9403
vt 0.5889 0.9646
vt 0.5669 0.0799
vt 0.5755 0.0742
vt 0.6462 0.0002
vt 0.5875 0.0668
vt 0.6006 0.0618
vt 0.6159 0.8708
vt 0.6070 0.8986
vt 0.6092 0.8522
vt 0.6055 0.8578
vt 0.5704 0.9283
vt 0.5809 0.8950
vt 0.5847 0.8748
vt 0.9145 0.9600
vt 0.9095 0.9575
vt 0.6387 0.4379
vt 0.6306 0.4759
vt 0.9468 0.8605
vt 0.9415 0.8691
vt 0.9037 0.8480
vt 0.9144 0.8645
vt 0.8594 0.8428
vt 0.8621 0.8613
vt 0.8841 0.9617
vt 0.8375 0.9535
vt 0.6438 0.4106
vt 0.6478 0.3754
vt 0.6497 0.3408
vt 0.6438 0.4106
vt 0.6174 0.3983
vt 0.8723 0.1434
vt 0.7657 0.2087
vt 0.6701 0.3128
vt 0.6193 0.3546
vt 0.6174 0.3983
vt 0.9961 0.1476
vt 0.9521 0.1472
vt 0.9150 0.1480
vt 0.8723 0.1434
vt 0.8560 0.0423
vt 0.8988 0.0491
vt 0.9419 0.0532
vt 0.9934 0.0565
vt 0.8827 0.9747
vt 0.5341 0.3693
vt 0.5323 0.3235
vt 0.6701 0.3128
vt 0.6497 0.3408
vt 0.5704 0.9472
vt 0.7049 0.2738
vt 0.7657 0.2087
vt 0.9507 0.2715
vt 0.9186 0.2760
vt 0.8844 0.2791
vt 0.8606 0.2889
vt 0.7800 0.4361
vt 0.7711 0.4611
vt 0.8477 0.2968
vt 0.8114 0.3333
vt 0.7997 0.3479
vt 0.7875 0.4121
vt 0.7911 0.3833
vt 0.8239 0.3217
vt 0.8351 0.3094
vt 0.9740 0.2723
vt 0.9984 0.2746
vt 0.7954 0.3650
vt 0.7600 0.4864
vt 0.7517 0.5048
vt 0.7498 0.5197
vt 0.9468 0.6560
vt 0.9425 0.6298
vt 0.9215 0.6522
vt 0.9141 0.6161
vt 0.9298 0.6087
vt 0.9388 0.6699
vt 0.9218 0.6757
vt 0.9127 0.5974
vt 0.3822 0.7096
vt 0.3997 0.6994
vt 0.3936 0.6560
vt 0.3952 0.6325
vt 0.4190 0.6539
vt 0.4118 0.6394
vt 0.3845 0.6912
vt 0.4133 0.6795
f 19/1 2/2 1/3 25/4
f 31/5 21/6 7/7 4/8
f 13/9 9/10 29/11 28/12
f 24/13 26/14 14/15 17/16
f 34/17 27/18 15/19 16/20
f 27/18 24/13 17/16 15/19
f 35/21 13/9 28/12 36/22
f 2/2 14/23 26/24 1/3
f 6/25 8/26 33/27 32/28
f 4/8 6/25 32/28 31/5
f 30/29 12/30 35/21 36/22
f 30/29 23/31 18/32 12/30
f 29/11 9/10 7/7 21/6
f 33/27 8/26 10/33 20/34
f 34/17 16/20 18/32 23/31
f 11/35 22/36 5/37 3/38
f 22/36 20/34 10/33 5/37
f 25/4 11/35 3/38 19/1
f 685/39 51/40 50/41 684/42
f 692/43 184/44 48/45 688/46
f 205/47 207/48 86/49 60/50
f 43/51 44/52 117/53 118/54
f 687/55 49/56 60/57 699/58
f 208/59 218/60 69/61 84/62
f 64/63 59/64 58/65 63/66
f 66/67 64/63 63/66 65/68
f 68/69 67/70 65/68 66/67
f 216/71 217/72 70/73 72/74
f 215/75 216/71 72/74 74/76
f 210/77 215/75 74/76 76/78
f 209/79 210/77 76/78 78/80
f 696/81 75/82 77/83 700/84
f 695/85 73/86 75/82 696/81
f 697/87 71/88 73/86 695/85
f 207/48 208/59 84/62 86/49
f 106/89 111/90 124/91 37/92
f 693/93 687/94 61/95 170/96
f 686/97 685/98 56/99 57/100
f 700/101 683/102 79/103 83/104
f 691/105 84/62 69/61 698/106
f 204/107 213/108 115/109 46/110
f 699/111 690/112 95/113 62/114
f 691/115 99/116 95/113 690/112
f 91/117 90/118 87/119 88/120
f 94/121 93/122 90/118 91/117
f 98/123 97/124 93/122 94/121
f 111/90 106/89 38/125 123/126
f 63/127 92/128 89/129 58/130
f 65/131 96/132 92/128 63/127
f 67/133 100/134 96/132 65/131
f 108/135 109/136 122/137 39/138
f 78/139 87/119 90/118 76/140
f 76/140 90/118 93/122 74/141
f 74/141 93/122 97/124 72/142
f 72/142 97/124 98/123 70/143
f 698/106 69/61 102/144 689/145
f 206/146 218/147 68/148 101/149
f 68/150 101/151 100/134 67/133
f 113/152 114/153 47/154 104/155
f 109/136 108/135 37/92 124/91
f 104/155 105/156 112/157 113/152
f 118/54 112/157 105/156 43/51
f 121/158 40/159 39/138 122/137
f 119/160 42/161 107/162 110/163
f 46/164 47/154 114/153 115/165
f 120/166 41/167 40/159 121/158
f 203/168 214/169 116/170 45/171
f 123/126 38/125 45/171 116/170
f 110/163 107/162 41/167 120/166
f 130/172 119/160 110/163 139/173
f 128/174 121/158 122/137 127/175
f 131/176 137/177 112/157 118/54
f 113/152 112/157 137/177 136/178
f 140/179 109/136 124/91 125/180
f 136/178 135/181 114/153 113/152
f 109/136 140/179 127/175 122/137
f 138/182 111/90 123/126 126/183
f 213/108 212/184 134/185 115/109
f 111/90 138/182 125/180 124/91
f 118/54 117/53 132/186 131/176
f 139/173 110/163 120/166 129/187
f 126/183 123/126 116/170 133/188
f 214/169 211/189 133/188 116/170
f 129/187 120/166 121/158 128/174
f 115/165 114/153 135/181 134/190
f 142/191 139/173 129/187 152/192
f 131/176 132/186 149/193 150/194
f 138/182 143/195 156/196 125/180
f 212/184 225/197 147/198 134/185
f 143/195 138/182 126/183 155/199
f 140/179 141/200 154/201 127/175
f 145/202 146/203 135/181 136/178
f 141/200 140/179 125/180 156/196
f 136/178 137/177 144/204 145/202
f 150/194 144/204 137/177 131/176
f 153/205 128/174 127/175 154/201
f 151/206 130/172 139/173 142/191
f 134/190 135/181 146/203 147/207
f 152/192 129/187 128/174 153/205
f 211/189 226/208 148/209 133/188
f 155/199 126/183 133/188 148/209
f 160/210 153/205 154/201 159/211
f 163/212 169/213 144/204 150/194
f 143/195 172/214 157/215 156/196
f 688/216 693/93 170/96 54/217
f 176/218 141/200 156/196 157/215
f 168/219 167/220 146/203 145/202
f 173/221 142/191 152/192 161/222
f 172/214 143/195 155/199 158/223
f 225/197 224/224 166/225 147/198
f 226/208 223/226 165/227 148/209
f 150/194 149/193 164/228 163/212
f 162/229 151/206 142/191 173/221
f 158/223 155/199 148/209 165/227
f 145/202 144/204 169/213 168/219
f 161/222 152/192 153/205 160/210
f 147/207 146/203 167/220 166/230
f 686/97 57/100 175/231 694/232
f 141/200 176/218 159/211 154/201
f 223/226 222/233 186/234 165/227
f 193/235 158/223 165/227 186/234
f 178/236 173/221 161/222 190/237
f 163/212 164/228 187/238 188/239
f 172/214 179/240 194/241 157/215
f 224/224 221/242 183/243 166/225
f 179/240 172/214 158/223 193/235
f 176/218 177/244 192/245 159/211
f 181/246 182/247 167/220 168/219
f 684/42 50/41 184/44 692/43
f 177/244 176/218 157/215 194/241
f 168/219 169/213 180/248 181/246
f 92/128 91/117 88/120 89/129
f 91/117 92/128 96/132 94/121
f 94/121 96/132 100/134 98/123
f 101/151 70/143 98/123 100/134
f 206/146 101/149 70/249 217/250
f 697/251 80/252 103/253 689/254
f 188/239 180/248 169/213 163/212
f 191/255 160/210 159/211 192/245
f 189/256 162/229 173/221 178/236
f 166/230 167/220 182/247 183/257
f 190/237 161/222 160/210 191/255
f 171/258 179/240 193/235 49/259
f 179/240 171/258 48/260 194/241
f 55/261 185/262 21/6 31/5
f 31/5 32/28 56/263 55/261
f 185/262 54/264 29/11 21/6
f 28/12 29/11 54/264 170/96
f 32/28 33/27 57/100 56/263
f 175/231 57/100 33/27 20/34
f 22/36 11/35 83/104 79/103
f 82/265 83/104 11/35 25/4
f 81/266 82/265 25/4 1/3
f 36/22 28/12 170/96 61/95
f 30/29 36/22 61/95 62/267
f 62/114 95/113 23/31 30/29
f 95/113 99/116 34/17 23/31
f 99/116 85/268 27/18 34/17
f 1/3 26/24 80/269 81/266
f 85/268 103/270 24/13 27/18
f 58/130 89/129 180/248 188/239
f 53/271 189/256 178/236 174/272
f 181/246 180/248 89/129 88/120
f 88/120 87/119 182/247 181/246
f 52/273 190/237 191/255 51/274
f 221/242 209/79 78/80 183/243
f 174/272 178/236 190/237 52/273
f 183/257 182/247 87/119 78/139
f 51/40 191/255 192/245 50/41
f 177/244 184/44 50/41 192/245
f 188/275 58/65 59/64 187/276
f 222/233 205/47 60/50 186/234
f 184/44 177/244 194/241 48/45
f 49/56 193/235 186/234 60/57
f 20/34 22/36 79/103 175/231
f 694/232 175/231 79/103 683/102
f 195/277 45/171 38/125 106/89
f 42/161 196/278 41/167 107/162
f 108/135 200/279 197/280 37/92
f 40/159 199/281 198/282 39/138
f 200/279 108/135 39/138 198/282
f 106/89 37/92 197/280 195/277
f 196/278 199/281 40/159 41/167
f 220/283 203/168 45/171 195/277
f 204/107 46/110 47/284 219/285
f 198/282 199/281 197/280 200/279
f 202/286 201/287 197/280 199/281
f 202/288 219/285 47/284 104/289
f 220/290 201/291 105/292 43/293
f 103/270 80/252 26/14 24/13
f 64/63 66/67 208/59 207/48
f 44/294 117/295 214/169 203/168
f 164/296 187/297 222/233 223/226
f 73/86 71/88 217/72 216/71
f 199/281 196/278 219/285 202/286
f 117/295 132/298 211/189 214/169
f 132/298 149/299 226/208 211/189
f 66/67 68/69 218/147 208/59
f 75/82 73/86 216/71 215/75
f 187/276 59/64 205/47 222/233
f 119/160 130/172 212/184 213/108
f 149/299 164/296 223/226 226/208
f 151/206 162/229 224/224 225/197
f 102/144 69/61 218/60 206/146
f 42/161 204/107 219/285 196/278
f 130/172 151/206 225/197 212/184
f 42/161 119/160 213/108 204/107
f 189/256 53/271 209/79 221/242
f 195/277 197/280 201/287 220/283
f 162/229 189/256 221/242 224/224
f 59/64 64/63 207/48 205/47
f 53/271 77/300 210/77 209/79
f 102/144 206/146 217/250 71/301
f 104/289 105/292 201/291 202/288
f 43/293 44/294 203/168 220/290
f 77/300 75/82 215/75 210/77
f 271/302 245/303 239/304 265/305
f 274/306 248/307 235/308 261/309
f 261/309 235/308 234/310 260/311
f 262/312 236/313 249/314 275/315
f 260/311 234/310 231/316 257/317
f 268/318 242/319 241/320 267/321
f 266/322 240/323 228/324 254/325
f 272/326 246/327 245/303 271/302
f 263/328 237/329 247/330 273/331
f 276/332 250/333 238/334 264/335
f 270/336 244/337 243/338 269/339
f 265/305 239/304 244/337 270/336
f 253/340 227/341 251/342 277/343
f 256/344 230/345 227/341 253/340
f 259/346 233/347 236/313 262/312
f 267/321 241/320 240/323 266/322
f 254/325 228/324 229/348 255/349
f 264/335 238/334 237/329 263/328
f 277/343 251/342 252/350 278/351
f 258/352 232/353 233/347 259/346
f 257/317 231/316 230/345 256/344
f 273/331 247/330 248/307 274/306
f 278/351 252/350 246/327 272/326
f 255/349 229/348 232/353 258/352
f 275/315 249/314 250/333 276/332
f 269/339 243/338 242/319 268/318
f 281/354 254/325 255/349 288/355
f 293/356 258/352 259/346 300/357
f 332/358 273/331 274/306 331/359
f 330/360 275/315 276/332 329/361
f 322/362 270/336 269/339 321/363
f 305/364 262/312 275/315 330/360
f 300/357 259/346 262/312 305/364
f 318/365 266/322 254/325 281/354
f 323/366 271/302 265/305 311/367
f 309/368 263/328 273/331 332/358
f 304/369 261/309 260/311 301/370
f 325/371 278/351 272/326 324/372
f 311/367 265/305 270/336 322/362
f 329/361 276/332 264/335 310/373
f 331/359 274/306 261/309 304/369
f 321/363 269/339 268/318 320/374
f 292/375 257/317 256/344 289/376
f 319/377 267/321 266/322 318/365
f 289/376 256/344 253/340 280/378
f 320/374 268/318 267/321 319/377
f 288/355 255/349 258/352 293/356
f 324/372 272/326 271/302 323/366
f 310/373 264/335 263/328 309/368
f 280/378 253/340 277/343 327/379
f 301/370 260/311 257/317 292/375
f 327/379 277/343 278/351 325/371
f 279/380 280/378 327/379 328/381
f 281/354 282/382 317/383 318/365
f 316/384 317/383 282/382 283/385
f 283/385 284/386 315/387 316/384
f 328/381 315/387 284/386 279/380
f 288/355 287/388 282/382 281/354
f 279/380 284/386 285/389 290/390
f 312/391 326/392 707/393 716/394
f 312/395 313/396 316/384 315/387
f 286/397 285/389 284/386 283/385
f 283/385 282/382 287/388 286/397
f 290/390 289/376 280/378 279/380
f 293/356 294/398 287/388 288/355
f 295/399 296/400 285/389 286/397
f 291/401 292/375 289/376 290/390
f 286/397 287/388 294/398 295/399
f 290/390 285/389 296/400 291/401
f 300/357 299/402 294/398 293/356
f 291/401 296/400 297/403 302/404
f 298/405 297/403 296/400 295/399
f 295/399 294/398 299/402 298/405
f 302/404 301/370 292/375 291/401
f 305/364 306/406 299/402 300/357
f 303/407 304/369 301/370 302/404
f 298/405 299/402 306/406 307/408
f 307/408 308/409 297/403 298/405
f 302/404 297/403 308/409 303/407
f 330/360 329/361 306/406 305/364
f 303/407 308/409 309/368 332/358
f 310/373 309/368 308/409 307/408
f 307/408 306/406 329/361 310/373
f 324/372 323/366 712/410 710/411
f 470/412 469/413 723/414 740/415
f 484/416 472/417 729/418 730/419
f 482/420 481/421 735/422 734/423
f 318/365 317/383 314/424 319/377
f 481/421 476/425 736/426 735/422
f 314/427 313/428 715/429 714/430
f 326/392 312/391 315/387 328/381
f 320/374 319/377 711/431 701/432
f 471/433 470/412 740/415 737/434
f 313/428 314/427 317/383 316/384
f 473/435 484/416 730/419 721/436
f 321/363 320/374 701/432 705/437
f 325/371 326/392 328/381 327/379
f 332/358 331/359 304/369 303/407
f 588/438 349/439 344/440 590/441
f 622/442 339/443 356/444 621/445
f 455/446 357/447 358/448 454/449
f 457/450 594/451 342/452 353/453
f 612/454 350/455 349/439 588/438
f 606/456 354/457 352/458 601/459
f 397/460 335/461 338/462 370/463
f 364/464 339/465 358/466 362/467
f 370/463 338/462 350/455 612/454
f 623/468 355/469 346/470 440/471
f 429/472 347/473 334/474 408/475
f 623/468 363/476 340/477 355/469
f 457/450 353/453 341/478 596/479
f 408/475 334/474 335/461 397/460
f 410/480 333/481 336/482 395/483
f 440/471 346/470 347/473 429/472
f 372/484 337/485 354/457 606/456
f 590/441 344/440 343/486 592/487
f 599/488 351/489 341/490 597/491
f 427/492 348/493 333/481 410/480
f 442/494 345/495 348/493 427/492
f 360/496 357/497 340/477 363/476
f 592/487 343/486 342/498 594/499
f 395/483 336/482 337/485 372/484
f 621/445 356/444 345/495 442/494
f 601/459 352/458 351/489 599/488
f 456/500 641/501 639/502 585/503
f 339/465 622/442 454/449 358/466
f 357/497 455/446 618/504 340/477
f 357/497 360/496 362/467 358/448
f 361/505 359/506 362/467 360/496
f 355/469 340/477 618/504 619/507
f 339/465 364/464 620/508 356/444
f 363/476 624/509 625/510 360/496
f 453/511 364/464 362/467 628/512
f 359/506 361/505 626/513 451/514
f 625/510 626/513 361/505 360/496
f 451/514 628/512 362/467 359/506
f 623/468 452/515 624/509 363/476
f 364/464 453/511 627/516 620/508
f 671/517 682/518 586/519 384/520
f 645/521 384/520 586/519 643/522
f 616/523 605/524 373/525 366/526
f 375/527 617/528 365/529 382/530
f 337/485 373/525 605/524 354/457
f 371/531 372/484 606/456 607/532
f 382/530 367/533 615/534 375/527
f 614/535 615/534 367/533 368/536
f 376/537 587/538 578/539 377/540
f 385/541 613/542 369/543 381/544
f 338/462 376/545 587/546 350/455
f 613/542 614/535 368/536 369/543
f 577/547 378/548 377/540 578/539
f 378/548 577/547 576/549 379/550
f 612/454 385/541 381/544 370/463
f 607/551 371/552 379/550 576/549
f 580/553 638/554 641/501 456/500
f 664/555 584/556 585/557 639/558
f 460/559 631/560 638/554 580/553
f 570/561 642/562 631/560 460/559
f 603/563 635/564 642/562 570/561
f 635/564 603/563 604/565 629/566
f 629/566 604/565 389/567 637/568
f 584/556 664/555 640/569 583/570
f 583/570 640/569 654/571 582/572
f 643/522 586/519 582/572 654/571
f 384/520 645/521 632/573 608/574
f 633/575 609/576 608/574 632/573
f 637/568 389/567 611/577 636/578
f 374/579 644/580 636/578 611/577
f 634/581 610/582 609/576 633/575
f 610/582 634/581 644/580 374/579
f 380/583 365/529 617/528 388/584
f 388/584 616/523 366/526 380/583
f 369/543 368/536 399/585 398/586
f 393/587 376/537 377/540 392/588
f 370/463 381/544 386/589 397/460
f 368/536 367/533 400/590 399/585
f 371/552 396/591 390/592 379/550
f 668/593 676/594 456/500 585/503
f 353/453 342/452 595/595 458/596
f 458/597 459/598 461/599 595/600
f 571/601 461/599 459/598 569/602
f 574/603 571/601 569/602 573/604
f 573/604 576/549 577/547 574/603
f 391/605 378/548 379/550 390/592
f 382/530 365/529 402/606 383/607
f 681/608 673/609 375/527 615/534
f 378/548 391/605 392/588 377/540
f 383/607 400/590 367/533 382/530
f 380/583 366/526 401/610 387/611
f 335/461 393/612 376/545 338/462
f 387/611 402/606 365/529 380/583
f 396/591 371/552 372/613 395/614
f 381/544 369/543 398/586 386/589
f 366/526 373/525 394/615 401/610
f 336/482 394/615 373/525 337/485
f 418/616 405/617 400/590 383/607
f 679/618 671/517 384/520 608/574
f 412/619 393/587 392/588 413/620
f 398/586 399/585 406/621 407/622
f 414/623 391/605 390/592 415/624
f 401/610 394/615 411/625 404/626
f 397/460 386/589 417/627 408/475
f 409/628 396/591 395/614 410/629
f 333/481 411/625 394/615 336/482
f 334/474 412/630 393/612 335/461
f 387/611 401/610 404/626 416/631
f 386/589 398/586 407/622 417/627
f 391/605 414/623 413/620 392/588
f 383/607 402/606 403/632 418/616
f 677/633 611/577 389/567 672/634
f 416/631 403/632 402/606 387/611
f 396/591 409/628 415/624 390/592
f 399/585 400/590 405/617 406/621
f 404/626 411/625 426/635 433/636
f 348/493 426/635 411/625 333/481
f 407/622 406/621 431/637 430/638
f 425/639 412/619 413/620 424/640
f 408/475 417/627 420/641 429/472
f 406/621 405/617 432/642 431/637
f 409/628 428/643 422/644 415/624
f 423/645 414/623 415/624 422/644
f 418/616 403/632 434/646 419/647
f 414/623 423/645 424/640 413/620
f 419/647 432/642 405/617 418/616
f 416/631 404/626 433/636 421/648
f 347/473 425/649 412/630 334/474
f 421/648 434/646 403/632 416/631
f 428/643 409/628 410/629 427/650
f 417/627 407/622 430/638 420/641
f 444/651 425/639 424/640 445/652
f 430/638 431/637 438/653 439/654
f 345/495 443/655 426/635 348/493
f 463/656 492/657 491/658 464/659
f 470/412 468/660 467/661 469/413
f 475/662 474/663 738/664 739/665
f 311/367 322/362 703/666 704/667
f 482/420 479/668 478/669 481/421
f 325/371 324/372 710/411 709/670
f 476/425 475/662 739/665 736/426
f 469/413 467/661 480/671 483/672
f 319/377 314/424 714/430 711/431
f 483/673 482/420 734/423 724/674
f 477/675 476/425 481/421 478/669
f 323/366 311/367 704/667 712/410
f 472/417 471/433 737/434 729/418
f 469/413 483/672 724/674 723/414
f 313/396 312/395 716/394 715/429
f 488/676 485/677 466/678 489/679
f 485/677 488/676 487/680 486/681
f 492/657 463/656 486/681 487/680
f 465/682 490/683 489/679 466/678
f 493/684 492/657 487/680 498/685
f 488/676 497/686 498/685 487/680
f 497/686 488/676 489/679 496/687
f 492/657 493/684 494/688 491/658
f 490/683 495/689 496/687 489/679
f 493/684 504/690 503/691 494/688
f 500/692 497/686 496/687 501/693
f 497/686 500/692 499/694 498/685
f 504/690 493/684 498/685 499/694
f 495/689 502/695 501/693 496/687
f 505/696 504/690 499/694 510/697
f 509/698 500/692 501/693 508/699
f 504/690 505/696 506/700 503/691
f 500/692 509/698 510/697 499/694
f 502/695 507/701 508/699 501/693
f 505/696 516/702 515/703 506/700
f 512/704 509/698 508/699 513/705
f 509/698 512/704 511/706 510/697
f 483/673 480/671 479/668 482/420
f 322/362 321/363 705/437 703/666
f 474/663 473/435 721/436 738/664
f 326/392 325/371 709/670 707/393
f 516/702 505/696 510/697 511/706
f 507/701 514/707 513/705 508/699
f 467/661 516/702 511/706 480/671
f 512/704 479/668 480/671 511/706
f 479/668 512/704 513/705 478/669
f 514/707 477/675 478/669 513/705
f 516/702 467/661 468/660 515/703
f 468/660 470/412 517/708 518/709
f 494/688 503/691 538/710 535/711
f 515/703 468/660 518/709 542/712
f 485/677 486/681 532/713 531/714
f 471/433 472/417 524/715 523/716
f 507/701 502/695 537/717 540/718
f 475/662 476/425 528/719 527/720
f 506/700 515/703 542/712 539/721
f 476/425 477/675 529/722 528/719
f 503/691 506/700 539/721 538/710
f 474/663 475/662 527/720 526/723
f 464/659 491/658 534/724 521/725
f 466/678 485/677 531/714 519/726
f 484/416 473/435 525/727 530/728
f 470/412 471/433 523/716 517/708
f 491/658 494/688 535/711 534/724
f 486/681 463/656 522/729 532/713
f 472/417 484/416 530/728 524/715
f 477/675 514/707 541/730 529/722
f 495/689 490/683 533/731 536/732
f 490/683 465/682 520/733 533/731
f 473/435 474/663 526/723 525/727
f 465/682 466/678 519/726 520/733
f 463/656 464/659 521/725 522/729
f 502/695 495/689 536/732 537/717
f 514/707 507/701 540/718 541/730
f 526/723 527/720 553/734 552/735
f 520/733 519/726 545/736 546/737
f 540/718 537/717 563/738 566/739
f 517/708 523/716 549/740 543/741
f 522/729 521/725 547/742 548/743
f 538/710 539/721 565/744 564/745
f 537/717 536/732 562/746 563/738
f 518/709 517/708 543/741 544/747
f 531/714 532/713 558/748 557/749
f 541/730 540/718 566/739 567/750
f 528/719 529/722 555/751 554/752
f 536/732 533/731 559/753 562/746
f 539/721 542/712 568/754 565/744
f 542/712 518/709 544/747 568/754
f 530/728 525/727 551/755 556/756
f 525/727 526/723 552/735 551/755
f 519/726 531/714 557/749 545/736
f 532/713 522/729 548/743 558/748
f 523/716 524/715 550/757 549/740
f 529/722 541/730 567/750 555/751
f 527/720 528/719 554/752 553/734
f 535/711 538/710 564/745 561/758
f 533/731 520/733 546/737 559/753
f 534/724 535/711 561/758 560/759
f 521/725 534/724 560/759 547/742
f 524/715 530/728 556/756 550/757
f 433/636 426/635 443/655 436/760
f 420/641 430/638 439/654 449/761
f 441/762 428/643 427/650 442/763
f 448/764 435/765 434/646 421/648
f 346/470 444/766 425/649 347/473
f 421/648 433/636 436/760 448/764
f 450/767 437/768 432/642 419/647
f 423/645 446/769 445/652 424/640
f 419/647 434/646 435/765 450/767
f 446/769 423/645 422/644 447/770
f 428/643 441/762 447/770 422/644
f 431/637 432/642 437/768 438/653
f 429/472 420/641 449/761 440/471
f 449/761 439/654 624/509 452/515
f 436/760 443/655 620/508 627/516
f 356/444 620/508 443/655 345/495
f 439/654 438/653 625/510 624/509
f 619/771 444/651 445/652 618/772
f 440/471 449/761 452/515 623/468
f 438/653 437/768 626/513 625/510
f 441/762 622/773 454/774 447/770
f 455/775 446/769 447/770 454/774
f 450/767 435/765 628/512 451/514
f 446/769 455/775 618/772 445/652
f 597/776 598/777 459/598 458/597
f 353/453 458/596 597/491 341/478
f 667/778 676/779 457/450 596/479
f 593/780 595/600 461/599 462/781
f 591/782 593/780 462/781 572/783
f 589/784 591/782 572/783 575/785
f 587/538 589/784 575/785 578/539
f 451/514 626/513 437/768 450/767
f 598/777 600/786 569/602 459/598
f 600/786 602/787 573/604 569/602
f 602/787 607/551 576/549 573/604
f 448/764 436/760 627/516 453/511
f 461/599 571/601 572/783 462/781
f 571/601 574/603 575/785 572/783
f 574/603 577/547 578/539 575/785
f 674/788 675/789 570/561 460/559
f 666/790 603/563 570/561 675/789
f 355/469 619/507 444/766 346/470
f 674/791 667/778 596/479 581/792
f 665/793 582/572 586/519 682/518
f 679/618 608/574 609/576 680/794
f 672/634 389/567 604/565 678/795
f 453/511 628/512 435/765 448/764
f 352/458 579/796 581/797 351/489
f 668/798 670/799 592/487 594/499
f 670/799 669/800 590/441 592/487
f 669/800 665/801 588/438 590/441
f 350/455 587/546 589/802 349/439
f 349/439 589/802 591/803 344/440
f 344/440 591/803 593/804 343/486
f 343/486 593/804 595/805 342/498
f 597/776 599/806 600/786 598/777
f 599/488 600/807 602/808 601/459
f 601/459 602/808 607/532 606/456
f 351/489 581/797 596/479 341/490
f 678/809 666/810 605/524 616/523
f 622/773 441/762 442/763 621/811
f 354/457 605/524 579/796 352/458
f 673/609 677/812 617/528 375/527
f 680/813 681/608 615/534 614/535
f 640/569 646/814 662/815 654/571
f 643/522 660/816 655/817 645/521
f 654/571 662/815 660/816 643/522
f 631/560 642/562 647/818 649/819
f 632/573 645/521 655/817 657/820
f 636/578 644/580 658/821 656/822
f 635/564 653/823 647/818 642/562
f 635/564 629/566 630/824 653/823
f 661/825 634/581 633/575 659/826
f 659/826 633/575 632/573 657/820
f 663/827 664/555 639/558 651/828
f 630/824 629/566 637/568 652/829
f 638/554 650/830 648/831 641/501
f 631/560 649/819 650/830 638/554
f 641/501 648/831 651/832 639/502
f 652/829 637/568 636/578 656/822
f 634/581 661/825 658/821 644/580
f 646/814 640/569 664/555 663/827
f 609/576 610/582 681/608 680/794
f 374/579 611/577 677/633 673/609
f 604/565 603/563 666/790 678/795
f 583/570 582/572 665/793 669/800
f 584/556 583/570 669/800 670/799
f 585/557 584/556 670/799 668/798
f 388/584 672/634 678/795 616/523
f 613/542 679/618 680/794 614/535
f 588/438 665/801 682/518 612/454
f 460/559 580/553 667/778 674/788
f 605/524 666/810 675/789 579/796
f 581/797 579/796 675/789 674/791
f 580/553 456/500 676/594 667/778
f 617/528 677/812 672/634 388/584
f 613/542 385/541 671/517 679/618
f 610/582 374/579 673/609 681/608
f 594/451 457/450 676/779 668/593
f 385/541 612/454 682/518 671/517
f 174/272 694/232 683/102 53/271
f 71/301 697/251 689/254 102/144
f 55/261 684/42 692/43 185/262
f 52/273 686/97 694/232 174/272
f 48/260 171/258 693/93 688/46
f 85/268 698/106 689/145 103/270
f 84/62 691/105 690/112 86/49
f 60/50 86/49 690/112 699/58
f 99/116 691/115 698/106 85/268
f 77/300 53/271 683/102 700/84
f 52/273 51/274 685/39 686/97
f 171/258 49/259 687/55 693/93
f 80/269 697/87 695/85 81/266
f 81/266 695/85 696/81 82/265
f 82/265 696/81 700/84 83/104
f 61/95 687/94 699/58 62/267
f 185/262 692/43 688/46 54/264
f 56/99 685/98 684/42 55/261
f 704/667 703/666 718/833 720/834
f 717/835 719/836 720/834 718/833
f 715/429 716/394 719/836 717/835
f 712/410 704/667 720/834 713/837
f 705/437 706/838 718/833 703/666
f 701/432 702/839 706/838 705/437
f 711/431 714/430 702/839 701/432
f 713/837 720/834 719/836 708/840
f 708/840 719/836 716/394 707/393
f 718/833 706/838 702/839 717/835
f 717/835 702/839 714/430 715/429
f 712/410 713/837 708/840 710/411
f 710/411 708/840 707/393 709/670
f 737/434 740/415 723/414 725/841
f 729/418 737/434 725/841 727/842
f 733/843 734/423 735/422 732/844
f 722/845 733/843 732/844 731/846
f 725/841 723/414 724/674 726/847
f 727/842 725/841 726/847 728/848
f 736/426 739/665 732/844 735/422
f 739/665 738/664 731/846 732/844
f 738/664 721/436 722/845 731/846
f 729/418 727/842 728/848 730/419
f 734/423 733/843 726/847 724/674
f 733/843 722/845 728/848 726/847
f 730/419 728/848 722/845 721/436