# Exported from MakeClothes (TM)
# author punkduck
# license CC BY 3.0
# homepage http://www.makehuman.org/
v 0.0097 1.6196 -0.3696
v 0.0319 1.6196 -0.3696
v 0.0097 1.5494 -0.4149
v 0.0319 1.5494 -0.4149
v 0.0062 1.6196 -0.3531
v 0.0354 1.6196 -0.3531
v 0.0062 1.5354 -0.4073
v 0.0354 1.5354 -0.4073
v -0.0045 1.6154 -0.3558
v 0.0461 1.6154 -0.3558
v -0.0073 1.5469 -0.3999
v 0.0489 1.5469 -0.3999
v 0.0097 1.5815 -0.3941
v 0.0097 1.6014 -0.3813
v 0.0319 1.6014 -0.3813
v 0.0319 1.5815 -0.3941
v 0.0062 1.5740 -0.3824
v 0.0062 1.5939 -0.3696
v 0.0354 1.5939 -0.3696
v 0.0354 1.5740 -0.3824
v -0.0168 1.5740 -0.3824
v -0.0172 1.5939 -0.3696
v 0.0588 1.5939 -0.3696
v 0.0584 1.5740 -0.3824
v 0.0062 1.6123 -0.3418
v 0.0354 1.6123 -0.3418
v 0.0062 1.5281 -0.3960
v 0.0354 1.5281 -0.3960
v -0.0045 1.6081 -0.3445
v 0.0461 1.6081 -0.3445
v -0.0073 1.5396 -0.3886
v 0.0489 1.5396 -0.3886
v -0.0168 1.5667 -0.3712
v -0.0172 1.5866 -0.3584
v 0.0588 1.5866 -0.3584
v 0.0584 1.5667 -0.3712
v -0.0018 1.4193 -0.4857
v -0.0018 1.4233 -0.4920
v 0.0433 1.4233 -0.4920
v 0.0433 1.4193 -0.4857
v -0.0018 1.5654 -0.3915
v -0.0018 1.5695 -0.3978
v 0.0433 1.5695 -0.3978
v 0.0433 1.5654 -0.3915
v -0.0018 1.5269 -0.4164
v -0.0018 1.5309 -0.4226
v 0.0433 1.5309 -0.4226
v 0.0433 1.5269 -0.4164
v 0.0053 1.5329 -0.4125
v 0.0053 1.5594 -0.3954
v 0.0053 1.5635 -0.4017
v 0.0362 1.5635 -0.4017
v 0.0362 1.5594 -0.3954
v 0.0053 1.5369 -0.4188
v 0.0362 1.5369 -0.4188
v 0.0362 1.5329 -0.4125
v -1.2943 1.8420 0.6284
v -1.3026 1.8420 0.2365
v -1.3094 1.8420 0.4464
v -0.4873 1.8088 1.4690
v -0.6341 2.0646 -0.2634
v -0.4970 2.0646 -0.2643
v -0.3786 2.0646 -0.2621
v -0.2765 2.0646 -0.2710
v -0.1798 2.0646 -0.2720
v -0.0929 2.0646 -0.2584
v 0.0001 2.0646 -0.2612
v -0.1257 1.7954 1.5159
v -1.1133 1.8420 -0.0787
v -1.2323 1.8420 0.0559
v -0.8223 1.8420 -0.2226
v -0.2966 1.7988 1.5064
v 0.0001 1.7954 1.5178
v -1.1493 1.8420 1.0258
v -0.6980 1.8237 1.3842
v -0.9515 1.8389 1.2543
v -1.2528 1.8420 0.7847
v -0.9695 1.8420 -0.1635
v -1.1631 2.0666 0.1037
v -1.0491 2.0666 -0.0140
v -1.2611 2.0646 0.6315
v -1.2694 2.0646 0.4476
v -1.2508 2.0646 0.2450
v -0.7785 2.0646 -0.1950
v -0.3153 1.8420 -0.2840
v -0.2101 1.8420 -0.2915
v -0.1129 1.8420 -0.2930
v 0.0001 1.8420 -0.2985
v -0.6764 1.8420 -0.2482
v -0.5419 1.8420 -0.2639
v -0.1148 2.0180 1.5093
v -0.4244 1.8420 -0.2742
v -1.2275 2.0646 0.7764
v 0.0001 2.0180 1.5063
v -0.4710 2.0308 1.4880
v -0.2787 2.0211 1.5041
v -0.6809 2.0449 1.4222
v -0.9362 2.0609 1.2554
v -1.1307 2.0645 1.0050
v -0.9170 2.0646 -0.1243
v 1.2945 1.8420 0.6284
v 1.3028 1.8420 0.2365
v 1.3097 1.8420 0.4464
v 0.4875 1.8088 1.4691
v 0.6343 2.0646 -0.2634
v 0.4972 2.0646 -0.2643
v 0.3789 2.0646 -0.2621
v 0.2767 2.0646 -0.2710
v 0.1800 2.0646 -0.2720
v 0.0932 2.0646 -0.2694
v 0.1259 1.7954 1.5115
v 1.1135 1.8420 -0.0787
v 1.2325 1.8420 0.0559
v 0.8225 1.8420 -0.2271
v 0.2968 1.7988 1.5046
v 1.1496 1.8420 1.0258
v 0.6982 1.8237 1.3842
v 0.9517 1.8389 1.2543
v 1.2531 1.8420 0.7847
v 0.9697 1.8420 -0.1635
v 1.1611 2.0646 0.1054
v 1.0471 2.0646 -0.0122
v 1.2613 2.0646 0.6315
v 1.2697 2.0646 0.4476
v 1.2488 2.0646 0.2450
v 0.7787 2.0646 -0.1950
v 0.3155 1.8420 -0.2961
v 0.2103 1.8420 -0.3035
v 0.1132 1.8420 -0.3056
v 0.6767 1.8420 -0.2605
v 0.5421 1.8420 -0.2761
v 0.1150 2.0180 1.5093
v 0.4247 1.8420 -0.2863
v 1.2277 2.0646 0.7764
v 0.4713 2.0309 1.4880
v 0.2789 2.0211 1.5041
v 0.6812 2.0450 1.4222
v 0.9364 2.0609 1.2554
v 1.1309 2.0645 1.0050
v 0.9173 2.0646 -0.1243
v -0.6256 2.0842 -0.2131
v -0.4903 2.0842 -0.2346
v -0.3736 2.0842 -0.2325
v -0.2728 2.0842 -0.2409
v -0.1774 2.0842 -0.2417
v -0.0918 2.0842 -0.2349
v -0.0000 2.0842 -0.2376
v -1.1203 2.0842 0.1203
v -0.9903 2.0842 0.0074
v -1.2048 2.0842 0.6127
v -1.2131 2.0842 0.4374
v -1.1928 2.0842 0.2681
v -0.7680 2.0842 -0.1616
v -0.1133 2.0376 1.4453
v -1.1710 2.0842 0.7389
v -0.0000 2.0376 1.4458
v -0.4647 2.0502 1.3901
v -0.2750 2.0406 1.4467
v -0.6599 2.0646 1.3265
v -0.9057 2.0806 1.1834
v -1.0924 2.0841 0.9460
v -0.8873 2.0842 -0.0946
v 0.6196 2.0842 -0.1938
v 0.4902 2.0842 -0.2346
v 0.3735 2.0842 -0.2325
v 0.2728 2.0842 -0.2409
v 0.1774 2.0842 -0.2482
v 0.0917 2.0807 -0.2516
v 1.1072 2.0842 0.1203
v 1.0164 2.0842 0.0040
v 1.1981 2.0842 0.6127
v 1.2065 2.0842 0.4374
v 1.1797 2.0842 0.2681
v 0.7620 2.0842 -0.1550
v 0.1133 2.0376 1.4404
v 1.1774 2.0842 0.7389
v 0.4587 2.0502 1.3926
v 0.2749 2.0406 1.4355
v 0.6539 2.0646 1.3243
v 0.9057 2.0806 1.1709
v 1.0878 2.0841 0.9277
v 0.8877 2.0842 -0.0810
v -1.3612 1.6200 0.6144
v -1.3713 1.6200 0.2083
v -1.3774 1.6200 0.4258
v -0.5166 1.5881 1.4600
v -0.1332 1.5734 1.5218
v -1.1754 1.6200 -0.1195
v -1.2973 1.6200 0.0209
v -0.8717 1.6200 -0.2562
v -0.3144 1.5772 1.5135
v 0.0001 1.5734 1.5203
v -1.2176 1.6200 0.9988
v -0.7400 1.6039 1.3718
v -1.0087 1.6183 1.2283
v -1.3173 1.6200 0.7764
v -1.0278 1.6200 -0.2049
v -0.3342 1.6200 -0.3328
v -0.2227 1.6200 -0.3475
v -0.1197 1.6200 -0.3604
v -0.0183 1.6222 -0.3674
v -0.7171 1.6200 -0.2835
v -0.5745 1.6200 -0.3010
v -0.4500 1.6200 -0.3175
v 1.3614 1.6200 0.6144
v 1.3715 1.6200 0.2083
v 1.3777 1.6200 0.4258
v 0.5168 1.5881 1.4600
v 0.1335 1.5734 1.5119
v 1.1756 1.6200 -0.1195
v 1.2976 1.6200 0.0209
v 0.8719 1.6200 -0.2562
v 0.3147 1.5772 1.5081
v 1.2178 1.6200 0.9988
v 0.7402 1.6039 1.3718
v 1.0089 1.6183 1.2283
v 1.3176 1.6200 0.7764
v 1.0280 1.6200 -0.2049
v 0.3344 1.6200 -0.3328
v 0.2229 1.6200 -0.3475
v 0.1200 1.6200 -0.3604
v 0.7173 1.6200 -0.2835
v 0.5747 1.6200 -0.3010
v 0.4502 1.6200 -0.3175
v -1.5243 1.1973 0.5308
v -1.5356 1.1973 0.1048
v -1.5425 1.1973 0.3331
v -0.5786 1.1850 1.4172
v -0.1493 1.1678 1.4806
v -1.3163 1.1973 -0.2618
v -1.4528 1.1973 -0.0942
v -0.9762 1.1973 -0.4389
v -0.3522 1.1715 1.4703
v 0.0000 1.1678 1.4855
v -1.3635 1.1973 0.9338
v -0.8287 1.1956 1.3249
v -1.1296 1.1973 1.1744
v -1.4752 1.1973 0.7006
v -1.1510 1.1973 -0.3538
v -0.3744 1.1973 -0.5805
v -0.2495 1.1973 -0.5943
v -0.1342 1.1973 -0.6001
v -0.0368 1.1973 -0.6054
v -0.8031 1.1973 -0.4866
v -0.6434 1.1973 -0.5156
v -0.5040 1.1973 -0.5492
v 1.5243 1.1973 0.5308
v 1.5356 1.1973 0.1048
v 1.5425 1.1973 0.3331
v 0.5786 1.1850 1.4172
v 0.1493 1.1678 1.4806
v 1.3163 1.1973 -0.2618
v 1.4528 1.1973 -0.0942
v 0.9762 1.1973 -0.4389
v 0.3522 1.1715 1.4703
v 1.3635 1.1973 0.9338
v 0.8287 1.1956 1.3249
v 1.1296 1.1973 1.1744
v 1.4752 1.1973 0.7006
v 1.1510 1.1973 -0.3538
v 0.3744 1.1973 -0.5805
v 0.2495 1.1973 -0.5943
v 0.1342 1.1973 -0.6001
v 0.8031 1.1973 -0.4866
v 0.6434 1.1973 -0.5156
v 0.5040 1.1973 -0.5492
v -1.6607 0.7745 0.4071
v -1.6730 0.7745 -0.0963
v -1.6805 0.7745 0.1748
v -0.6303 0.7737 1.4478
v -0.1627 0.7703 1.5223
v -1.4255 0.7745 -0.5365
v -1.5796 0.7745 -0.3283
v -1.0634 0.7745 -0.7295
v -0.3838 0.7722 1.5102
v 0.0000 0.7703 1.5280
v -1.4855 0.7745 0.8802
v -0.9029 0.7745 1.3395
v -1.2307 0.7745 1.1628
v -1.6072 0.7745 0.6065
v -1.2477 0.7745 -0.6479
v -0.4079 0.7745 -0.8469
v -0.2718 0.7745 -0.8608
v -0.1462 0.7745 -0.8682
v -0.0391 0.7745 -0.8721
v -0.8750 0.7745 -0.7695
v -0.7010 0.7745 -0.7961
v -0.5491 0.7745 -0.8231
v 1.6607 0.7745 0.4071
v 1.6730 0.7745 -0.0963
v 1.6805 0.7745 0.1748
v 0.6303 0.7737 1.4478
v 0.1627 0.7703 1.5223
v 1.4280 0.7745 -0.5438
v 1.5828 0.7745 -0.3336
v 1.0580 0.7745 -0.7169
v 0.3838 0.7722 1.5102
v 1.4855 0.7745 0.8802
v 0.9029 0.7745 1.3395
v 1.2307 0.7745 1.1628
v 1.6072 0.7745 0.6065
v 1.2456 0.7745 -0.6470
v 0.4079 0.7745 -0.8469
v 0.2718 0.7745 -0.8608
v 0.1462 0.7745 -0.8682
v 0.8749 0.7745 -0.7687
v 0.7010 0.7745 -0.7961
v 0.5491 0.7745 -0.8231
v -1.7659 0.3405 0.2793
v -1.7616 0.3405 -0.2722
v -1.7520 0.3340 0.0001
v -0.6791 0.3420 1.4614
v -0.1823 0.3414 1.5510
v -1.4998 0.3421 -0.7110
v -1.6612 0.3420 -0.5118
v -1.1289 0.3421 -0.9516
v -0.4147 0.3417 1.5310
v 0.0000 0.3415 1.5568
v -1.5725 0.3422 0.8258
v -0.9750 0.3420 1.3350
v -1.3085 0.3420 1.1291
v -1.7125 0.3420 0.5251
v -1.3191 0.3424 -0.8502
v -0.4379 0.3422 -1.1203
v -0.2927 0.3420 -1.1373
v -0.1611 0.3420 -1.1491
v -0.0583 0.2886 -1.1910
v -0.9366 0.3420 -1.0218
v -0.7538 0.3420 -1.0643
v -0.5898 0.3420 -1.0955
v 1.7748 0.3420 0.2830
v 1.7791 0.3420 -0.2812
v 1.7969 0.3420 0.0166
v 0.6809 0.3424 1.4505
v 0.1823 0.3414 1.5510
v 1.5026 0.3420 -0.7224
v 1.6734 0.3420 -0.5340
v 1.1157 0.3420 -0.9298
v 0.4151 0.3418 1.5288
v 1.5731 0.3423 0.8256
v 0.9754 0.3421 1.3327
v 1.3086 0.3420 1.1291
v 1.7127 0.3420 0.5251
v 1.3091 0.3420 -0.8415
v 0.4380 0.3422 -1.1200
v 0.2928 0.3420 -1.1372
v 0.1607 0.3420 -1.1491
v 0.9276 0.3420 -1.0014
v 0.7503 0.3420 -1.0525
v 0.5894 0.3420 -1.0928
v -1.9395 -0.2283 0.2532
v -1.9468 -0.2283 -0.3725
v -1.8754 -0.2017 -0.0510
v -0.7566 -0.2248 1.5980
v -0.1995 -0.2335 1.6593
v -1.6888 -0.2264 -0.8933
v -1.8504 -0.2335 -0.6626
v -1.2706 -0.2264 -1.1665
v -0.4575 -0.2317 1.6478
v 0.0015 -0.2308 1.6629
v -1.6671 -0.2143 0.8626
v -1.0757 -0.2317 1.4307
v -1.4305 -0.2294 1.1941
v -1.8763 -0.2294 0.5242
v -1.5293 -0.2002 -1.0292
v -0.4961 -0.2146 -1.3306
v -0.3253 -0.2295 -1.3649
v -0.1683 -0.2335 -1.3700
v 0.0015 -0.2335 -1.3708
v -1.0352 -0.2335 -1.2362
v -0.8306 -0.2335 -1.2873
v -0.6532 -0.2295 -1.3262
v 1.9600 -0.2335 0.2554
v 1.9639 -0.2275 -0.3706
v 1.9844 -0.2335 -0.0379
v 0.7295 -0.2176 1.5100
v 0.2025 -0.2335 1.6593
v 1.6812 -0.2335 -0.9054
v 1.8642 -0.2335 -0.6767
v 1.2558 -0.2279 -1.1424
v 0.4556 -0.2308 1.6291
v 1.7143 -0.2080 0.8506
v 1.0737 -0.2308 1.4120
v 1.4429 -0.2280 1.1917
v 1.8888 -0.2280 0.5217
v 1.4675 -0.2335 -1.0513
v 0.5025 -0.2142 -1.3209
v 0.3288 -0.2294 -1.3629
v 0.1713 -0.2335 -1.3699
v 1.0373 -0.2335 -1.2332
v 0.8336 -0.2335 -1.2871
v 0.6566 -0.2294 -1.3241
v -2.0706 -0.8361 0.2315
v -2.0785 -0.8361 -0.4318
v -1.9593 -0.8191 -0.0823
v -0.8136 -0.8299 1.5991
v -0.2058 -0.8369 1.7275
v -1.8131 -0.8344 -0.9981
v -1.9949 -0.8395 -0.7546
v -1.3468 -0.8344 -1.2582
v -0.4849 -0.8379 1.7028
v 0.0106 -0.8270 1.7133
v -1.7454 -0.8219 0.8744
v -1.1504 -0.8379 1.4711
v -1.5255 -0.8366 1.2324
v -2.0055 -0.8366 0.5173
v -1.6026 -0.8088 -1.1003
v -0.5025 -0.8209 -1.3664
v -0.3360 -0.8364 -1.4518
v -0.1723 -0.8395 -1.4673
v 0.0106 -0.8369 -1.4560
v -1.1055 -0.8395 -1.3350
v -0.8852 -0.8395 -1.3880
v -0.6890 -0.8364 -1.4161
v 2.1191 -0.8395 0.2319
v 2.0985 -0.8117 -0.4307
v 2.1419 -0.8336 -0.0803
v 0.7699 -0.8283 1.5337
v 0.2269 -0.8369 1.7275
v 1.8310 -0.8395 -1.0097
v 2.0126 -0.8336 -0.7548
v 1.3968 -0.8134 -1.2249
v 0.4953 -0.8376 1.6918
v 1.8050 -0.8172 0.8620
v 1.1608 -0.8376 1.4601
v 1.5531 -0.8358 1.2303
v 2.0331 -0.8358 0.5152
v 1.6133 -0.8340 -1.1658
v 0.5340 -0.8212 -1.3580
v 0.3589 -0.8364 -1.4503
v 0.1934 -0.8395 -1.4672
v 1.1348 -0.8340 -1.3283
v 0.9064 -0.8395 -1.3878
v 0.7118 -0.8364 -1.4147
v -2.2124 -1.4890 0.2147
v -2.2208 -1.4890 -0.4958
v -2.0505 -1.4822 -0.1132
v -0.8801 -1.4840 1.5945
v -0.2200 -1.4887 1.8146
v -1.9317 -1.4873 -1.0720
v -2.1397 -1.4906 -0.8340
v -1.4313 -1.4873 -1.3476
v -0.5208 -1.4892 1.7821
v 0.0121 -1.4801 1.7593
v -1.8381 -1.4807 0.8965
v -1.2349 -1.4892 1.5326
v -1.6303 -1.4888 1.2894
v -2.1454 -1.4888 0.5190
v -1.6416 -1.4724 -1.1298
v -0.5067 -1.4793 -1.3950
v -0.3544 -1.4886 -1.5435
v -0.1841 -1.4879 -1.5555
v 0.0121 -1.4789 -1.4954
v -1.1854 -1.4906 -1.4378
v -0.9491 -1.4906 -1.4902
v -0.7331 -1.4886 -1.5076
v 2.2745 -1.4906 0.2131
v 2.1946 -1.4678 -0.4859
v 2.2880 -1.4866 -0.1206
v 0.8023 -1.4852 1.5787
v 0.2442 -1.4887 1.8146
v 1.9654 -1.4906 -1.0941
v 2.1492 -1.4866 -0.8321
v 1.4620 -1.4685 -1.2531
v 0.5280 -1.4895 1.7795
v 1.8819 -1.4783 0.8868
v 1.2421 -1.4895 1.5300
v 1.6578 -1.4884 1.2878
v 2.1728 -1.4884 0.5174
v 1.7225 -1.4867 -1.2434
v 0.5495 -1.4798 -1.3907
v 0.3817 -1.4887 -1.5428
v 0.2083 -1.4879 -1.5554
v 1.2091 -1.4867 -1.4183
v 0.9733 -1.4906 -1.4901
v 0.7604 -1.4887 -1.5069
v -2.3845 -2.1566 0.2079
v -2.3935 -2.1566 -0.5679
v -2.1704 -2.1619 -0.1415
v -0.9595 -2.1570 1.6300
v -0.2388 -2.1553 1.9476
v -2.0765 -2.1555 -1.1787
v -2.3136 -2.1555 -0.9344
v -1.5357 -2.1555 -1.4649
v -0.5651 -2.1558 1.9066
v 0.0121 -2.1538 1.8433
v -1.9567 -2.1553 0.9438
v -1.3369 -2.1558 1.6336
v -1.7580 -2.1555 1.3802
v -2.3147 -2.1555 0.5377
v -1.7011 -2.1551 -1.1926
v -0.5185 -2.1545 -1.4466
v -0.3791 -2.1554 -1.6705
v -0.1999 -2.1544 -1.6925
v 0.0121 -2.1487 -1.5869
v -1.2822 -2.1555 -1.5617
v -1.0268 -2.1555 -1.6098
v -0.7884 -2.1554 -1.6179
v 2.4573 -2.1555 0.2044
v 2.3092 -2.1487 -0.5466
v 2.4617 -2.1544 -0.1586
v 0.8433 -2.1590 1.6657
v 0.2630 -2.1553 1.9476
v 2.1232 -2.1555 -1.2112
v 2.3117 -2.1544 -0.9303
v 1.5264 -2.1485 -1.3008
v 0.5660 -2.1561 1.9124
v 1.9809 -2.1555 0.9369
v 1.3378 -2.1561 1.6394
v 1.7822 -2.1555 1.3790
v 2.3389 -2.1555 0.5366
v 1.8520 -2.1544 -1.3560
v 0.5698 -2.1547 -1.4465
v 0.4078 -2.1554 -1.6705
v 0.2241 -2.1544 -1.6925
v 1.2972 -2.1544 -1.5291
v 1.0509 -2.1555 -1.6098
v 0.8171 -2.1554 -1.6179
v -2.5568 -2.8535 0.2066
v -2.5666 -2.8535 -0.6275
v -2.2899 -2.8710 -0.1604
v -1.0395 -2.8577 1.6517
v -0.2577 -2.8511 2.0670
v -2.2214 -2.8528 -1.2717
v -2.4886 -2.8499 -1.0211
v -1.6399 -2.8528 -1.5765
v -0.6098 -2.8515 2.0172
v 0.0121 -2.8558 1.9129
v -2.0752 -2.8594 0.9884
v -1.4397 -2.8515 1.7236
v -1.8859 -2.8516 1.4643
v -2.4845 -2.8516 0.5582
v -1.7596 -2.8667 -1.2449
v -0.5296 -2.8588 -1.4923
v -0.4035 -2.8514 -1.7892
v -0.2159 -2.8501 -1.8186
v 0.0121 -2.8507 -1.6708
v -1.3796 -2.8499 -1.6859
v -1.1050 -2.8499 -1.7313
v -0.8436 -2.8514 -1.7261
v 2.6414 -2.8499 0.2009
v 2.4232 -2.8589 -0.5944
v 2.6357 -2.8515 -0.1874
v 0.8840 -2.8614 1.7401
v 0.2819 -2.8511 2.0670
v 2.2821 -2.8499 -1.3155
v 2.4744 -2.8515 -1.0146
v 1.5902 -2.8576 -1.3417
v 0.6038 -2.8520 2.0323
v 2.0793 -2.8622 0.9844
v 1.4337 -2.8520 1.7387
v 1.9066 -2.8520 1.4636
v 2.5052 -2.8520 0.5575
v 1.9817 -2.8512 -1.4585
v 0.5898 -2.8588 -1.4967
v 0.4337 -2.8514 -1.7899
v 0.2401 -2.8501 -1.8186
v 1.3851 -2.8512 -1.6390
v 1.1291 -2.8499 -1.7313
v 0.8738 -2.8514 -1.7268
v -2.7094 -3.4633 0.1907
v -2.7197 -3.4633 -0.6818
v -2.3939 -3.4916 -0.1853
v -1.1101 -3.4657 1.6270
v -0.2743 -3.4590 2.1282
v -2.3498 -3.4630 -1.3491
v -2.6427 -3.4576 -1.0941
v -1.7239 -3.4630 -1.6796
v -0.6490 -3.4588 2.0718
v 0.0121 -3.4667 1.9286
v -2.1787 -3.4753 1.0001
v -1.5300 -3.4588 1.7647
v -1.9990 -3.4605 1.5038
v -2.6345 -3.4605 0.5558
v -1.8097 -3.4893 -1.2909
v -0.5437 -3.4760 -1.5489
v -0.4253 -3.4606 -1.9003
v -0.2300 -3.4589 -1.9350
v 0.0121 -3.4652 -1.7483
v -1.4654 -3.4576 -1.8119
v -1.1738 -3.4576 -1.8599
v -0.8926 -3.4606 -1.8333
v 2.8034 -3.4576 0.1833
v 2.5222 -3.4803 -0.6381
v 2.7897 -3.4615 -0.2212
v 0.9195 -3.4737 1.7623
v 0.2985 -3.4590 2.1282
v 2.4220 -3.4576 -1.4020
v 2.6184 -3.4615 -1.0857
v 1.6453 -3.4790 -1.3852
v 0.6375 -3.4602 2.0942
v 2.1648 -3.4805 0.9986
v 1.5185 -3.4602 1.7871
v 2.0169 -3.4614 1.5035
v 2.6524 -3.4614 0.5555
v 2.0965 -3.4612 -1.5508
v 0.6105 -3.4758 -1.5547
v 0.4568 -3.4606 -1.9017
v 0.2541 -3.4589 -1.9350
v 1.4595 -3.4612 -1.7458
v 1.1980 -3.4576 -1.8599
v 0.9240 -3.4606 -1.8360
v -2.7853 -3.9970 0.2012
v -2.7924 -3.9970 -0.6922
v -2.5147 -4.0243 -0.1899
v -1.1561 -3.9952 1.6716
v -0.2906 -3.9900 2.1693
v -2.4146 -3.9967 -1.3609
v -2.7483 -3.9871 -1.1212
v -1.7402 -3.9967 -1.7261
v -0.6830 -3.9893 2.0923
v 0.0121 -3.9978 1.9866
v -2.2756 -4.0077 1.0326
v -1.6027 -3.9893 1.7744
v -2.0538 -3.9927 1.5400
v -2.7160 -3.9927 0.5774
v -1.8681 -4.0230 -1.3484
v -0.5815 -4.0099 -1.6639
v -0.4369 -3.9934 -1.9692
v -0.2384 -3.9902 -2.0078
v 0.0121 -3.9981 -1.8373
v -1.5164 -3.9871 -1.9144
v -1.2246 -3.9871 -1.9688
v -0.9235 -3.9934 -1.8994
v 2.9165 -3.9871 0.1888
v 2.6213 -4.0147 -0.6508
v 2.8739 -3.9946 -0.2228
v 0.9654 -4.0046 1.8240
v 0.3148 -3.9900 2.1693
v 2.5195 -3.9871 -1.4450
v 2.6932 -3.9946 -1.1070
v 1.6992 -4.0145 -1.4567
v 0.6514 -3.9918 2.1331
v 2.2536 -4.0134 1.0330
v 1.5711 -3.9918 1.8153
v 2.0654 -3.9942 1.5402
v 2.7275 -3.9942 0.5776
v 2.1631 -3.9946 -1.5826
v 0.6452 -4.0096 -1.6656
v 0.4710 -3.9933 -1.9685
v 0.2626 -3.9902 -2.0078
v 1.4907 -3.9946 -1.7957
v 1.2439 -3.9871 -1.9604
v 0.9576 -3.9933 -1.9038
v -0.1202 1.6427 -0.3672
v -0.2236 1.6427 -0.3551
v 0.5189 1.6109 1.4804
v 0.7432 1.6265 1.3901
v 1.0131 1.6410 1.2442
v -1.3831 1.6427 0.4287
v -1.3668 1.6427 0.6203
v -0.5187 1.6109 1.4804
v -0.3157 1.6000 1.5354
v -0.1338 1.5962 1.5438
v 0.0001 1.5962 1.5424
v -1.2226 1.6427 1.0109
v -1.0129 1.6410 1.2442
v 0.8755 1.6427 -0.2642
v 0.7203 1.6427 -0.2919
v -1.3228 1.6427 0.7850
v -0.8753 1.6427 -0.2642
v -1.0320 1.6427 -0.2122
v 0.5771 1.6427 -0.3096
v -0.3356 1.6427 -0.3409
v -0.4518 1.6427 -0.3259
v 1.2228 1.6427 1.0109
v 1.3230 1.6427 0.7850
v -0.5769 1.6427 -0.3096
v -0.7201 1.6427 -0.2919
v 1.0323 1.6427 -0.2122
v 0.3358 1.6427 -0.3409
v 0.2238 1.6427 -0.3551
v 0.0316 1.6427 -0.3895
v -0.7430 1.6265 1.3901
v 1.3772 1.6427 0.2076
v 1.3029 1.6427 0.0171
v 0.1205 1.6427 -0.3672
v -1.3027 1.6427 0.0171
v -1.3769 1.6427 0.2076
v 1.3671 1.6427 0.6203
v 1.3834 1.6427 0.4287
v 0.3160 1.6000 1.5300
v -1.1803 1.6427 -0.1255
v 1.1805 1.6427 -0.1255
v 0.1340 1.5962 1.5338
v 0.4521 1.6427 -0.3259
v 0.0248 2.0646 -0.2821
v 0.0248 1.8420 -0.3186
v 0.0230 2.0767 -0.2559
v 0.0001 1.6791 -0.3630
v -0.0694 1.6455 -0.3807
v -0.0694 2.0646 -0.2752
v -0.0689 1.8574 -0.3093
v -0.0686 2.0748 -0.2562
v -0.1723 1.6523 -0.3749
v -0.1723 2.0466 -0.2956
v -0.1719 1.8578 -0.3319
v -0.1702 2.0548 -0.2788
v -0.2691 1.7451 -0.3430
v -0.2691 1.9537 -0.3007
v -0.2696 1.8424 -0.3329
v -0.2740 1.9551 -0.2908
v -0.2745 1.7371 -0.3312
v -0.0694 1.6272 -0.3765
v -0.2752 1.8424 -0.3224
v -0.1723 1.6399 -0.3695
v -0.0384 1.8420 -0.3086
v -0.0422 2.0646 -0.2752
v -0.0422 1.6447 -0.3813
v -0.0462 2.0775 -0.2562
v -0.2014 1.8424 -0.3402
v -0.1964 2.0237 -0.3002
v -0.1964 1.6752 -0.3685
v -0.1961 2.0302 -0.2852
v -0.1978 1.6655 -0.3571
v -0.0694 1.8276 -0.3164
v -0.1723 1.8280 -0.3476
v -0.0694 1.8466 -0.2944
v -0.1723 1.8470 -0.3202
v -0.0422 1.8360 -0.2932
v -0.1965 1.8364 -0.3255
v -0.0694 1.8231 -0.2932
v -0.1723 1.8235 -0.3245
v -0.0422 1.6256 -0.3781
v 0.0532 2.0646 -0.2612
v 0.0532 1.8420 -0.2985
v 0.0531 2.0842 -0.2376
v 0.0532 1.6791 -0.3434
v 0.0650 1.1973 -0.6054
v 0.0680 1.6200 -0.3674
v 0.0558 0.7745 -0.8721
v 0.0543 0.2886 -1.1910
v -0.4526 0.1825 -1.1936
v -0.6072 0.1799 -1.1717
v 1.8239 0.1790 0.2632
v 1.8467 0.1790 -0.0127
v -1.1639 0.1807 -1.0169
v -1.3659 0.1852 -0.9065
v -0.0011 0.2380 -1.2114
v -0.1576 0.1801 -1.2248
v 1.8268 0.1800 -0.3197
v 1.0032 0.1798 1.3462
v 1.3430 0.1803 1.1363
v -1.7056 0.1791 -0.5596
v -1.8058 0.1780 -0.3109
v -1.3401 0.1800 1.1372
v -1.0034 0.1795 1.3527
v -1.6013 0.1825 0.8267
v 0.7724 0.1790 -1.1272
v 0.6075 0.1800 -1.1687
v 0.4539 0.1826 -1.1916
v -1.7551 0.1800 0.5162
v 1.3459 0.1790 -0.9016
v 1.1485 0.1800 -0.9937
v -0.7753 0.1790 -1.1387
v 0.9546 0.1790 -1.0716
v 1.7195 0.1790 -0.5831
v -0.7001 0.1806 1.4884
v -0.4271 0.1794 1.5561
v 0.3025 0.1800 -1.2129
v 0.4268 0.1797 1.5497
v 0.6972 0.1822 1.4629
v -0.9632 0.1791 -1.0923
v 0.1579 0.1801 -1.2248
v 1.5443 0.1790 -0.7756
v -0.1885 0.1790 1.5755
v 0.0003 0.1794 1.5809
v -1.7859 0.1739 -0.0302
v 0.1890 0.1790 1.5753
v -1.8108 0.1780 0.2593
v 1.7583 0.1803 0.5156
v 1.6102 0.1837 0.8244
v -1.5439 0.1807 -0.7630
v -0.3017 0.1799 -1.2134
v -0.0097 1.6228 -0.3602
v -0.0205 1.1973 -0.5984
v -0.0229 0.7745 -0.8651
v -0.0379 0.2886 -1.1790
v 0.0513 1.1973 -0.5984
v 0.0562 1.6200 -0.3602
v 0.0426 0.7745 -0.8651
v 0.0365 0.2886 -1.1790
v 0.0030 0.2851 -1.1790
v 0.0209 1.6228 -0.3598
v 0.0126 0.7745 -0.8651
v 0.0154 1.1973 -0.5984
v -0.0671 1.8633 -0.3241
v -0.0671 1.8696 -0.3592
v -0.0507 1.8726 -0.3224
v -0.0507 1.8789 -0.3575
v -0.0507 1.8911 -0.3190
v -0.0507 1.8975 -0.3541
v -0.0671 1.9004 -0.3174
v -0.0671 1.9068 -0.3524
v -0.0834 1.8911 -0.3190
v -0.0834 1.8975 -0.3541
v -0.0834 1.8726 -0.3224
v -0.0834 1.8789 -0.3575
v -0.1492 1.8633 -0.3241
v -0.1492 1.8696 -0.3592
v -0.1329 1.8726 -0.3224
v -0.1329 1.8789 -0.3575
v -0.1329 1.8911 -0.3190
v -0.1329 1.8975 -0.3541
v -0.1492 1.9004 -0.3174
v -0.1492 1.9068 -0.3524
v -0.1656 1.8911 -0.3190
v -0.1656 1.8975 -0.3541
v -0.1656 1.8726 -0.3224
v -0.1656 1.8789 -0.3575
v -0.0671 1.7832 -0.3386
v -0.0671 1.7896 -0.3737
v -0.0507 1.7925 -0.3369
v -0.0507 1.7988 -0.3720
v -0.0507 1.8111 -0.3336
v -0.0507 1.8174 -0.3686
v -0.0671 1.8204 -0.3319
v -0.0671 1.8267 -0.3669
v -0.0834 1.8111 -0.3336
v -0.0834 1.8174 -0.3686
v -0.0834 1.7925 -0.3369
v -0.0834 1.7988 -0.3720
v -0.1492 1.7832 -0.3386
v -0.1492 1.7896 -0.3736
v -0.1329 1.7925 -0.3369
v -0.1329 1.7989 -0.3720
v -0.1329 1.8111 -0.3336
v -0.1329 1.8174 -0.3687
v -0.1492 1.8204 -0.3319
v -0.1492 1.8267 -0.3670
v -0.1656 1.8111 -0.3336
v -0.1656 1.8174 -0.3686
v -0.1656 1.7925 -0.3369
v -0.1656 1.7988 -0.3719
v -0.1095 1.6985 -0.3540
v -0.1095 1.7048 -0.3890
v -0.0723 1.7033 -0.3531
v -0.0723 1.7096 -0.3882
v -0.0376 1.7174 -0.3505
v -0.0376 1.7238 -0.3856
v -0.0078 1.7399 -0.3465
v -0.0078 1.7463 -0.3815
v 0.0151 1.7692 -0.3412
v 0.0151 1.7756 -0.3762
v 0.0295 1.8034 -0.3350
v 0.0295 1.8097 -0.3700
v 0.0344 1.8400 -0.3283
v 0.0344 1.8464 -0.3634
v 0.0295 1.8766 -0.3217
v 0.0295 1.8830 -0.3567
v 0.0151 1.9108 -0.3155
v 0.0151 1.9171 -0.3505
v -0.0078 1.9401 -0.3102
v -0.0078 1.9464 -0.3452
v -0.0376 1.9626 -0.3061
v -0.0376 1.9689 -0.3412
v -0.0723 1.9767 -0.3035
v -0.0723 1.9831 -0.3386
v -0.1095 1.9815 -0.3027
v -0.1095 1.9879 -0.3377
v -0.1467 1.9767 -0.3035
v -0.1467 1.9831 -0.3386
v -0.1814 1.9626 -0.3061
v -0.1814 1.9689 -0.3412
v -0.2112 1.9401 -0.3102
v -0.2112 1.9464 -0.3452
v -0.2341 1.9108 -0.3155
v -0.2341 1.9171 -0.3505
v -0.2484 1.8766 -0.3217
v -0.2484 1.8830 -0.3567
v -0.2533 1.8400 -0.3283
v -0.2533 1.8464 -0.3634
v -0.2484 1.8034 -0.3350
v -0.2484 1.8097 -0.3700
v -0.2341 1.7692 -0.3412
v -0.2341 1.7756 -0.3762
v -0.2112 1.7399 -0.3465
v -0.2112 1.7463 -0.3815
v -0.1814 1.7174 -0.3505
v -0.1814 1.7238 -0.3856
v -0.1467 1.7033 -0.3531
v -0.1467 1.7096 -0.3882
v -0.1095 1.8400 -0.3283
v -0.1095 1.8464 -0.3634
v -2.7318 -4.0110 0.1889
v -2.7386 -4.0110 -0.6814
v -2.4772 -4.0384 -0.1934
v -1.1237 -4.0092 1.6315
v -0.2732 -4.0041 2.1244
v -2.3719 -4.0107 -1.3287
v -2.6963 -4.0012 -1.0982
v -1.7092 -4.0107 -1.7046
v -0.6563 -4.0033 2.0590
v 0.0122 -4.0118 1.9327
v -2.2246 -4.0218 1.0131
v -1.5728 -4.0033 1.7478
v -2.0050 -4.0067 1.5200
v -2.6653 -4.0067 0.5544
v -1.8411 -4.0370 -1.3002
v -0.5567 -4.0240 -1.6254
v -0.4181 -4.0074 -1.9220
v -0.2279 -4.0043 -1.9595
v 0.0122 -4.0122 -1.7939
v -1.4947 -4.0012 -1.8875
v -1.2221 -4.0012 -1.9263
v -0.9196 -4.0074 -1.8425
v 2.8798 -4.0012 0.1886
v 2.5851 -4.0287 -0.6388
v 2.8366 -4.0087 -0.2253
v 0.9538 -4.0186 1.8053
v 0.3186 -4.0041 2.1385
v 2.4899 -4.0012 -1.4198
v 2.6470 -4.0087 -1.0985
v 1.6767 -4.0285 -1.4297
v 0.6412 -4.0059 2.1010
v 2.2304 -4.0275 1.0182
v 1.5600 -4.0059 1.7922
v 2.0501 -4.0082 1.5297
v 2.6987 -4.0082 0.5687
v 2.1460 -4.0087 -1.5465
v 0.6188 -4.0237 -1.6271
v 0.4519 -4.0074 -1.9214
v 0.2522 -4.0043 -1.9595
v 1.4769 -4.0087 -1.7704
v 1.2263 -4.0012 -1.9275
v 0.9548 -4.0074 -1.8726
v 1.3147 1.5735 0.0082
v 1.1911 1.5735 -0.1352
v 1.0222 1.5720 1.2224
v 1.2338 1.5735 0.9916
v -0.2256 1.5735 -0.3747
v -0.3386 1.5735 -0.3601
v 0.1215 1.5735 -0.3868
v 0.0677 1.5735 -0.3936
v -0.7266 1.5735 -0.3058
v -0.8832 1.5735 -0.2763
v -0.1213 1.5735 -0.3868
v 0.5236 1.5438 1.4553
v 0.7499 1.5590 1.3667
v -1.0413 1.5735 -0.2213
v -1.1909 1.5735 -0.1352
v -0.4559 1.5735 -0.3430
v 1.3794 1.5735 0.6052
v 1.3958 1.5735 0.4156
v 1.3896 1.5735 0.1969
v -1.3144 1.5735 0.0082
v -1.3893 1.5735 0.1969
v -1.0220 1.5720 1.2224
v -0.7497 1.5590 1.3667
v -1.2336 1.5735 0.9916
v 0.5823 1.5735 -0.3246
v 0.4561 1.5735 -0.3430
v 0.3388 1.5735 -0.3601
v -1.3347 1.5735 0.7681
v 1.0416 1.5735 -0.2213
v 0.8834 1.5735 -0.2763
v -0.5821 1.5735 -0.3246
v 0.7268 1.5735 -0.3058
v -0.5234 1.5438 1.4553
v -0.3186 1.5325 1.5087
v 0.2259 1.5735 -0.3747
v 0.3188 1.5325 1.5039
v -0.1350 1.5288 1.5172
v 0.0001 1.5288 1.5165
v -1.3956 1.5735 0.4156
v 0.1352 1.5288 1.5085
v -1.3792 1.5735 0.6052
v 1.3349 1.5735 0.7681
v -0.0203 1.5754 -0.3936
v 0.0556 1.5735 -0.3864
v -0.0109 1.5759 -0.3865
v 0.0203 1.5759 -0.3861
vt 0.8967 0.5348
vt 0.8797 0.5348
vt 0.8797 0.5074
vt 0.8967 0.5074
vt 0.8689 0.4936
vt 0.9073 0.4936
vt 0.8689 0.5348
vt 0.8967 0.5730
vt 0.9073 0.5879
vt 0.8689 0.5879
vt 0.8797 0.5730
vt 0.8967 0.5600
vt 0.9073 0.5600
vt 0.8427 0.5348
vt 0.8568 0.5039
vt 0.9343 0.5600
vt 0.9169 0.5837
vt 0.8797 0.5600
vt 0.8689 0.5600
vt 0.9073 0.5348
vt 0.8604 0.5837
vt 0.8427 0.5600
vt 0.9193 0.5039
vt 0.9343 0.5348
vt 0.8332 0.5600
vt 0.8332 0.5348
vt 0.8543 0.5917
vt 0.9439 0.5348
vt 0.9439 0.5600
vt 0.9264 0.4976
vt 0.9222 0.5917
vt 0.9073 0.5978
vt 0.9073 0.4843
vt 0.8498 0.4976
vt 0.8689 0.4843
vt 0.8689 0.5978
vt 0.8875 0.7241
vt 0.8785 0.7241
vt 0.8785 0.6306
vt 0.8875 0.6215
vt 0.8377 0.7241
vt 0.8377 0.6306
vt 0.8283 0.7241
vt 0.8283 0.6214
vt 0.9436 0.7377
vt 0.9018 0.7377
vt 0.9018 0.6194
vt 0.9436 0.6194
vt 0.8283 0.7778
vt 0.8377 0.7695
vt 0.8785 0.7695
vt 0.8875 0.7778
vt 0.8446 0.7354
vt 0.8715 0.7354
vt 0.8665 0.7412
vt 0.8504 0.7412
vt 0.8665 0.7575
vt 0.8715 0.7621
vt 0.9085 0.7443
vt 0.9085 0.7735
vt 0.9018 0.7801
vt 0.9018 0.7377
vt 0.8446 0.7621
vt 0.8715 0.7621
vt 0.9369 0.7735
vt 0.9436 0.7801
vt 0.8446 0.7354
vt 0.9369 0.7443
vt 0.9436 0.7377
vt 0.8504 0.7575
vt 0.1501 0.9784
vt 0.1501 0.9505
vt 0.1750 0.9505
vt 0.1750 0.9784
vt 0.2271 0.9784
vt 0.2271 0.9505
vt 0.2543 0.9505
vt 0.2543 0.9784
vt 0.1996 0.9505
vt 0.1996 0.9784
vt 0.4466 0.9784
vt 0.4466 0.9505
vt 0.4700 0.9505
vt 0.4700 0.9784
vt 0.4869 0.9505
vt 0.4871 0.9784
vt 0.4197 0.9784
vt 0.4197 0.9505
vt 0.3508 0.9784
vt 0.3508 0.9505
vt 0.3892 0.9505
vt 0.3892 0.9784
vt 0.3125 0.9784
vt 0.3125 0.9505
vt 0.2830 0.9784
vt 0.2830 0.9505
vt 0.0490 0.9784
vt 0.0490 0.9505
vt 0.0605 0.9505
vt 0.0605 0.9784
vt 0.0368 0.9784
vt 0.0368 0.9505
vt 0.0232 0.9784
vt 0.0232 0.9505
vt 0.0879 0.9784
vt 0.0879 0.9505
vt 0.1020 0.9505
vt 0.1020 0.9784
vt 0.0728 0.9784
vt 0.0728 0.9505
vt 0.1298 0.9505
vt 0.1298 0.9784
vt 0.1144 0.9505
vt 0.1144 0.9784
vt 0.8002 0.9784
vt 0.7861 0.9784
vt 0.7861 0.9505
vt 0.8002 0.9505
vt 0.7359 0.9784
vt 0.7117 0.9784
vt 0.7117 0.9505
vt 0.7359 0.9505
vt 0.7624 0.9784
vt 0.7624 0.9505
vt 0.5272 0.9784
vt 0.5039 0.9784
vt 0.5039 0.9505
vt 0.5272 0.9505
vt 0.5541 0.9784
vt 0.5541 0.9505
vt 0.6230 0.9784
vt 0.5846 0.9784
vt 0.5846 0.9505
vt 0.6230 0.9505
vt 0.6613 0.9505
vt 0.6613 0.9784
vt 0.6908 0.9784
vt 0.6908 0.9505
vt 0.8810 0.9784
vt 0.8705 0.9784
vt 0.8705 0.9505
vt 0.8810 0.9505
vt 0.8917 0.9784
vt 0.8917 0.9505
vt 0.9033 0.9784
vt 0.9033 0.9505
vt 0.8489 0.9784
vt 0.8378 0.9784
vt 0.8378 0.9505
vt 0.8489 0.9505
vt 0.8601 0.9784
vt 0.8601 0.9505
vt 0.8137 0.9505
vt 0.8137 0.9784
vt 0.8262 0.9505
vt 0.8262 0.9784
vt 0.5846 0.9867
vt 0.5541 0.9867
vt 0.9033 0.9867
vt 0.8917 0.9867
vt 0.0879 0.9867
vt 0.0728 0.9867
vt 0.0605 0.9867
vt 0.0490 0.9867
vt 0.7117 0.9867
vt 0.6908 0.9867
vt 0.4700 0.9867
vt 0.4466 0.9867
vt 0.8810 0.9867
vt 0.1020 0.9867
vt 0.1298 0.9867
vt 0.1144 0.9867
vt 0.8705 0.9867
vt 0.3892 0.9867
vt 0.3508 0.9867
vt 0.8601 0.9867
vt 0.8489 0.9867
vt 0.1501 0.9867
vt 0.5039 0.9867
vt 0.4871 0.9867
vt 0.4197 0.9867
vt 0.2830 0.9867
vt 0.2543 0.9867
vt 0.8137 0.9867
vt 0.8002 0.9867
vt 0.5272 0.9867
vt 0.8378 0.9867
vt 0.8262 0.9867
vt 0.7861 0.9867
vt 0.7624 0.9867
vt 0.6613 0.9867
vt 0.3125 0.9867
vt 0.2271 0.9867
vt 0.1996 0.9867
vt 0.0368 0.9867
vt 0.0232 0.9867
vt 0.6230 0.9867
vt 0.7359 0.9867
vt 0.1750 0.9867
vt 0.0490 0.9198
vt 0.0368 0.9198
vt 0.0368 0.9101
vt 0.0490 0.9101
vt 0.5846 0.9198
vt 0.5541 0.9198
vt 0.5541 0.9101
vt 0.5846 0.9101
vt 0.6230 0.9198
vt 0.6230 0.9101
vt 0.2543 0.9198
vt 0.2271 0.9198
vt 0.2271 0.9101
vt 0.2543 0.9101
vt 0.4466 0.9198
vt 0.4197 0.9198
vt 0.4197 0.9101
vt 0.4466 0.9101
vt 0.4868 0.9198
vt 0.4700 0.9198
vt 0.4700 0.9101
vt 0.4867 0.9101
vt 0.3508 0.9198
vt 0.3125 0.9198
vt 0.3125 0.9101
vt 0.3508 0.9101
vt 0.8378 0.9198
vt 0.8262 0.9198
vt 0.8262 0.9101
vt 0.8378 0.9101
vt 0.2830 0.9198
vt 0.2830 0.9101
vt 0.1298 0.9198
vt 0.1144 0.9198
vt 0.1144 0.9101
vt 0.1298 0.9101
vt 0.8489 0.9198
vt 0.8489 0.9101
vt 0.0728 0.9198
vt 0.0605 0.9198
vt 0.0605 0.9101
vt 0.0728 0.9101
vt 0.6908 0.9198
vt 0.6613 0.9198
vt 0.6613 0.9101
vt 0.6908 0.9101
vt 0.1020 0.9198
vt 0.0879 0.9198
vt 0.0879 0.9101
vt 0.1020 0.9101
vt 0.8137 0.9198
vt 0.8137 0.9101
vt 0.8810 0.9198
vt 0.8705 0.9198
vt 0.8705 0.9101
vt 0.8810 0.9101
vt 0.0232 0.9198
vt 0.0232 0.9101
vt 0.3892 0.9198
vt 0.3892 0.9101
vt 0.7861 0.9198
vt 0.7624 0.9198
vt 0.7624 0.9101
vt 0.7861 0.9101
vt 0.8917 0.9198
vt 0.8917 0.9101
vt 0.1996 0.9198
vt 0.1750 0.9198
vt 0.1750 0.9101
vt 0.1996 0.9101
vt 0.7359 0.9198
vt 0.7117 0.9198
vt 0.7117 0.9101
vt 0.7359 0.9101
vt 0.5272 0.9198
vt 0.5272 0.9101
vt 0.1501 0.9198
vt 0.1501 0.9101
vt 0.8002 0.9198
vt 0.8002 0.9101
vt 0.5039 0.9198
vt 0.5039 0.9101
vt 0.8601 0.9198
vt 0.8601 0.9101
vt 0.9033 0.9198
vt 0.9033 0.9101
vt 0.6582 0.4651
vt 0.6483 0.4589
vt 0.6613 0.4360
vt 0.6728 0.4430
vt 0.5871 0.4426
vt 0.5677 0.4409
vt 0.5764 0.4176
vt 0.5973 0.4194
vt 0.3040 0.5033
vt 0.2995 0.5087
vt 0.2781 0.4911
vt 0.2831 0.4850
vt 0.7060 0.5190
vt 0.7039 0.5163
vt 0.7257 0.4996
vt 0.7284 0.5031
vt 0.3261 0.4773
vt 0.3196 0.4847
vt 0.3015 0.4648
vt 0.3092 0.4566
vt 0.2954 0.5137
vt 0.2737 0.4969
vt 0.5485 0.4393
vt 0.5334 0.4380
vt 0.5380 0.4152
vt 0.5551 0.4165
vt 0.3416 0.4631
vt 0.3335 0.4700
vt 0.3183 0.4485
vt 0.3273 0.4408
vt 0.3087 0.4977
vt 0.2888 0.4790
vt 0.6238 0.4499
vt 0.6124 0.4469
vt 0.6238 0.4238
vt 0.6356 0.4267
vt 0.2916 0.5188
vt 0.2700 0.5017
vt 0.6368 0.4537
vt 0.6491 0.4306
vt 0.3631 0.4519
vt 0.3516 0.4570
vt 0.3389 0.4340
vt 0.3511 0.4287
vt 0.4516 0.4387
vt 0.4324 0.4400
vt 0.4240 0.4165
vt 0.4453 0.4157
vt 0.4130 0.4414
vt 0.4031 0.4181
vt 0.6907 0.5001
vt 0.6857 0.4940
vt 0.7048 0.4750
vt 0.7108 0.4816
vt 0.6954 0.5057
vt 0.7164 0.4877
vt 0.3979 0.4436
vt 0.3872 0.4203
vt 0.6735 0.4795
vt 0.6663 0.4721
vt 0.6817 0.4508
vt 0.6906 0.4590
vt 0.3138 0.4917
vt 0.2949 0.4724
vt 0.6800 0.4870
vt 0.6982 0.4672
vt 0.4800 0.4368
vt 0.4668 0.4375
vt 0.4624 0.4146
vt 0.4774 0.4136
vt 0.6998 0.5112
vt 0.7214 0.4939
vt 0.5202 0.4371
vt 0.5231 0.4139
vt 0.5001 0.4366
vt 0.4916 0.4366
vt 0.4906 0.4134
vt 0.5002 0.4134
vt 0.3762 0.4483
vt 0.3646 0.4250
vt 0.5086 0.4367
vt 0.5099 0.4135
vt 0.3876 0.4455
vt 0.3765 0.4222
vt 0.6022 0.4449
vt 0.6131 0.4217
vt 0.4899 0.3875
vt 0.5004 0.3875
vt 0.3325 0.4056
vt 0.3483 0.4012
vt 0.5110 0.3876
vt 0.3622 0.3978
vt 0.3747 0.3953
vt 0.6259 0.3970
vt 0.6384 0.3996
vt 0.6076 0.3939
vt 0.4756 0.3876
vt 0.5253 0.3880
vt 0.4404 0.3888
vt 0.4592 0.3880
vt 0.3050 0.4186
vt 0.3186 0.4113
vt 0.6820 0.4136
vt 0.6955 0.4211
vt 0.5840 0.3912
vt 0.2537 0.4716
vt 0.2591 0.4651
vt 0.7507 0.4808
vt 0.7542 0.4853
vt 0.2783 0.4431
vt 0.2861 0.4344
vt 0.2489 0.4778
vt 0.5416 0.3887
vt 0.5604 0.3897
vt 0.2952 0.4264
vt 0.2650 0.4584
vt 0.6522 0.4031
vt 0.2448 0.4831
vt 0.6680 0.4077
vt 0.4168 0.3901
vt 0.3930 0.3924
vt 0.7286 0.4541
vt 0.7348 0.4613
vt 0.7406 0.4680
vt 0.7051 0.4291
vt 0.7137 0.4375
vt 0.2713 0.4513
vt 0.7216 0.4459
vt 0.7459 0.4746
vt 0.7587 0.4408
vt 0.7650 0.4478
vt 0.3628 0.3697
vt 0.3835 0.3661
vt 0.7252 0.4087
vt 0.7348 0.4172
vt 0.2413 0.4377
vt 0.2482 0.4302
vt 0.7437 0.4256
vt 0.7516 0.4335
vt 0.6865 0.3852
vt 0.7016 0.3921
vt 0.4556 0.3601
vt 0.4735 0.3596
vt 0.7709 0.4547
vt 0.5279 0.3600
vt 0.5460 0.3609
vt 0.2561 0.4220
vt 0.7761 0.4611
vt 0.7145 0.4002
vt 0.4887 0.3595
vt 0.5007 0.3595
vt 0.3144 0.3829
vt 0.3305 0.3777
vt 0.5126 0.3597
vt 0.3473 0.3731
vt 0.6381 0.3715
vt 0.6533 0.3751
vt 0.6175 0.3677
vt 0.4346 0.3611
vt 0.2865 0.3973
vt 0.2999 0.3894
vt 0.5918 0.3642
vt 0.2290 0.4515
vt 0.2349 0.4447
vt 0.7835 0.4639
vt 0.2652 0.4136
vt 0.2237 0.4578
vt 0.5666 0.3621
vt 0.2752 0.4053
vt 0.6692 0.3795
vt 0.2164 0.4603
vt 0.4092 0.3630
vt 0.2334 0.4300
vt 0.2270 0.4372
vt 0.2087 0.4184
vt 0.2145 0.4106
vt 0.6740 0.3701
vt 0.6576 0.3653
vt 0.6665 0.3400
vt 0.6837 0.3453
vt 0.2693 0.3967
vt 0.2584 0.4053
vt 0.2425 0.3838
vt 0.2569 0.3740
vt 0.2148 0.4510
vt 0.2115 0.4610
vt 0.1872 0.4412
vt 0.1941 0.4330
vt 0.6918 0.3761
vt 0.7026 0.3524
vt 0.5944 0.3538
vt 0.5685 0.3515
vt 0.5728 0.3247
vt 0.6000 0.3273
vt 0.3091 0.3736
vt 0.2941 0.3805
vt 0.2806 0.3569
vt 0.2975 0.3497
vt 0.4328 0.3505
vt 0.4070 0.3525
vt 0.4022 0.3258
vt 0.4292 0.3233
vt 0.3811 0.3561
vt 0.3768 0.3307
vt 0.7666 0.4332
vt 0.7594 0.4257
vt 0.7779 0.4056
vt 0.7855 0.4137
vt 0.7729 0.4404
vt 0.7910 0.4216
vt 0.3593 0.3596
vt 0.3519 0.3337
vt 0.7418 0.4091
vt 0.7319 0.4004
vt 0.7476 0.3780
vt 0.7578 0.3874
vt 0.2405 0.4224
vt 0.2223 0.4025
vt 0.7511 0.4176
vt 0.7687 0.3966
vt 0.7075 0.3833
vt 0.7204 0.3598
vt 0.4728 0.3488
vt 0.4544 0.3493
vt 0.4521 0.3222
vt 0.4714 0.3215
vt 0.7793 0.4474
vt 0.7993 0.4291
vt 0.5473 0.3505
vt 0.5287 0.3493
vt 0.5305 0.3221
vt 0.5497 0.3243
vt 0.2488 0.4140
vt 0.2315 0.3936
vt 0.7851 0.4543
vt 0.8059 0.4365
vt 0.7208 0.3916
vt 0.7353 0.3687
vt 0.5008 0.3488
vt 0.4884 0.3488
vt 0.4880 0.3214
vt 0.5010 0.3216
vt 0.3258 0.3686
vt 0.3174 0.3460
vt 0.5131 0.3489
vt 0.5140 0.3216
vt 0.3431 0.3632
vt 0.3350 0.3378
vt 0.6418 0.3616
vt 0.6499 0.3361
vt 0.6204 0.3577
vt 0.6269 0.3329
vt 0.2805 0.3885
vt 0.2661 0.3656
vt 0.2206 0.4442
vt 0.2006 0.4257
vt 0.7884 0.4645
vt 0.8126 0.4447
vt 0.5160 0.2821
vt 0.5337 0.2826
vt 0.4234 0.2844
vt 0.4468 0.2836
vt 0.2460 0.3333
vt 0.2620 0.3234
vt 0.7377 0.3265
vt 0.7545 0.3358
vt 0.6089 0.2890
vt 0.6366 0.2954
vt 0.1718 0.4000
vt 0.1809 0.3922
vt 0.8346 0.4106
vt 0.8418 0.4197
vt 0.2076 0.3640
vt 0.2197 0.3537
vt 0.1648 0.4077
vt 0.5542 0.2849
vt 0.5799 0.2858
vt 0.2355 0.3434
vt 0.1884 0.3825
vt 0.6803 0.3038
vt 0.6986 0.3102
vt 0.1576 0.4168
vt 0.7184 0.3194
vt 0.2809 0.3152
vt 0.3947 0.2871
vt 0.3683 0.2927
vt 0.8023 0.3761
vt 0.8110 0.3849
vt 0.8181 0.3944
vt 0.3405 0.2964
vt 0.7676 0.3457
vt 0.7772 0.3557
vt 0.1972 0.3736
vt 0.7913 0.3663
vt 0.4693 0.2821
vt 0.8276 0.4028
vt 0.4876 0.2819
vt 0.5018 0.2827
vt 0.3034 0.3097
vt 0.3225 0.3010
vt 0.6624 0.2993
vt 0.1707 0.3412
vt 0.1821 0.3308
vt 0.8590 0.3748
vt 0.8661 0.3834
vt 0.7752 0.2995
vt 0.7898 0.3103
vt 0.4866 0.2387
vt 0.5022 0.2398
vt 0.2623 0.2774
vt 0.2878 0.2706
vt 0.5178 0.2390
vt 0.3089 0.2610
vt 0.3280 0.2559
vt 0.6757 0.2594
vt 0.6953 0.2646
vt 0.6462 0.2543
vt 0.4667 0.2391
vt 0.5365 0.2397
vt 0.4168 0.2419
vt 0.4403 0.2412
vt 0.2250 0.2969
vt 0.2421 0.2863
vt 0.7574 0.2897
vt 0.6177 0.2474
vt 0.1403 0.3721
vt 0.1506 0.3632
vt 0.8734 0.3942
vt 0.1948 0.3200
vt 0.1333 0.3805
vt 0.5583 0.2425
vt 0.5869 0.2437
vt 0.2110 0.3096
vt 0.1609 0.3508
vt 0.7152 0.2717
vt 0.1260 0.3913
vt 0.7366 0.2823
vt 0.3867 0.2451
vt 0.3588 0.2512
vt 0.8289 0.3437
vt 0.8385 0.3533
vt 0.8482 0.3653
vt 0.8015 0.3222
vt 0.8171 0.3334
vt 0.3785 0.2020
vt 0.4095 0.1985
vt 0.3490 0.2087
vt 0.8559 0.3102
vt 0.8663 0.3206
vt 0.8787 0.3350
vt 0.3154 0.2142
vt 0.8123 0.2729
vt 0.8273 0.2872
vt 0.1334 0.3179
vt 0.1441 0.3074
vt 0.8438 0.2993
vt 0.7557 0.2430
vt 0.7783 0.2512
vt 0.4335 0.1978
vt 0.4643 0.1951
vt 0.8916 0.3466
vt 0.5394 0.1958
vt 0.5627 0.1990
vt 0.1560 0.2963
vt 0.8990 0.3555
vt 0.7968 0.2615
vt 0.4854 0.1947
vt 0.5026 0.1958
vt 0.2429 0.2384
vt 0.2718 0.2303
vt 0.5199 0.1951
vt 0.2951 0.2197
vt 0.6893 0.2181
vt 0.7107 0.2239
vt 0.6560 0.2119
vt 0.2035 0.2589
vt 0.2215 0.2477
vt 0.6264 0.2046
vt 0.1077 0.3439
vt 0.1201 0.3330
vt 0.9071 0.3680
vt 0.1688 0.2851
vt 0.1004 0.3526
vt 0.5941 0.2007
vt 0.1855 0.2741
vt 0.7321 0.2316
vt 0.0924 0.3651
vt 0.0668 0.3241
vt 0.0745 0.3152
vt 0.5676 0.1546
vt 0.6018 0.1570
vt 0.1600 0.2375
vt 0.1823 0.2199
vt 0.0893 0.3021
vt 0.1053 0.2843
vt 0.7263 0.1817
vt 0.7490 0.1899
vt 0.1420 0.2496
vt 0.0571 0.3380
vt 0.7748 0.2021
vt 0.6354 0.1610
vt 0.2013 0.2081
vt 0.2238 0.1982
vt 0.3697 0.1583
vt 0.4013 0.1547
vt 0.3386 0.1651
vt 0.8839 0.2759
vt 0.8949 0.2871
vt 0.9097 0.3040
vt 0.3025 0.1715
vt 0.8349 0.2346
vt 0.8536 0.2513
vt 0.1166 0.2730
vt 0.8715 0.2646
vt 0.7993 0.2116
vt 0.4267 0.1533
vt 0.4618 0.1507
vt 0.9249 0.3178
vt 0.5426 0.1517
vt 0.1290 0.2612
vt 0.9328 0.3270
vt 0.8185 0.2224
vt 0.4838 0.1503
vt 0.5032 0.1510
vt 0.2556 0.1888
vt 0.5226 0.1508
vt 0.2811 0.1774
vt 0.7033 0.1755
vt 0.6664 0.1682
vt 0.9424 0.3410
vt 0.7166 0.1388
vt 0.7406 0.1453
vt 0.6765 0.1306
vt 0.4591 0.1132
vt 0.4824 0.1127
vt 0.5251 0.1133
vt 0.5460 0.1142
vt 0.3933 0.1177
vt 0.4202 0.1161
vt 0.1645 0.1865
vt 0.1841 0.1740
vt 0.8176 0.1775
vt 0.8370 0.1889
vt 0.6446 0.1238
vt 0.0469 0.2898
vt 0.0638 0.2761
vt 0.9612 0.3015
vt 0.9727 0.3165
vt 0.1055 0.2310
vt 0.1188 0.2196
vt 0.0386 0.2985
vt 0.5726 0.1169
vt 0.6094 0.1196
vt 0.1386 0.2062
vt 0.0806 0.2558
vt 0.7641 0.1539
vt 0.0271 0.3135
vt 0.7916 0.1670
vt 0.2071 0.1638
vt 0.3606 0.1212
vt 0.3283 0.1278
vt 0.9085 0.2467
vt 0.9198 0.2588
vt 0.9355 0.2780
vt 0.2899 0.1352
vt 0.8543 0.2018
vt 0.8759 0.2208
vt 0.0924 0.2433
vt 0.8956 0.2351
vt 0.9527 0.2923
vt 0.5037 0.1134
vt 0.2413 0.1535
vt 0.2682 0.1414
vt 0.4158 0.0833
vt 0.4560 0.0799
vt 0.9590 0.2542
vt 0.9758 0.2687
vt 0.5485 0.0809
vt 0.5765 0.0834
vt 0.0705 0.2177
vt 0.0843 0.2049
vt 0.9851 0.2783
vt 0.8531 0.1596
vt 0.8726 0.1740
vt 0.4816 0.0793
vt 0.5043 0.0800
vt 0.1950 0.1330
vt 0.2295 0.1216
vt 0.5269 0.0800
vt 0.2575 0.1101
vt 0.2807 0.1030
vt 0.7254 0.1063
vt 0.7518 0.1134
vt 0.6846 0.0976
vt 0.3867 0.0850
vt 0.1479 0.1578
vt 0.1700 0.1439
vt 0.8321 0.1476
vt 0.6510 0.0908
vt 0.0240 0.2662
vt 0.0404 0.2524
vt 0.9952 0.2952
vt 0.0989 0.1934
vt 0.0150 0.2752
vt 0.6151 0.0864
vt 0.1196 0.1784
vt 0.0574 0.2321
vt 0.7764 0.1226
vt 0.0057 0.2919
vt 0.8052 0.1356
vt 0.3545 0.0883
vt 0.3201 0.0949
vt 0.9305 0.2215
vt 0.9430 0.2351
vt 0.8961 0.1938
vt 0.9162 0.2093
vt 0.9166 0.9784
vt 0.9166 0.9505
vt 0.9278 0.9616
vt 0.9278 0.9784
vt 0.9166 0.9505
vt 0.9166 0.9198
vt 0.9278 0.9198
vt 0.9278 0.9378
vt 0.9166 0.9867
vt 0.9278 0.9867
vt 0.9531 0.9616
vt 0.9531 0.9784
vt 0.9531 0.9198
vt 0.9531 0.9378
vt 0.9531 0.9867
vt 0.9690 0.9784
vt 0.9690 0.9505
vt 0.9804 0.9505
vt 0.9804 0.9784
vt 0.9690 0.9198
vt 0.9804 0.9198
vt 0.9656 0.9867
vt 0.9903 0.9784
vt 0.9903 0.9505
vt 0.9903 0.9198
vt 0.9278 0.9101
vt 0.9531 0.9101
vt 0.9704 0.9103
vt 0.9251 0.9505
vt 0.9278 0.9562
vt 0.9531 0.9562
vt 0.9531 0.9424
vt 0.9278 0.9424
vt 0.9606 0.9505
vt 0.9425 0.8611
vt 0.9545 0.8605
vt 0.9546 0.8895
vt 0.9426 0.8783
vt 0.9426 0.8453
vt 0.9544 0.8346
vt 0.9582 0.8620
vt 0.9585 0.8931
vt 0.9583 0.8305
vt 0.9582 0.8586
vt 0.9739 0.8284
vt 0.9739 0.8592
vt 0.9739 0.8625
vt 0.9740 0.8968
vt 0.9780 0.8610
vt 0.9774 0.8972
vt 0.9166 0.9101
vt 0.9780 0.8611
vt 0.9780 0.8281
vt 0.0103 0.9505
vt 0.0103 0.9198
vt 0.0103 0.9867
vt 0.0103 0.9784
vt 0.0163 0.6523
vt 0.0163 0.7713
vt 0.0215 0.7713
vt 0.0215 0.6523
vt 0.0494 0.8298
vt 0.0494 0.7713
vt 0.0446 0.7713
vt 0.0446 0.8298
vt 0.0494 0.6523
vt 0.0446 0.6523
vt 0.0494 0.5131
vt 0.0446 0.5131
vt 0.0163 0.5131
vt 0.0215 0.5131
vt 0.0163 0.8298
vt 0.0163 0.8884
vt 0.0215 0.8884
vt 0.0215 0.8298
vt 0.7858 0.4662
vt 0.7838 0.4650
vt 0.2160 0.4616
vt 0.2137 0.4631
vt 0.0334 0.6523
vt 0.0334 0.5131
vt 0.0334 0.7713
vt 0.0334 0.8298
vt 0.0215 0.8298
vt 0.7505 0.6450
vt 0.7521 0.6441
vt 0.7604 0.6501
vt 0.7497 0.6538
vt 0.7519 0.6424
vt 0.7625 0.6376
vt 0.7507 0.6414
vt 0.7519 0.6285
vt 0.7493 0.6420
vt 0.7400 0.6358
vt 0.7152 0.6427
vt 0.7149 0.6410
vt 0.7244 0.6354
vt 0.7242 0.6481
vt 0.7490 0.6438
vt 0.7393 0.6485
vt 0.7136 0.6437
vt 0.7136 0.6526
vt 0.7136 0.6402
vt 0.7134 0.6271
vt 0.7123 0.6408
vt 0.7022 0.6355
vt 0.7121 0.6425
vt 0.7034 0.6480
vt 0.7480 0.6803
vt 0.7496 0.6794
vt 0.7571 0.6851
vt 0.7473 0.6888
vt 0.7495 0.6779
vt 0.7592 0.6735
vt 0.7482 0.6772
vt 0.7491 0.6658
vt 0.7468 0.6777
vt 0.7382 0.6718
vt 0.7148 0.6781
vt 0.7147 0.6765
vt 0.7237 0.6713
vt 0.7230 0.6831
vt 0.7465 0.6792
vt 0.7382 0.6835
vt 0.7132 0.6790
vt 0.7134 0.6876
vt 0.7133 0.6760
vt 0.7134 0.6646
vt 0.7119 0.6765
vt 0.7028 0.6715
vt 0.7117 0.6781
vt 0.7036 0.6833
vt 0.7288 0.7355
vt 0.7292 0.7203
vt 0.7436 0.7190
vt 0.7463 0.7341
vt 0.7572 0.7146
vt 0.7633 0.7291
vt 0.7699 0.7071
vt 0.7794 0.7202
vt 0.7809 0.6965
vt 0.7936 0.7074
vt 0.7892 0.6832
vt 0.8047 0.6910
vt 0.7940 0.6680
vt 0.8117 0.6717
vt 0.7947 0.6509
vt 0.8139 0.6499
vt 0.7907 0.6335
vt 0.8099 0.6269
vt 0.7816 0.6175
vt 0.7988 0.6045
vt 0.7684 0.6038
vt 0.7802 0.5875
vt 0.7517 0.5954
vt 0.7588 0.5761
vt 0.7333 0.5919
vt 0.7346 0.5711
vt 0.7148 0.5940
vt 0.7098 0.5736
vt 0.6974 0.6015
vt 0.6865 0.5834
vt 0.6828 0.6138
vt 0.6675 0.5999
vt 0.6727 0.6294
vt 0.6546 0.6207
vt 0.6674 0.6466
vt 0.6482 0.6432
vt 0.6669 0.6640
vt 0.6482 0.6657
vt 0.6708 0.6798
vt 0.6537 0.6866
vt 0.6780 0.6940
vt 0.6648 0.7039
vt 0.6887 0.7052
vt 0.6781 0.7176
vt 0.7014 0.7132
vt 0.6940 0.7279
vt 0.7217 0.7851
vt 0.7117 0.7906
vt 0.7087 0.7600
vt 0.7234 0.7543
vt 0.7150 0.7187
vt 0.7115 0.7333
vt 0.7108 0.8364
vt 0.7206 0.8423
vt 0.7210 0.8717
vt 0.7065 0.8653
vt 0.7553 0.8430
vt 0.7653 0.8375
vt 0.7673 0.8665
vt 0.7525 0.8723
vt 0.7662 0.7918
vt 0.7564 0.7859
vt 0.7549 0.7549
vt 0.7694 0.7613
vt 0.7800 0.8572
vt 0.7900 0.8448
vt 0.6941 0.8554
vt 0.6847 0.8426
vt 0.6959 0.7694
vt 0.6860 0.7818
vt 0.7818 0.7712
vt 0.7912 0.7840
vt 0.7655 0.8261
vt 0.7557 0.8202
vt 0.7987 0.8146
vt 0.7963 0.8302
vt 0.7210 0.8195
vt 0.7110 0.8250
vt 0.6789 0.8278
vt 0.6772 0.8120
vt 0.7560 0.8087
vt 0.7660 0.8032
vt 0.7970 0.7988
vt 0.7987 0.8146
vt 0.7115 0.8020
vt 0.7213 0.8079
vt 0.6772 0.8120
vt 0.6796 0.7964
vt 0.7455 0.8371
vt 0.7367 0.8741
vt 0.7305 0.8368
vt 0.7367 0.8741
vt 0.7465 0.7914
vt 0.7392 0.7525
vt 0.7315 0.7910
vt 0.7392 0.7525
vt 0.7380 0.8133
vt 0.7380 0.8133
vt 0.7380 0.8133
vt 0.7380 0.8133
vt 0.7462 0.8027
vt 0.7312 0.8024
vt 0.7308 0.8254
vt 0.7458 0.8257
vt 0.7308 0.6609
vt 0.9477 0.2307
vt 0.9651 0.2505
vt 0.2798 0.0955
vt 0.3201 0.0861
vt 0.8766 0.1699
vt 0.9009 0.1878
vt 0.0524 0.2274
vt 0.0662 0.2119
vt 0.9198 0.2037
vt 0.9337 0.2163
vt 0.8109 0.1283
vt 0.8345 0.1409
vt 0.4160 0.0754
vt 0.4556 0.0732
vt 0.9804 0.2633
vt 0.5508 0.0749
vt 0.5764 0.0769
vt 0.0793 0.1985
vt 0.9911 0.2751
vt 0.8558 0.1536
vt 0.4841 0.0720
vt 0.5043 0.0729
vt 0.1931 0.1258
vt 0.2265 0.1147
vt 0.5268 0.0721
vt 0.2543 0.1040
vt 0.7282 0.0993
vt 0.7552 0.1078
vt 0.6870 0.0908
vt 0.3872 0.0771
vt 0.1449 0.1529
vt 0.1677 0.1377
vt 0.6530 0.0835
vt 0.0206 0.2627
vt 0.0364 0.2465
vt 0.9973 0.2914
vt 0.0955 0.1886
vt 0.0101 0.2709
vt 0.6160 0.0788
vt 0.1170 0.1719
vt 0.7780 0.1169
vt 0.0027 0.2871
vt 0.3545 0.0810
vt 0.0334 0.8884
vt 0.0446 0.8884
vt 0.0494 0.8884
vt 0.3532 0.4599
vt 0.3434 0.4659
vt 0.4673 0.4403
vt 0.4524 0.4415
vt 0.5198 0.4399
vt 0.5084 0.4395
vt 0.4917 0.4394
vt 0.4803 0.4396
vt 0.6008 0.4479
vt 0.5858 0.4455
vt 0.6110 0.4499
vt 0.3890 0.4484
vt 0.3776 0.4512
vt 0.3993 0.4465
vt 0.5001 0.4395
vt 0.3646 0.4549
vt 0.6644 0.4748
vt 0.6564 0.4679
vt 0.7012 0.5183
vt 0.6971 0.5133
vt 0.3218 0.4872
vt 0.3162 0.4940
vt 0.5328 0.4408
vt 0.6927 0.5079
vt 0.6467 0.4617
vt 0.6353 0.4566
vt 0.6777 0.4895
vt 0.6714 0.4821
vt 0.6833 0.4964
vt 0.3112 0.5000
vt 0.4143 0.4444
vt 0.6882 0.5024
vt 0.4335 0.4429
vt 0.5666 0.4438
vt 0.5477 0.4422
vt 0.6223 0.4528
vt 0.2980 0.5158
vt 0.2943 0.5208
vt 0.3353 0.4727
vt 0.3282 0.4799
vt 0.3066 0.5055
vt 0.3021 0.5109
vt 0.7032 0.5208
f 13/1 16/2 4/3 3/4
f 4/3 8/5 7/6 3/4
f 16/2 20/7 8/5 4/3
f 1/8 5/9 6/10 2/11
f 14/12 18/13 5/9 1/8
f 20/7 24/14 12/15 8/5
f 18/13 22/16 9/17 5/9
f 1/8 2/11 15/18 14/12
f 14/12 15/18 16/2 13/1
f 2/11 6/10 19/19 15/18
f 15/18 19/19 20/7 16/2
f 3/4 7/6 17/20 13/1
f 13/1 17/20 18/13 14/12
f 6/10 10/21 23/22 19/19
f 19/19 23/22 24/14 20/7
f 7/6 11/23 21/24 17/20
f 17/20 21/24 22/16 18/13
f 23/22 35/25 36/26 24/14
f 10/21 30/27 35/25 23/22
f 21/24 33/28 34/29 22/16
f 11/23 31/30 33/28 21/24
f 9/17 29/31 25/32 5/9
f 7/6 27/33 31/30 11/23
f 12/15 32/34 28/35 8/5
f 6/10 26/36 30/27 10/21
f 24/14 36/26 32/34 12/15
f 22/16 34/29 29/31 9/17
f 8/5 28/35 27/33 7/6
f 6/10 5/9 25/32 26/36
f 45/37 46/38 38/39 37/40
f 46/38 47/41 39/42 38/39
f 47/41 48/43 40/44 39/42
f 48/45 45/46 37/47 40/48
f 37/40 38/39 39/42 40/44
f 44/49 43/50 42/51 41/52
f 41/52 42/51 46/38 45/37
f 55/53 54/54 49/55 56/56
f 43/50 44/49 48/43 47/41
f 50/57 49/55 54/54 51/58
f 49/59 50/60 41/61 45/62
f 52/63 51/64 42/51 43/50
f 50/60 53/65 44/66 41/61
f 51/58 54/54 46/38 42/51
f 55/67 52/63 43/50 47/41
f 53/65 56/68 48/69 44/66
f 54/54 55/53 47/41 46/38
f 56/68 49/59 45/62 48/69
f 52/63 55/67 56/56 53/70
f 51/64 52/63 53/70 50/57
f 80/71 69/72 70/73 79/74
f 82/75 59/76 57/77 81/78
f 79/74 70/73 58/79 83/80
f 83/80 58/79 59/76 82/75
f 96/81 72/82 68/83 91/84
f 91/84 68/83 73/85 94/86
f 95/87 60/88 72/82 96/81
f 98/89 76/90 75/91 97/92
f 98/89 99/93 74/94 76/90
f 93/95 77/96 74/94 99/93
f 81/78 57/77 77/96 93/95
f 65/97 86/98 85/99 64/100
f 66/101 87/102 86/98 65/97
f 67/103 88/104 87/102 66/101
f 62/105 90/106 89/107 61/108
f 63/109 92/110 90/106 62/105
f 64/100 85/99 92/110 63/109
f 60/88 95/87 97/92 75/91
f 78/111 69/72 80/71 100/112
f 71/113 78/111 100/112 84/114
f 61/108 89/107 71/113 84/114
f 122/115 121/116 113/117 112/118
f 124/119 123/120 101/121 103/122
f 121/116 125/123 102/124 113/117
f 125/123 124/119 103/122 102/124
f 136/125 132/126 111/127 115/128
f 132/126 94/86 73/85 111/127
f 135/129 136/125 115/128 104/130
f 138/131 137/132 117/133 118/134
f 138/131 118/134 116/135 139/136
f 134/137 139/136 116/135 119/138
f 123/120 134/137 119/138 101/121
f 109/139 108/140 127/141 128/142
f 110/143 109/139 128/142 129/144
f 687/145 110/143 129/144 688/146
f 106/147 105/148 130/149 131/150
f 107/151 106/147 131/150 133/152
f 108/140 107/151 133/152 127/141
f 104/130 117/133 137/132 135/129
f 120/153 140/154 122/115 112/118
f 114/155 126/156 140/154 120/153
f 105/148 126/156 114/155 130/149
f 135/129 137/132 179/157 177/158
f 110/143 687/145 689/159 168/160
f 63/109 62/105 142/161 143/162
f 65/97 64/100 144/163 145/164
f 134/137 123/120 171/165 176/166
f 96/81 91/84 154/167 158/168
f 109/139 110/143 168/160 167/169
f 62/105 61/108 141/170 142/161
f 84/114 100/112 162/171 153/172
f 108/140 109/139 167/169 166/173
f 98/89 97/92 159/174 160/175
f 106/147 107/151 165/176 164/177
f 100/112 80/71 149/178 162/171
f 94/86 132/126 175/179 156/180
f 91/84 94/86 156/180 154/167
f 107/151 108/140 166/173 165/176
f 97/92 95/87 157/181 159/174
f 95/87 96/81 158/168 157/181
f 81/78 93/95 155/182 150/183
f 122/115 140/154 182/184 170/185
f 132/126 136/125 178/186 175/179
f 105/148 106/147 164/177 163/187
f 126/156 105/148 163/187 174/188
f 125/123 121/116 169/189 173/190
f 139/136 134/137 176/166 181/191
f 93/95 99/93 161/192 155/182
f 83/80 82/75 151/193 152/194
f 67/103 66/101 146/195 147/196
f 137/132 138/131 180/197 179/157
f 123/120 124/119 172/198 171/165
f 61/108 84/114 153/172 141/170
f 138/131 139/136 181/191 180/197
f 82/75 81/78 150/183 151/193
f 66/101 65/97 145/164 146/195
f 121/116 122/115 170/185 169/189
f 136/125 135/129 177/158 178/186
f 79/74 83/80 152/194 148/199
f 99/93 98/89 160/175 161/192
f 124/119 125/123 173/190 172/198
f 80/71 79/74 148/199 149/178
f 64/100 63/109 143/162 144/163
f 140/154 126/156 174/188 182/184
f 646/200 645/201 200/202 199/203
f 648/204 647/205 208/206 215/207
f 649/208 648/204 215/207 216/209
f 651/210 650/211 185/212 183/213
f 653/214 652/215 186/216 191/217
f 655/218 654/219 187/220 192/221
f 657/222 656/223 193/224 195/225
f 659/226 658/227 212/228 222/229
f 660/230 651/210 183/213 196/231
f 656/223 660/230 196/231 193/224
f 662/232 661/233 190/234 197/235
f 663/236 659/226 222/229 223/237
f 665/238 664/239 198/240 204/241
f 667/242 666/243 214/244 217/245
f 669/246 668/247 203/248 202/249
f 658/227 670/250 218/251 212/228
f 672/252 671/253 219/254 220/255
f 645/201 690/256 201/257 200/202
f 652/215 674/258 194/259 186/216
f 654/219 653/214 191/217 187/220
f 676/260 675/261 206/262 211/263
f 677/264 672/252 220/255 221/265
f 679/266 678/267 189/268 184/269
f 666/243 649/208 216/209 214/244
f 681/270 680/271 205/272 207/273
f 647/205 682/274 213/275 208/206
f 678/267 683/276 188/277 189/268
f 670/250 684/278 210/279 218/251
f 661/233 669/246 202/249 190/234
f 675/261 681/270 207/273 206/262
f 685/280 655/218 192/221 209/281
f 683/276 662/232 197/235 188/277
f 674/258 657/222 195/225 194/259
f 680/271 667/242 217/245 205/272
f 686/282 663/236 223/237 224/283
f 671/253 686/282 224/283 219/254
f 682/274 685/280 209/281 213/275
f 684/278 676/260 211/263 210/279
f 668/247 665/238 204/241 203/248
f 664/239 646/200 199/203 198/240
f 673/284 677/264 221/265 730/285
f 650/211 679/266 184/269 185/212
f 928/286 927/287 253/288 252/289
f 930/290 929/291 258/292 256/293
f 932/294 931/295 241/296 240/297
f 934/298 933/299 263/300 729/301
f 936/302 935/303 244/304 232/305
f 931/295 937/306 242/307 241/296
f 939/308 938/309 250/310 257/311
f 941/312 940/313 239/314 230/315
f 942/316 932/294 240/297 246/317
f 944/318 943/319 247/320 249/321
f 940/313 936/302 232/305 239/314
f 937/306 969/322 243/323 242/307
f 945/324 944/318 249/321 248/325
f 929/291 939/308 257/311 258/292
f 947/326 946/327 231/328 226/329
f 949/330 948/331 237/332 236/333
f 948/331 950/334 235/335 237/332
f 952/336 951/337 265/338 266/339
f 953/340 952/336 266/339 261/341
f 950/334 954/342 238/343 235/335
f 956/344 955/345 260/346 254/347
f 957/348 942/316 246/317 245/349
f 951/337 958/350 264/351 265/338
f 958/350 956/344 254/347 264/351
f 927/287 945/324 248/325 253/288
f 960/352 959/353 228/354 233/355
f 961/356 953/340 261/341 262/357
f 938/309 962/358 255/359 250/310
f 935/303 957/348 245/349 244/304
f 933/299 961/356 262/357 263/300
f 955/345 928/286 252/289 260/346
f 964/360 963/361 229/362 234/363
f 965/364 947/326 226/329 227/365
f 966/366 964/360 234/363 251/367
f 954/342 967/368 225/369 238/343
f 967/368 965/364 227/365 225/369
f 943/319 968/370 259/371 247/320
f 968/370 930/290 256/293 259/371
f 963/361 960/352 233/355 229/362
f 962/358 966/366 251/367 255/359
f 959/353 949/330 236/333 228/354
f 946/327 941/312 230/315 231/328
f 234/363 229/362 271/372 276/373
f 227/365 226/329 268/374 269/375
f 251/367 234/363 276/373 293/376
f 238/343 225/369 267/377 280/378
f 225/369 227/365 269/375 267/377
f 247/320 259/371 301/379 289/380
f 259/371 256/293 298/381 301/379
f 229/362 233/355 275/382 271/372
f 255/359 251/367 293/376 297/383
f 228/354 236/333 278/384 270/385
f 231/328 230/315 272/386 273/387
f 252/289 253/288 295/388 294/389
f 256/293 258/292 300/390 298/381
f 240/297 241/296 283/391 282/392
f 729/301 263/300 305/393 731/394
f 232/305 244/304 286/395 274/396
f 241/296 242/307 284/397 283/391
f 257/311 250/310 292/398 299/399
f 230/315 239/314 281/400 272/386
f 246/317 240/297 282/392 288/401
f 249/321 247/320 289/380 291/402
f 239/314 232/305 274/396 281/400
f 242/307 243/323 285/403 284/397
f 248/325 249/321 291/402 290/404
f 258/292 257/311 299/399 300/390
f 226/329 231/328 273/387 268/374
f 236/333 237/332 279/405 278/384
f 237/332 235/335 277/406 279/405
f 266/339 265/338 307/407 308/408
f 261/341 266/339 308/408 303/409
f 235/335 238/343 280/378 277/406
f 254/347 260/346 302/410 296/411
f 245/349 246/317 288/401 287/412
f 265/338 264/351 306/413 307/407
f 264/351 254/347 296/411 306/413
f 253/288 248/325 290/404 295/388
f 233/355 228/354 270/385 275/382
f 262/357 261/341 303/409 304/414
f 250/310 255/359 297/383 292/398
f 244/304 245/349 287/412 286/395
f 263/300 262/357 304/414 305/393
f 260/346 252/289 294/389 302/410
f 303/409 308/408 350/415 345/416
f 277/406 280/378 322/417 319/418
f 296/411 302/410 344/419 338/420
f 287/412 288/401 330/421 329/422
f 307/407 306/413 348/423 349/424
f 306/413 296/411 338/420 348/423
f 295/388 290/404 332/425 337/426
f 275/382 270/385 312/427 317/428
f 304/414 303/409 345/416 346/429
f 292/398 297/383 339/430 334/431
f 286/395 287/412 329/422 328/432
f 305/393 304/414 346/429 347/433
f 302/410 294/389 336/434 344/419
f 276/373 271/372 313/435 318/436
f 269/375 268/374 310/437 311/438
f 293/376 276/373 318/436 335/439
f 280/378 267/377 309/440 322/417
f 267/377 269/375 311/438 309/440
f 289/380 301/379 343/441 331/442
f 301/379 298/381 340/443 343/441
f 271/372 275/382 317/428 313/435
f 297/383 293/376 335/439 339/430
f 270/385 278/384 320/444 312/427
f 273/387 272/386 314/445 315/446
f 294/389 295/388 337/426 336/434
f 298/381 300/390 342/447 340/443
f 282/392 283/391 325/448 324/449
f 731/394 305/393 347/433 732/450
f 274/396 286/395 328/432 316/451
f 283/391 284/397 326/452 325/448
f 299/399 292/398 334/431 341/453
f 272/386 281/400 323/454 314/445
f 288/401 282/392 324/449 330/421
f 291/402 289/380 331/442 333/455
f 281/400 274/396 316/451 323/454
f 284/397 285/403 327/456 326/452
f 290/404 291/402 333/455 332/425
f 300/390 299/399 341/453 342/447
f 268/374 273/387 315/446 310/437
f 278/384 279/405 321/457 320/444
f 279/405 277/406 319/418 321/457
f 308/408 307/407 349/424 350/415
f 734/458 733/459 366/460 372/461
f 736/462 735/463 373/464 375/465
f 738/466 737/467 358/468 365/469
f 740/470 739/471 369/472 368/473
f 741/474 736/462 375/465 374/475
f 743/476 742/477 383/478 384/479
f 745/480 744/481 357/482 352/483
f 747/484 746/485 363/486 362/487
f 746/485 748/488 361/489 363/486
f 750/490 749/491 391/492 392/493
f 751/494 750/490 392/493 387/495
f 748/488 752/496 364/497 361/489
f 754/498 753/499 386/500 380/501
f 755/502 734/458 372/461 371/503
f 749/491 756/504 390/505 391/492
f 756/504 754/498 380/501 390/505
f 757/506 741/474 374/475 379/507
f 759/508 758/509 354/510 359/511
f 760/512 751/494 387/495 388/513
f 762/514 761/515 381/516 376/517
f 763/518 755/502 371/503 370/519
f 764/520 760/512 388/513 389/521
f 753/499 765/522 378/523 386/500
f 767/524 766/525 355/526 360/527
f 768/528 745/480 352/483 353/529
f 769/530 767/524 360/527 377/531
f 752/496 770/532 351/533 364/497
f 770/532 768/528 353/529 351/533
f 735/463 771/534 385/535 373/464
f 771/534 772/536 382/537 385/535
f 766/525 759/508 359/511 355/526
f 761/515 769/530 377/531 381/516
f 758/509 747/484 362/487 354/510
f 744/481 773/538 356/539 357/482
f 765/522 757/506 379/507 378/523
f 772/536 743/476 384/479 382/537
f 733/459 774/540 367/541 366/460
f 739/542 764/520 389/521 369/543
f 737/467 763/518 370/519 358/468
f 774/540 740/470 368/473 367/541
f 742/477 762/514 376/517 383/478
f 773/538 738/466 365/469 356/539
f 381/516 377/531 419/544 423/545
f 354/510 362/487 404/546 396/547
f 357/482 356/539 398/548 399/549
f 378/523 379/507 421/550 420/551
f 382/537 384/479 426/552 424/553
f 366/460 367/541 409/554 408/555
f 369/543 389/521 431/556 411/557
f 358/468 370/519 412/558 400/559
f 367/541 368/473 410/560 409/554
f 383/478 376/517 418/561 425/562
f 356/539 365/469 407/563 398/548
f 372/461 366/460 408/555 414/564
f 375/465 373/464 415/565 417/566
f 365/469 358/468 400/559 407/563
f 368/473 369/472 411/567 410/560
f 374/475 375/465 417/566 416/568
f 384/479 383/478 425/562 426/552
f 352/483 357/482 399/549 394/569
f 362/487 363/486 405/570 404/546
f 363/486 361/489 403/571 405/570
f 392/493 391/492 433/572 434/573
f 387/495 392/493 434/573 429/574
f 361/489 364/497 406/575 403/571
f 380/501 386/500 428/576 422/577
f 371/503 372/461 414/564 413/578
f 391/492 390/505 432/579 433/572
f 390/505 380/501 422/577 432/579
f 379/507 374/475 416/568 421/550
f 359/511 354/510 396/547 401/580
f 388/513 387/495 429/574 430/581
f 376/517 381/516 423/545 418/561
f 370/519 371/503 413/578 412/558
f 389/521 388/513 430/581 431/556
f 386/500 378/523 420/551 428/576
f 360/527 355/526 397/582 402/583
f 353/529 352/483 394/569 395/584
f 377/531 360/527 402/583 419/544
f 364/497 351/533 393/585 406/575
f 351/533 353/529 395/584 393/585
f 373/464 385/535 427/586 415/565
f 385/535 382/537 424/553 427/586
f 355/526 359/511 401/580 397/582
f 412/558 413/578 455/587 454/588
f 431/556 430/581 472/589 473/590
f 428/576 420/551 462/591 470/592
f 402/583 397/582 439/593 444/594
f 395/584 394/569 436/595 437/596
f 419/544 402/583 444/594 461/597
f 406/575 393/585 435/598 448/599
f 393/585 395/584 437/596 435/598
f 415/565 427/586 469/600 457/601
f 427/586 424/553 466/602 469/600
f 397/582 401/580 443/603 439/593
f 423/545 419/544 461/597 465/604
f 396/547 404/546 446/605 438/606
f 399/549 398/548 440/607 441/608
f 420/551 421/550 463/609 462/591
f 424/553 426/552 468/610 466/602
f 408/555 409/554 451/611 450/612
f 411/557 431/556 473/590 453/613
f 400/559 412/558 454/588 442/614
f 409/554 410/560 452/615 451/611
f 425/562 418/561 460/616 467/617
f 398/548 407/563 449/618 440/607
f 414/564 408/555 450/612 456/619
f 417/566 415/565 457/601 459/620
f 407/563 400/559 442/614 449/618
f 410/560 411/567 453/621 452/615
f 416/568 417/566 459/620 458/622
f 426/552 425/562 467/617 468/610
f 394/569 399/549 441/608 436/595
f 404/546 405/570 447/623 446/605
f 405/570 403/571 445/624 447/623
f 434/573 433/572 475/625 476/626
f 429/574 434/573 476/626 471/627
f 403/571 406/575 448/599 445/624
f 422/577 428/576 470/592 464/628
f 413/578 414/564 456/619 455/587
f 433/572 432/579 474/629 475/625
f 432/579 422/577 464/628 474/629
f 421/550 416/568 458/622 463/609
f 401/580 396/547 438/606 443/603
f 430/581 429/574 471/627 472/589
f 418/561 423/545 465/604 460/616
f 446/605 447/623 489/630 488/631
f 447/623 445/624 487/632 489/630
f 476/626 475/625 517/633 518/634
f 471/627 476/626 518/634 513/635
f 445/624 448/599 490/636 487/632
f 464/628 470/592 512/637 506/638
f 455/587 456/619 498/639 497/640
f 475/625 474/629 516/641 517/633
f 474/629 464/628 506/638 516/641
f 463/609 458/622 500/642 505/643
f 443/603 438/606 480/644 485/645
f 472/589 471/627 513/635 514/646
f 460/616 465/604 507/647 502/648
f 454/588 455/587 497/640 496/649
f 473/590 472/589 514/646 515/650
f 470/592 462/591 504/651 512/637
f 444/594 439/593 481/652 486/653
f 437/596 436/595 478/654 479/655
f 461/597 444/594 486/653 503/656
f 448/599 435/598 477/657 490/636
f 435/598 437/596 479/655 477/657
f 457/601 469/600 511/658 499/659
f 469/600 466/602 508/660 511/658
f 439/593 443/603 485/645 481/652
f 465/604 461/597 503/656 507/647
f 438/606 446/605 488/631 480/644
f 441/608 440/607 482/661 483/662
f 462/591 463/609 505/643 504/651
f 466/602 468/610 510/663 508/660
f 450/612 451/611 493/664 492/665
f 453/613 473/590 515/650 495/666
f 442/614 454/588 496/649 484/667
f 451/611 452/615 494/668 493/664
f 467/617 460/616 502/648 509/669
f 440/607 449/618 491/670 482/661
f 456/619 450/612 492/665 498/639
f 459/620 457/601 499/659 501/671
f 449/618 442/614 484/667 491/670
f 452/615 453/621 495/672 494/668
f 458/622 459/620 501/671 500/642
f 468/610 467/617 509/669 510/663
f 436/595 441/608 483/662 478/654
f 493/664 494/668 536/673 535/674
f 509/669 502/648 544/675 551/676
f 482/661 491/670 533/677 524/678
f 498/639 492/665 534/679 540/680
f 501/671 499/659 541/681 543/682
f 491/670 484/667 526/683 533/677
f 494/668 495/672 537/684 536/673
f 500/642 501/671 543/682 542/685
f 510/663 509/669 551/676 552/686
f 478/654 483/662 525/687 520/688
f 488/631 489/630 531/689 530/690
f 489/630 487/632 529/691 531/689
f 518/634 517/633 559/692 560/693
f 513/635 518/634 560/693 555/694
f 487/632 490/636 532/695 529/691
f 506/638 512/637 554/696 548/697
f 497/640 498/639 540/680 539/698
f 517/633 516/641 558/699 559/692
f 516/641 506/638 548/697 558/699
f 505/643 500/642 542/685 547/700
f 485/645 480/644 522/701 527/702
f 514/646 513/635 555/694 556/703
f 502/648 507/647 549/704 544/675
f 496/649 497/640 539/698 538/705
f 515/650 514/646 556/703 557/706
f 512/637 504/651 546/707 554/696
f 486/653 481/652 523/708 528/709
f 479/655 478/654 520/688 521/710
f 503/656 486/653 528/709 545/711
f 490/636 477/657 519/712 532/695
f 477/657 479/655 521/710 519/712
f 499/659 511/658 553/713 541/681
f 511/658 508/660 550/714 553/713
f 481/652 485/645 527/702 523/708
f 507/647 503/656 545/711 549/704
f 480/644 488/631 530/690 522/701
f 483/662 482/661 524/678 525/687
f 504/651 505/643 547/700 546/707
f 508/660 510/663 552/686 550/714
f 492/665 493/664 535/674 534/679
f 495/666 515/650 557/706 537/715
f 484/667 496/649 538/705 526/683
f 541/681 553/713 595/716 583/717
f 553/713 550/714 592/718 595/716
f 523/708 527/702 569/719 565/720
f 549/704 545/711 587/721 591/722
f 522/701 530/690 572/723 564/724
f 525/687 524/678 566/725 567/726
f 546/707 547/700 589/727 588/728
f 550/714 552/686 594/729 592/718
f 534/679 535/674 577/730 576/731
f 537/715 557/706 599/732 579/733
f 526/683 538/705 580/734 568/735
f 535/674 536/673 578/736 577/730
f 551/676 544/675 586/737 593/738
f 524/678 533/677 575/739 566/725
f 540/680 534/679 576/731 582/740
f 543/682 541/681 583/717 585/741
f 533/677 526/683 568/735 575/739
f 536/673 537/684 579/742 578/736
f 542/685 543/682 585/741 584/743
f 552/686 551/676 593/738 594/729
f 520/688 525/687 567/726 562/744
f 530/690 531/689 573/745 572/723
f 531/689 529/691 571/746 573/745
f 560/693 559/692 601/747 602/748
f 555/694 560/693 602/748 597/749
f 529/691 532/695 574/750 571/746
f 548/697 554/696 596/751 590/752
f 539/698 540/680 582/740 581/753
f 559/692 558/699 600/754 601/747
f 558/699 548/697 590/752 600/754
f 547/700 542/685 584/743 589/727
f 527/702 522/701 564/724 569/719
f 556/703 555/694 597/749 598/755
f 544/675 549/704 591/722 586/737
f 538/705 539/698 581/753 580/734
f 557/706 556/703 598/755 599/732
f 554/696 546/707 588/728 596/751
f 528/709 523/708 565/720 570/756
f 521/710 520/688 562/744 563/757
f 545/711 528/709 570/756 587/721
f 532/695 519/712 561/758 574/750
f 519/712 521/710 563/757 561/758
f 569/719 564/724 606/759 611/760
f 598/755 597/749 639/761 640/762
f 586/737 591/722 633/763 628/764
f 580/734 581/753 623/765 622/766
f 599/732 598/755 640/762 641/767
f 596/751 588/728 630/768 638/769
f 570/756 565/720 607/770 612/771
f 563/757 562/744 604/772 605/773
f 587/721 570/756 612/771 629/774
f 574/750 561/758 603/775 616/776
f 561/758 563/757 605/773 603/775
f 583/717 595/716 637/777 625/778
f 595/716 592/718 634/779 637/777
f 565/720 569/719 611/760 607/770
f 591/722 587/721 629/774 633/763
f 564/724 572/723 614/780 606/759
f 567/726 566/725 608/781 609/782
f 588/728 589/727 631/783 630/768
f 592/718 594/729 636/784 634/779
f 576/731 577/730 619/785 618/786
f 579/733 599/732 641/767 621/787
f 568/735 580/734 622/766 610/788
f 577/730 578/736 620/789 619/785
f 593/738 586/737 628/764 635/790
f 566/725 575/739 617/791 608/781
f 582/740 576/731 618/786 624/792
f 585/741 583/717 625/778 627/793
f 575/739 568/735 610/788 617/791
f 578/736 579/742 621/794 620/789
f 584/743 585/741 627/793 626/795
f 594/729 593/738 635/790 636/784
f 562/744 567/726 609/782 604/772
f 572/723 573/745 615/796 614/780
f 573/745 571/746 613/797 615/796
f 602/748 601/747 643/798 644/799
f 597/749 602/748 644/799 639/761
f 571/746 574/750 616/776 613/797
f 590/752 596/751 638/769 632/800
f 581/753 582/740 624/792 623/765
f 601/747 600/754 642/801 643/798
f 600/754 590/752 632/800 642/801
f 589/727 584/743 626/795 631/783
f 59/76 58/79 679/266 650/211
f 688/146 129/144 677/264 673/284
f 85/99 86/98 646/200 664/239
f 90/106 92/110 665/238 668/247
f 112/118 113/117 676/260 684/278
f 115/128 111/127 685/280 682/274
f 127/141 133/152 686/282 671/253
f 133/152 131/150 663/236 686/282
f 101/121 119/138 667/242 680/271
f 75/91 76/90 657/222 674/258
f 69/72 78/111 662/232 683/276
f 111/127 73/85 655/218 685/280
f 102/124 103/122 681/270 675/261
f 71/113 89/107 669/246 661/233
f 120/153 112/118 684/278 670/250
f 70/73 69/72 683/276 678/267
f 104/130 115/128 682/274 647/205
f 103/122 101/121 680/271 681/270
f 116/135 118/134 649/208 666/243
f 58/79 70/73 678/267 679/266
f 129/144 128/142 672/252 677/264
f 113/117 102/124 675/261 676/260
f 68/83 72/82 653/214 654/219
f 60/88 75/91 674/258 652/215
f 87/102 88/104 690/256 645/201
f 128/142 127/141 671/253 672/252
f 114/155 120/153 670/250 658/227
f 89/107 90/106 668/247 669/246
f 119/138 116/135 666/243 667/242
f 92/110 85/99 664/239 665/238
f 131/150 130/149 659/226 663/236
f 78/111 71/113 661/233 662/232
f 74/94 77/96 660/230 656/223
f 77/96 57/77 651/210 660/230
f 130/149 114/155 658/227 659/226
f 76/90 74/94 656/223 657/222
f 73/85 68/83 654/219 655/218
f 72/82 60/88 652/215 653/214
f 57/77 59/76 650/211 651/210
f 118/134 117/133 648/204 649/208
f 117/133 104/130 647/205 648/204
f 86/98 87/102 645/201 646/200
f 708/802 707/803 693/804 692/805
f 707/806 709/807 691/808 716/809
f 710/810 708/802 692/805 694/811
f 692/805 693/804 697/812 696/813
f 716/809 691/808 695/814 717/815
f 694/811 692/805 696/813 698/816
f 712/817 711/818 701/819 700/820
f 711/818 713/821 699/822 701/819
f 714/823 712/817 700/820 702/824
f 700/820 701/819 705/825 702/824
f 701/819 699/822 703/826 705/825
f 695/814 691/808 704/827 706/828
f 713/821 715/829 703/826 699/822
f 689/159 687/145 708/802 710/810
f 688/146 673/284 709/807 707/806
f 687/145 688/146 707/806 708/802
f 695/814 706/828 715/829 713/821
f 698/816 696/813 712/817 714/823
f 717/815 695/814 713/821 711/818
f 696/813 697/812 711/818 712/817
f 693/804 707/803 720/830 718/831
f 697/812 693/804 718/831 719/832
f 716/809 717/815 723/833 722/834
f 711/818 697/812 719/832 721/835
f 707/806 716/809 722/834 720/830
f 717/815 711/818 721/835 723/833
f 705/836 721/837 714/838 702/839
f 705/836 703/840 715/841 721/837
f 714/838 721/837 719/842 698/843
f 715/841 706/844 723/845 721/837
f 706/844 704/846 722/847 723/845
f 698/843 719/842 718/848 694/849
f 694/849 718/848 720/850 710/851
f 724/852 704/827 691/808 709/807
f 720/853 722/847 704/846 724/854
f 730/285 724/852 709/807 673/284
f 690/256 88/104 726/855 728/856
f 67/103 147/196 727/857 725/858
f 88/104 67/103 725/858 726/855
f 314/445 323/454 738/466 773/538
f 341/453 334/431 762/514 742/477
f 325/448 326/452 740/470 774/540
f 316/451 328/432 763/518 737/467
f 732/450 347/433 764/520 739/542
f 324/449 325/448 774/540 733/459
f 340/443 342/447 743/476 772/536
f 336/434 337/426 757/506 765/522
f 315/446 314/445 773/538 744/481
f 312/427 320/444 747/484 758/509
f 339/430 335/439 769/530 761/515
f 313/435 317/428 759/508 766/525
f 343/441 340/443 772/536 771/534
f 331/442 343/441 771/534 735/463
f 309/440 311/438 768/528 770/532
f 322/417 309/440 770/532 752/496
f 335/439 318/436 767/524 769/530
f 311/438 310/437 745/480 768/528
f 318/436 313/435 766/525 767/524
f 344/419 336/434 765/522 753/499
f 347/433 346/429 760/512 764/520
f 328/432 329/422 755/502 763/518
f 334/431 339/430 761/515 762/514
f 346/429 345/416 751/494 760/512
f 317/428 312/427 758/509 759/508
f 337/426 332/425 741/474 757/506
f 348/423 338/420 754/498 756/504
f 349/424 348/423 756/504 749/491
f 329/422 330/421 734/458 755/502
f 338/420 344/419 753/499 754/498
f 319/418 322/417 752/496 748/488
f 345/416 350/415 750/490 751/494
f 350/415 349/424 749/491 750/490
f 321/457 319/418 748/488 746/485
f 320/444 321/457 746/485 747/484
f 310/437 315/446 744/481 745/480
f 342/447 341/453 742/477 743/476
f 332/425 333/455 736/462 741/474
f 326/452 327/456 739/471 740/470
f 323/454 316/451 737/467 738/466
f 333/455 331/442 735/463 736/462
f 330/421 324/449 733/459 734/458
f 285/859 243/860 776/861 777/862
f 934/863 729/864 779/865 970/866
f 729/864 731/867 781/868 779/865
f 731/867 732/869 782/870 781/868
f 327/871 285/859 777/862 778/872
f 969/873 201/874 775/875 971/876
f 739/542 783/877 782/878 732/450
f 739/471 327/456 778/879 783/880
f 777/862 785/881 783/882 778/872
f 781/868 782/870 783/882 785/881
f 776/861 786/883 785/881 777/862
f 779/865 781/868 785/881 786/883
f 970/866 779/865 786/883 972/884
f 971/885 972/884 786/883 776/861
f 787/886 789/887 790/888 788/889
f 789/887 791/890 792/891 790/888
f 791/890 793/892 794/893 792/891
f 793/892 795/894 796/895 794/893
f 801/896 803/897 804/898 802/899
f 795/894 797/900 798/901 796/895
f 797/900 787/886 788/889 798/901
f 799/902 801/896 802/899 800/903
f 803/897 805/904 806/905 804/898
f 805/904 807/906 808/907 806/905
f 807/906 809/908 810/909 808/907
f 809/908 799/902 800/903 810/909
f 811/910 813/911 814/912 812/913
f 813/911 815/914 816/915 814/912
f 815/914 817/916 818/917 816/915
f 817/916 819/918 820/919 818/917
f 825/920 827/921 828/922 826/923
f 819/918 821/924 822/925 820/919
f 821/924 811/910 812/913 822/925
f 823/926 825/920 826/923 824/927
f 827/921 829/928 830/929 828/922
f 829/928 831/930 832/931 830/929
f 831/930 833/932 834/933 832/931
f 833/932 823/926 824/927 834/933
f 835/934 836/935 838/936 837/937
f 837/937 838/936 840/938 839/939
f 839/939 840/938 842/940 841/941
f 841/941 842/940 844/942 843/943
f 843/943 844/942 846/944 845/945
f 845/945 846/944 848/946 847/947
f 847/947 848/946 850/948 849/949
f 849/949 850/948 852/950 851/951
f 851/951 852/950 854/952 853/953
f 853/953 854/952 856/954 855/955
f 855/955 856/954 858/956 857/957
f 857/957 858/956 860/958 859/959
f 859/959 860/958 862/960 861/961
f 861/961 862/960 864/962 863/963
f 863/963 864/962 866/964 865/965
f 865/965 866/964 868/966 867/967
f 867/967 868/966 870/968 869/969
f 869/969 870/968 872/970 871/971
f 871/971 872/970 874/972 873/973
f 873/973 874/972 876/974 875/975
f 875/975 876/974 878/976 877/977
f 877/977 878/976 880/978 879/979
f 823/980 833/981 879/982 881/983
f 879/979 880/978 882/984 881/985
f 881/985 882/984 836/935 835/934
f 807/986 805/987 861/988 863/989
f 793/990 791/991 855/992 857/993
f 813/994 811/995 837/996 839/997
f 853/998 855/992 791/991 851/999
f 863/989 865/1000 867/1001 807/986
f 877/1002 879/982 833/981 875/1003
f 839/997 841/1004 843/1005 813/994
f 789/1006 787/1007 847/1008 849/1009
f 799/1010 809/1011 869/1012 871/1013
f 817/1014 815/1015 845/1016 847/1017
f 831/1018 829/1019 871/1020 873/1021
f 795/1022 793/990 857/993 859/1023
f 805/987 803/1024 859/1025 861/988
f 791/991 789/1006 849/1009 851/999
f 809/1011 807/986 867/1001 869/1012
f 833/981 831/1018 873/1021 875/1003
f 815/1015 813/994 843/1005 845/1016
f 811/995 821/1026 835/1027 837/996
f 825/1028 823/980 881/983 835/1029
f 847/1008 787/1007 883/1030 817/1014
f 871/1013 829/1019 883/1031 799/1010
f 859/1023 803/1024 883/1032 795/1022
f 835/1027 821/1026 883/1033 825/1028
f 819/1034 817/1014 883/1030 821/1026
f 827/1035 825/1028 883/1033 829/1019
f 801/1036 799/1010 883/1031 803/1024
f 797/1037 795/1022 883/1032 787/1007
f 804/898 806/905 862/960 860/958
f 806/905 808/907 864/962 862/960
f 864/962 808/907 868/966 866/964
f 808/907 810/909 870/968 868/966
f 810/909 800/903 872/970 870/968
f 830/929 832/931 874/972 872/970
f 832/931 834/933 876/974 874/972
f 876/974 834/933 880/978 878/976
f 834/933 824/927 882/984 880/978
f 824/927 826/923 836/935 882/984
f 794/893 796/895 860/958 858/956
f 792/891 794/893 858/956 856/954
f 854/952 852/950 792/891 856/954
f 790/888 792/891 852/950 850/948
f 788/889 790/888 850/948 848/946
f 816/915 818/917 848/946 846/944
f 814/912 816/915 846/944 844/942
f 842/940 840/938 814/912 844/942
f 812/913 814/912 840/938 838/936
f 822/925 812/913 838/936 836/935
f 818/917 884/1038 788/889 848/946
f 798/901 788/889 884/1038 796/895
f 804/898 860/958 796/895 884/1038
f 800/903 802/899 804/898 884/1038
f 800/903 884/1038 830/929 872/970
f 826/923 828/922 830/929 884/1038
f 818/917 820/919 822/925 884/1038
f 826/923 884/1038 822/925 836/935
f 639/761 644/799 926/1039 921/1040
f 613/797 616/776 898/1041 895/1042
f 632/800 638/769 920/1043 914/1044
f 623/765 624/792 906/1045 905/1046
f 643/798 642/801 924/1047 925/1048
f 642/801 632/800 914/1044 924/1047
f 631/783 626/795 908/1049 913/1050
f 611/760 606/759 888/1051 893/1052
f 640/762 639/761 921/1040 922/1053
f 628/764 633/763 915/1054 910/1055
f 622/766 623/765 905/1046 904/1056
f 641/767 640/762 922/1053 923/1057
f 638/769 630/768 912/1058 920/1043
f 612/771 607/770 889/1059 894/1060
f 605/773 604/772 886/1061 887/1062
f 629/774 612/771 894/1060 911/1063
f 616/776 603/775 885/1064 898/1041
f 603/775 605/773 887/1062 885/1064
f 625/778 637/777 919/1065 907/1066
f 637/777 634/779 916/1067 919/1065
f 607/770 611/760 893/1052 889/1059
f 633/763 629/774 911/1063 915/1054
f 606/759 614/780 896/1068 888/1051
f 609/782 608/781 890/1069 891/1070
f 630/768 631/783 913/1050 912/1058
f 634/779 636/784 918/1071 916/1067
f 618/786 619/785 901/1072 900/1073
f 621/787 641/767 923/1057 903/1074
f 610/788 622/766 904/1056 892/1075
f 619/785 620/789 902/1076 901/1072
f 635/790 628/764 910/1055 917/1077
f 608/781 617/791 899/1078 890/1069
f 624/792 618/786 900/1073 906/1045
f 627/793 625/778 907/1066 909/1079
f 617/791 610/788 892/1075 899/1078
f 620/789 621/794 903/1080 902/1076
f 626/795 627/793 909/1079 908/1049
f 636/784 635/790 917/1077 918/1071
f 604/772 609/782 891/1070 886/1061
f 614/780 615/796 897/1081 896/1068
f 615/796 613/797 895/1042 897/1081
f 644/799 643/798 925/1048 926/1039
f 775/875 784/1082 972/884 971/876
f 780/1083 970/866 972/884 784/1082
f 243/860 969/873 971/876 776/861
f 730/1084 934/863 970/866 780/1083
f 189/1085 188/1086 941/312 946/327
f 186/1087 194/1088 949/330 959/353
f 213/1089 209/1090 966/366 962/358
f 187/1091 191/1092 960/352 963/361
f 217/1093 214/1094 930/290 968/370
f 205/1095 217/1093 968/370 943/319
f 183/1096 185/1097 965/364 967/368
f 196/1098 183/1096 967/368 954/342
f 209/1090 192/1099 964/360 966/366
f 185/1097 184/1100 947/326 965/364
f 192/1099 187/1091 963/361 964/360
f 218/1101 210/1102 928/286 955/345
f 221/1103 220/1104 961/356 933/299
f 202/1105 203/1106 957/348 935/303
f 208/1107 213/1089 962/358 938/309
f 220/1104 219/1108 953/340 961/356
f 191/1092 186/1087 959/353 960/352
f 211/1109 206/1110 945/324 927/287
f 222/1111 212/1112 956/344 958/350
f 223/1113 222/1111 958/350 951/337
f 203/1106 204/1114 942/316 957/348
f 212/1112 218/1101 955/345 956/344
f 193/1115 196/1098 954/342 950/334
f 219/1108 224/1116 952/336 953/340
f 224/1116 223/1113 951/337 952/336
f 195/1117 193/1115 950/334 948/331
f 194/1088 195/1117 948/331 949/330
f 184/1100 189/1085 946/327 947/326
f 216/1118 215/1119 939/308 929/291
f 206/1110 207/1120 944/318 945/324
f 200/1121 201/1122 969/322 937/306
f 197/1123 190/1124 936/302 940/313
f 207/1120 205/1095 943/319 944/318
f 204/1114 198/1125 932/294 942/316
f 188/1086 197/1123 940/313 941/312
f 215/1119 208/1107 938/309 939/308
f 199/1126 200/1121 937/306 931/295
f 190/1124 202/1105 935/303 936/302
f 730/1127 221/1103 933/299 934/298
f 198/1125 199/1126 931/295 932/294
f 214/1094 216/1118 929/291 930/290
f 210/1102 211/1109 927/287 928/286